{
.appVersion = "3151";
.formatVersion = 3;
date = "2023-06-18 18:18:56 +0000";
familyName = "RR Barney";
featurePrefixes = (
{
automatic = 1;
code = "languagesystem DFLT dflt;

languagesystem latn dflt;
languagesystem latn AZE;
languagesystem latn CRT;
languagesystem latn KAZ;
languagesystem latn TAT;
languagesystem latn TRK;
";
name = Languagesystems;
}
);
features = (
{
automatic = 1;
code = "feature locl;
";
tag = aalt;
},
{
automatic = 1;
code = "lookup ccmp_Other_1 {
	@CombiningTopAccents = [acutecomb dieresiscomb gravecomb];
	sub [i]' @CombiningTopAccents by [idotless];
} ccmp_Other_1;
";
tag = ccmp;
},
{
automatic = 1;
code = "lookup locl_latn_0 {
	script latn;
	language AZE;
	sub i by idotaccent;
	language CRT;
	sub i by idotaccent;
	language KAZ;
	sub i by idotaccent;
	language TAT;
	sub i by idotaccent;
	language TRK;
	sub i by idotaccent;
} locl_latn_0;
";
tag = locl;
}
);
fontMaster = (
{
iconName = SemiLight;
id = "32AF036A-4181-4CD3-84B0-594A9F44F1BB";
metricValues = (
{
pos = 800;
},
{
over = 16;
pos = 580;
},
{
pos = 500;
},
{
over = -16;
},
{
pos = -200;
},
{
}
);
name = Rough;
userData = {
GSCornerRadius = 15;
GSExtrudeAngle = 30;
GSExtrudeOffset = 15;
GSRoughenHorizontal = 2;
GSRoughenSegmentLength = 5;
GSRoughenVertical = 2;
};
}
);
glyphs = (
{
glyphname = A;
kernLeft = A;
kernRight = A;
lastChange = "2023-08-05 19:35:05 +0000";
layers = (
{
layerId = "32AF036A-4181-4CD3-84B0-594A9F44F1BB";
shapes = (
{
closed = 1;
nodes = (
(86,7,l),
(86,13,l),
(88,17,l),
(91,21,l),
(92,26,l),
(94,31,l),
(97,35,l),
(98,40,l),
(100,45,l),
(103,50,l),
(104,53,l),
(106,59,l),
(107,64,l),
(109,68,l),
(112,73,l),
(113,77,l),
(116,82,l),
(117,87,l),
(120,91,l),
(120,96,l),
(123,99,l),
(124,104,l),
(126,109,l),
(129,113,l),
(133,122,l),
(134,128,l),
(136,133,l),
(138,136,l),
(139,141,l),
(142,146,l),
(144,150,l),
(145,156,l),
(148,160,l),
(149,165,l),
(151,168,l),
(155,178,l),
(156,183,l),
(159,188,l),
(160,191,l),
(163,196,l),
(165,202,l),
(167,205,l),
(169,210,l),
(170,215,l),
(173,220,l),
(173,225,l),
(175,228,l),
(177,233,l),
(180,238,l),
(181,243,l),
(183,248,l),
(185,251,l),
(187,257,l),
(190,261,l),
(191,265,l),
(193,271,l),
(194,274,l),
(197,280,l),
(198,285,l),
(200,289,l),
(202,293,l),
(208,307,l),
(209,312,l),
(212,316,l),
(213,321,l),
(215,325,l),
(217,331,l),
(220,334,l),
(221,339,l),
(224,343,l),
(225,348,l),
(227,354,l),
(229,358,l),
(230,363,l),
(232,367,l),
(237,376,l),
(238,381,l),
(239,385,l),
(242,394,l),
(245,400,l),
(247,403,l),
(247,408,l),
(249,413,l),
(251,418,l),
(252,422,l),
(255,427,l),
(258,436,l),
(260,442,l),
(262,445,l),
(262,450,l),
(265,454,l),
(266,459,l),
(267,465,l),
(269,468,l),
(271,474,l),
(272,478,l),
(275,482,l),
(277,488,l),
(278,493,l),
(279,496,l),
(282,502,l),
(282,506,l),
(285,511,l),
(286,515,l),
(288,519,l),
(291,524,l),
(294,528,l),
(296,532,l),
(300,540,l),
(303,543,l),
(304,548,l),
(307,552,l),
(312,560,l),
(314,565,l),
(317,575,l),
(318,579,l),
(314,583,l),
(311,586,l),
(300,587,l),
(290,587,l),
(285,588,l),
(275,587,l),
(270,587,l),
(266,585,l),
(263,581,l),
(260,572,l),
(258,567,l),
(256,563,l),
(252,554,l),
(251,548,l),
(249,545,l),
(246,539,l),
(245,536,l),
(242,530,l),
(241,525,l),
(239,522,l),
(237,516,l),
(235,512,l),
(234,507,l),
(231,502,l),
(229,499,l),
(228,494,l),
(225,489,l),
(223,484,l),
(222,480,l),
(218,471,l),
(216,465,l),
(210,451,l),
(209,447,l),
(207,443,l),
(206,438,l),
(204,434,l),
(202,428,l),
(199,424,l),
(198,420,l),
(194,411,l),
(191,405,l),
(189,402,l),
(189,396,l),
(187,392,l),
(183,383,l),
(180,378,l),
(178,374,l),
(177,369,l),
(175,365,l),
(172,359,l),
(172,355,l),
(169,350,l),
(168,346,l),
(166,342,l),
(163,337,l),
(162,332,l),
(159,327,l),
(158,323,l),
(156,318,l),
(155,314,l),
(152,309,l),
(151,304,l),
(148,300,l),
(147,295,l),
(144,291,l),
(142,286,l),
(141,281,l),
(140,277,l),
(137,271,l),
(135,267,l),
(134,263,l),
(132,258,l),
(130,254,l),
(128,248,l),
(126,244,l),
(124,240,l),
(121,231,l),
(118,225,l),
(117,221,l),
(115,217,l),
(113,212,l),
(111,207,l),
(108,203,l),
(106,197,l),
(105,194,l),
(104,189,l),
(102,184,l),
(99,180,l),
(97,174,l),
(96,170,l),
(94,166,l),
(92,162,l),
(89,157,l),
(89,152,l),
(87,148,l),
(84,142,l),
(80,133,l),
(79,128,l),
(76,125,l),
(75,120,l),
(72,111,l),
(69,106,l),
(68,101,l),
(66,97,l),
(63,91,l),
(61,88,l),
(60,83,l),
(57,77,l),
(55,74,l),
(54,68,l),
(53,64,l),
(50,59,l),
(46,50,l),
(45,46,l),
(43,40,l),
(40,37,l),
(38,31,l),
(37,28,l),
(34,18,l),
(33,13,l),
(35,9,l),
(39,5,l),
(48,1,l),
(54,-2,l),
(59,-4,l),
(69,-7,l),
(74,-6,l),
(81,-1,l)
);
},
{
closed = 1;
nodes = (
(148,162,l),
(153,162,l),
(159,163,l),
(163,163,l),
(168,164,l),
(174,164,l),
(178,165,l),
(184,166,l),
(189,166,l),
(193,167,l),
(198,167,l),
(204,167,l),
(209,167,l),
(213,167,l),
(219,168,l),
(223,169,l),
(228,168,l),
(233,169,l),
(239,169,l),
(243,170,l),
(248,171,l),
(254,170,l),
(258,171,l),
(264,172,l),
(268,172,l),
(273,172,l),
(279,172,l),
(284,172,l),
(288,174,l),
(293,173,l),
(299,173,l),
(304,174,l),
(309,175,l),
(313,174,l),
(329,175,l),
(333,177,l),
(338,176,l),
(343,176,l),
(349,178,l),
(358,177,l),
(364,179,l),
(368,180,l),
(372,182,l),
(376,184,l),
(377,189,l),
(378,199,l),
(378,203,l),
(378,209,l),
(377,219,l),
(375,224,l),
(371,227,l),
(367,228,l),
(358,229,l),
(353,228,l),
(347,229,l),
(343,228,l),
(338,227,l),
(332,227,l),
(328,226,l),
(322,227,l),
(318,227,l),
(312,227,l),
(308,226,l),
(302,225,l),
(298,225,l),
(293,225,l),
(288,224,l),
(282,224,l),
(278,224,l),
(273,224,l),
(267,222,l),
(261,223,l),
(256,222,l),
(252,222,l),
(246,221,l),
(242,222,l),
(237,221,l),
(232,220,l),
(227,220,l),
(221,219,l),
(217,219,l),
(211,219,l),
(206,218,l),
(202,219,l),
(197,217,l),
(191,218,l),
(186,216,l),
(182,216,l),
(176,215,l),
(171,216,l),
(152,214,l),
(147,213,l),
(142,213,l),
(133,211,l),
(130,209,l),
(126,205,l),
(126,202,l),
(126,192,l),
(126,186,l),
(127,181,l),
(128,170,l),
(130,166,l),
(134,163,l),
(139,162,l)
);
},
{
closed = 1;
nodes = (
(414,-7,l),
(421,-6,l),
(426,-4,l),
(435,-2,l),
(440,1,l),
(443,4,l),
(443,10,l),
(442,20,l),
(440,23,l),
(439,28,l),
(439,33,l),
(437,39,l),
(436,43,l),
(436,49,l),
(434,53,l),
(433,58,l),
(432,64,l),
(431,69,l),
(431,73,l),
(429,77,l),
(428,83,l),
(428,88,l),
(426,92,l),
(425,97,l),
(424,103,l),
(423,108,l),
(423,112,l),
(422,118,l),
(420,122,l),
(419,127,l),
(419,131,l),
(418,137,l),
(416,141,l),
(415,147,l),
(415,151,l),
(414,157,l),
(413,161,l),
(411,167,l),
(410,172,l),
(410,176,l),
(408,181,l),
(406,191,l),
(405,195,l),
(405,200,l),
(404,205,l),
(402,211,l),
(402,215,l),
(401,221,l),
(400,225,l),
(398,230,l),
(397,234,l),
(396,240,l),
(395,244,l),
(393,249,l),
(391,259,l),
(391,264,l),
(390,270,l),
(388,275,l),
(388,279,l),
(387,283,l),
(386,289,l),
(384,293,l),
(382,303,l),
(382,309,l),
(380,313,l),
(379,318,l),
(378,324,l),
(377,329,l),
(377,332,l),
(376,338,l),
(374,343,l),
(373,348,l),
(372,352,l),
(372,358,l),
(370,362,l),
(369,367,l),
(368,373,l),
(367,377,l),
(367,383,l),
(366,387,l),
(364,392,l),
(364,396,l),
(362,401,l),
(362,406,l),
(360,412,l),
(360,417,l),
(358,422,l),
(357,426,l),
(357,432,l),
(356,437,l),
(355,440,l),
(353,446,l),
(353,450,l),
(352,455,l),
(350,460,l),
(350,465,l),
(349,471,l),
(347,475,l),
(347,480,l),
(345,486,l),
(345,490,l),
(343,495,l),
(342,499,l),
(342,504,l),
(340,514,l),
(338,520,l),
(338,525,l),
(336,529,l),
(336,534,l),
(334,540,l),
(333,543,l),
(332,548,l),
(331,554,l),
(330,558,l),
(329,564,l),
(329,569,l),
(325,578,l),
(324,582,l),
(320,585,l),
(315,587,l),
(306,587,l),
(300,588,l),
(295,587,l),
(291,588,l),
(279,587,l),
(275,585,l),
(272,581,l),
(272,576,l),
(275,567,l),
(276,561,l),
(278,557,l),
(280,553,l),
(281,547,l),
(283,543,l),
(285,539,l),
(288,530,l),
(291,525,l),
(293,520,l),
(294,514,l),
(295,510,l),
(296,505,l),
(296,499,l),
(297,495,l),
(298,490,l),
(299,485,l),
(299,480,l),
(299,476,l),
(301,471,l),
(302,465,l),
(302,460,l),
(303,456,l),
(305,446,l),
(306,440,l),
(305,435,l),
(307,431,l),
(307,426,l),
(309,421,l),
(309,415,l),
(310,410,l),
(311,407,l),
(312,402,l),
(311,396,l),
(312,392,l),
(313,386,l),
(315,381,l),
(315,377,l),
(317,366,l),
(317,361,l),
(318,356,l),
(320,351,l),
(321,347,l),
(322,342,l),
(322,337,l),
(324,333,l),
(325,327,l),
(326,322,l),
(327,318,l),
(327,313,l),
(329,307,l),
(330,302,l),
(330,297,l),
(332,292,l),
(333,288,l),
(333,284,l),
(334,279,l),
(336,273,l),
(336,269,l),
(337,264,l),
(339,259,l),
(339,253,l),
(341,249,l),
(341,243,l),
(343,238,l),
(345,229,l),
(345,225,l),
(347,219,l),
(348,214,l),
(348,209,l),
(350,204,l),
(351,200,l),
(351,194,l),
(352,190,l),
(354,185,l),
(354,181,l),
(356,175,l),
(358,170,l),
(358,165,l),
(360,160,l),
(360,155,l),
(361,150,l),
(363,146,l),
(363,141,l),
(365,135,l),
(366,131,l),
(367,126,l),
(367,122,l),
(368,116,l),
(369,112,l),
(371,107,l),
(372,102,l),
(373,96,l),
(373,92,l),
(374,87,l),
(376,81,l),
(377,76,l),
(377,71,l),
(379,68,l),
(380,63,l),
(381,57,l),
(381,52,l),
(383,47,l),
(383,43,l),
(384,37,l),
(386,33,l),
(387,27,l),
(388,22,l),
(388,18,l),
(389,13,l),
(390,9,l),
(392,-1,l),
(396,-6,l),
(400,-7,l),
(405,-8,l)
);
}
);
width = 476;
}
);
unicode = (65,97);
},
{
glyphname = Aacute;
kernLeft = A;
kernRight = A;
lastChange = "2023-08-05 19:35:05 +0000";
layers = (
{
layerId = "32AF036A-4181-4CD3-84B0-594A9F44F1BB";
shapes = (
{
ref = A;
},
{
closed = 1;
nodes = (
(295,677,l),
(299,680,l),
(303,684,l),
(305,689,l),
(308,692,l),
(311,697,l),
(316,701,l),
(319,703,l),
(321,708,l),
(325,711,l),
(329,716,l),
(332,720,l),
(334,724,l),
(338,727,l),
(341,731,l),
(345,734,l),
(347,738,l),
(351,743,l),
(355,746,l),
(358,751,l),
(363,759,l),
(365,763,l),
(364,768,l),
(362,771,l),
(355,779,l),
(352,782,l),
(349,784,l),
(338,794,l),
(334,795,l),
(328,794,l),
(325,792,l),
(318,786,l),
(314,781,l),
(311,778,l),
(308,774,l),
(304,770,l),
(300,765,l),
(297,761,l),
(295,758,l),
(290,755,l),
(288,751,l),
(285,747,l),
(281,742,l),
(277,738,l),
(275,735,l),
(271,731,l),
(268,728,l),
(265,724,l),
(262,719,l),
(257,715,l),
(255,711,l),
(249,703,l),
(247,700,l),
(247,694,l),
(250,690,l),
(257,683,l),
(261,681,l),
(264,677,l),
(268,674,l),
(275,669,l),
(280,667,l),
(285,667,l),
(288,670,l)
);
}
);
width = 476;
}
);
unicode = (193,225);
},
{
glyphname = Adieresis;
kernLeft = A;
kernRight = A;
lastChange = "2023-08-05 19:35:05 +0000";
layers = (
{
layerId = "32AF036A-4181-4CD3-84B0-594A9F44F1BB";
shapes = (
{
ref = A;
},
{
closed = 1;
nodes = (
(372,680,l),
(374,684,l),
(374,690,l),
(376,695,l),
(377,699,l),
(378,705,l),
(378,709,l),
(378,715,l),
(380,720,l),
(380,724,l),
(382,729,l),
(382,735,l),
(384,740,l),
(384,744,l),
(384,748,l),
(386,753,l),
(387,759,l),
(387,764,l),
(388,769,l),
(390,774,l),
(391,783,l),
(389,789,l),
(386,792,l),
(383,795,l),
(373,798,l),
(368,799,l),
(365,798,l),
(360,799,l),
(350,802,l),
(346,800,l),
(342,797,l),
(339,793,l),
(338,783,l),
(336,779,l),
(334,769,l),
(334,764,l),
(333,759,l),
(332,753,l),
(332,749,l),
(330,739,l),
(329,733,l),
(328,729,l),
(327,723,l),
(326,718,l),
(326,714,l),
(324,708,l),
(322,698,l),
(322,693,l),
(321,688,l),
(320,678,l),
(320,674,l),
(323,670,l),
(327,667,l),
(336,666,l),
(342,665,l),
(346,663,l),
(351,662,l),
(360,661,l),
(364,662,l),
(368,666,l),
(370,669,l)
);
},
{
closed = 1;
nodes = (
(263,682,l),
(263,688,l),
(265,692,l),
(266,696,l),
(266,702,l),
(267,706,l),
(267,711,l),
(268,716,l),
(270,722,l),
(270,727,l),
(270,731,l),
(272,736,l),
(273,740,l),
(274,746,l),
(275,751,l),
(275,755,l),
(275,761,l),
(277,765,l),
(279,775,l),
(279,785,l),
(279,790,l),
(276,793,l),
(272,795,l),
(263,798,l),
(258,799,l),
(253,799,l),
(248,799,l),
(240,801,l),
(231,797,l),
(228,793,l),
(226,782,l),
(225,779,l),
(225,774,l),
(223,769,l),
(222,763,l),
(222,759,l),
(221,753,l),
(220,750,l),
(220,745,l),
(219,739,l),
(218,735,l),
(217,730,l),
(217,725,l),
(216,720,l),
(214,715,l),
(215,711,l),
(213,706,l),
(210,692,l),
(210,682,l),
(210,677,l),
(214,672,l),
(217,670,l),
(226,669,l),
(231,667,l),
(236,666,l),
(240,665,l),
(249,665,l),
(254,665,l),
(259,669,l),
(261,673,l)
);
}
);
width = 476;
},
{
associatedMasterId = "32AF036A-4181-4CD3-84B0-594A9F44F1BB";
layerId = "363B994B-20DB-44AC-B0D5-E5538A4D4A46";
width = 600;
}
);
unicode = (196,228);
},
{
glyphname = Aring;
kernLeft = A;
lastChange = "2023-08-05 19:35:05 +0000";
layers = (
{
layerId = "32AF036A-4181-4CD3-84B0-594A9F44F1BB";
shapes = (
{
ref = A;
},
{
closed = 1;
nodes = (
(300,580,l),
(305,580,l),
(311,582,l),
(316,582,l),
(320,583,l),
(326,586,l),
(329,587,l),
(335,588,l),
(340,590,l),
(344,593,l),
(347,596,l),
(351,598,l),
(356,601,l),
(360,604,l),
(364,608,l),
(368,612,l),
(370,615,l),
(377,624,l),
(380,628,l),
(383,633,l),
(385,636,l),
(386,642,l),
(388,646,l),
(390,651,l),
(392,656,l),
(394,660,l),
(394,666,l),
(395,670,l),
(396,676,l),
(396,680,l),
(396,690,l),
(397,695,l),
(395,700,l),
(394,706,l),
(395,710,l),
(392,714,l),
(391,719,l),
(390,724,l),
(389,728,l),
(387,734,l),
(384,737,l),
(382,742,l),
(376,750,l),
(372,752,l),
(369,756,l),
(364,760,l),
(360,763,l),
(357,765,l),
(353,768,l),
(348,770,l),
(343,772,l),
(339,774,l),
(334,775,l),
(329,775,l),
(324,776,l),
(319,777,l),
(313,777,l),
(304,778,l),
(298,778,l),
(294,777,l),
(289,776,l),
(283,775,l),
(278,774,l),
(274,772,l),
(269,769,l),
(264,767,l),
(260,765,l),
(256,762,l),
(252,759,l),
(247,757,l),
(243,753,l),
(240,750,l),
(235,747,l),
(233,742,l),
(226,734,l),
(224,731,l),
(221,727,l),
(218,722,l),
(216,718,l),
(213,712,l),
(212,708,l),
(210,703,l),
(209,699,l),
(207,693,l),
(207,688,l),
(206,684,l),
(205,679,l),
(205,674,l),
(204,663,l),
(205,658,l),
(205,655,l),
(207,650,l),
(207,645,l),
(208,640,l),
(210,635,l),
(212,631,l),
(214,627,l),
(217,621,l),
(218,618,l),
(225,610,l),
(228,606,l),
(231,602,l),
(236,600,l),
(239,597,l),
(244,593,l),
(248,592,l),
(252,589,l),
(256,587,l),
(262,585,l),
(266,585,l),
(271,583,l),
(275,582,l),
(280,582,l),
(286,581,l),
(290,580,l)
);
},
{
closed = 1;
nodes = (
(290,632,l),
(285,634,l),
(280,634,l),
(275,636,l),
(272,637,l),
(267,641,l),
(261,649,l),
(260,653,l),
(258,659,l),
(256,663,l),
(256,674,l),
(258,679,l),
(258,683,l),
(260,689,l),
(263,694,l),
(265,699,l),
(268,703,l),
(273,711,l),
(278,714,l),
(280,717,l),
(285,720,l),
(289,721,l),
(293,724,l),
(298,725,l),
(303,726,l),
(313,726,l),
(319,725,l),
(324,723,l),
(329,721,l),
(333,718,l),
(340,710,l),
(341,705,l),
(342,700,l),
(344,696,l),
(345,691,l),
(344,680,l),
(344,676,l),
(343,672,l),
(341,668,l),
(340,662,l),
(337,659,l),
(336,655,l),
(329,647,l),
(326,643,l),
(322,641,l),
(318,639,l),
(314,636,l),
(309,635,l),
(305,634,l),
(301,632,l)
);
}
);
width = 476;
},
{
associatedMasterId = "32AF036A-4181-4CD3-84B0-594A9F44F1BB";
layerId = "363B994B-20DB-44AC-B0D5-E5538A4D4A46";
width = 600;
}
);
unicode = (197,229);
},
{
glyphname = AE;
kernLeft = A;
kernRight = E;
lastChange = "2023-08-06 15:31:52 +0000";
layers = (
{
layerId = "32AF036A-4181-4CD3-84B0-594A9F44F1BB";
shapes = (
{
closed = 1;
nodes = (
(85,6,l),
(88,10,l),
(89,14,l),
(92,19,l),
(94,23,l),
(95,28,l),
(98,32,l),
(102,41,l),
(103,47,l),
(107,50,l),
(109,56,l),
(111,60,l),
(112,64,l),
(114,69,l),
(116,74,l),
(119,78,l),
(130,101,l),
(132,105,l),
(134,110,l),
(135,115,l),
(137,118,l),
(140,124,l),
(142,127,l),
(144,133,l),
(146,137,l),
(149,142,l),
(150,145,l),
(152,150,l),
(155,154,l),
(161,168,l),
(164,173,l),
(165,177,l),
(167,181,l),
(170,186,l),
(171,191,l),
(173,196,l),
(176,199,l),
(183,213,l),
(184,218,l),
(186,223,l),
(189,227,l),
(191,231,l),
(193,236,l),
(194,241,l),
(197,245,l),
(199,250,l),
(202,255,l),
(203,259,l),
(205,263,l),
(208,268,l),
(209,272,l),
(212,276,l),
(213,281,l),
(217,290,l),
(221,295,l),
(223,299,l),
(224,303,l),
(226,308,l),
(229,312,l),
(231,318,l),
(233,321,l),
(234,327,l),
(237,330,l),
(242,339,l),
(243,345,l),
(245,348,l),
(250,358,l),
(251,363,l),
(253,368,l),
(256,373,l),
(258,377,l),
(259,381,l),
(261,387,l),
(262,390,l),
(264,396,l),
(266,400,l),
(269,404,l),
(270,409,l),
(272,415,l),
(274,419,l),
(276,423,l),
(279,428,l),
(279,432,l),
(282,437,l),
(284,441,l),
(286,447,l),
(290,456,l),
(291,461,l),
(294,465,l),
(295,469,l),
(297,475,l),
(298,479,l),
(300,483,l),
(303,488,l),
(305,493,l),
(307,498,l),
(309,503,l),
(313,512,l),
(315,509,l),
(319,518,l),
(322,522,l),
(323,526,l),
(326,530,l),
(329,534,l),
(330,538,l),
(332,543,l),
(335,547,l),
(337,552,l),
(339,555,l),
(341,560,l),
(343,565,l),
(349,573,l),
(348,579,l),
(346,583,l),
(340,586,l),
(330,586,l),
(326,586,l),
(321,587,l),
(317,586,l),
(307,586,l),
(301,584,l),
(297,581,l),
(293,570,l),
(291,566,l),
(287,562,l),
(285,557,l),
(283,553,l),
(281,548,l),
(280,543,l),
(278,540,l),
(276,535,l),
(274,530,l),
(271,525,l),
(268,521,l),
(266,517,l),
(264,511,l),
(263,507,l),
(261,502,l),
(258,498,l),
(256,494,l),
(255,489,l),
(252,485,l),
(250,480,l),
(247,475,l),
(245,472,l),
(239,458,l),
(238,453,l),
(234,449,l),
(233,444,l),
(231,439,l),
(228,436,l),
(227,430,l),
(225,426,l),
(223,422,l),
(220,417,l),
(218,413,l),
(216,407,l),
(213,404,l),
(212,398,l),
(209,395,l),
(208,389,l),
(206,386,l),
(203,381,l),
(201,376,l),
(199,371,l),
(196,368,l),
(195,363,l),
(193,358,l),
(191,354,l),
(189,350,l),
(186,344,l),
(184,340,l),
(182,335,l),
(177,326,l),
(176,321,l),
(174,317,l),
(172,313,l),
(170,309,l),
(168,303,l),
(163,294,l),
(161,291,l),
(159,285,l),
(156,281,l),
(155,276,l),
(152,272,l),
(151,268,l),
(148,263,l),
(147,259,l),
(144,253,l),
(140,244,l),
(137,240,l),
(136,236,l),
(134,232,l),
(132,226,l),
(130,223,l),
(127,217,l),
(125,214,l),
(121,205,l),
(119,199,l),
(116,196,l),
(115,191,l),
(112,187,l),
(109,182,l),
(108,177,l),
(104,168,l),
(102,163,l),
(99,158,l),
(98,155,l),
(96,149,l),
(93,146,l),
(80,119,l),
(78,113,l),
(76,109,l),
(74,104,l),
(72,101,l),
(70,95,l),
(68,91,l),
(66,86,l),
(63,81,l),
(62,77,l),
(60,73,l),
(58,69,l),
(54,63,l),
(52,59,l),
(51,55,l),
(48,51,l),
(46,45,l),
(44,41,l),
(42,37,l),
(40,32,l),
(37,28,l),
(34,18,l),
(34,14,l),
(35,10,l),
(38,6,l),
(49,1,l),
(52,-1,l),
(58,-3,l),
(68,-7,l),
(73,-8,l),
(76,-6,l),
(81,-4,l)
);
},
{
closed = 1;
nodes = (
(165,170,l),
(171,169,l),
(176,171,l),
(180,171,l),
(191,172,l),
(195,171,l),
(206,171,l),
(210,172,l),
(216,173,l),
(221,172,l),
(225,172,l),
(231,174,l),
(236,174,l),
(242,173,l),
(247,173,l),
(251,174,l),
(256,175,l),
(262,175,l),
(266,175,l),
(271,175,l),
(277,176,l),
(282,175,l),
(287,176,l),
(291,175,l),
(296,177,l),
(302,176,l),
(312,176,l),
(319,177,l),
(324,179,l),
(328,180,l),
(334,183,l),
(336,188,l),
(337,197,l),
(336,204,l),
(337,209,l),
(335,218,l),
(333,223,l),
(329,227,l),
(325,228,l),
(316,227,l),
(310,228,l),
(305,227,l),
(301,227,l),
(295,227,l),
(286,226,l),
(281,227,l),
(275,226,l),
(271,226,l),
(265,225,l),
(261,225,l),
(255,226,l),
(251,226,l),
(240,225,l),
(236,224,l),
(230,225,l),
(226,224,l),
(221,224,l),
(215,223,l),
(210,224,l),
(206,223,l),
(200,223,l),
(196,222,l),
(191,223,l),
(185,222,l),
(181,222,l),
(175,221,l),
(171,222,l),
(167,220,l),
(161,220,l),
(152,220,l),
(148,218,l),
(145,214,l),
(144,209,l),
(143,200,l),
(145,194,l),
(144,188,l),
(145,179,l),
(147,175,l),
(152,171,l),
(155,169,l)
);
},
{
closed = 1;
nodes = (
(531,18,l),
(531,23,l),
(531,28,l),
(531,38,l),
(530,42,l),
(526,47,l),
(522,48,l),
(511,48,l),
(502,48,l),
(497,50,l),
(491,50,l),
(487,49,l),
(482,49,l),
(476,50,l),
(471,49,l),
(466,50,l),
(462,49,l),
(456,50,l),
(452,50,l),
(447,49,l),
(436,49,l),
(432,51,l),
(428,50,l),
(423,50,l),
(417,51,l),
(383,51,l),
(377,50,l),
(372,51,l),
(368,50,l),
(363,52,l),
(357,51,l),
(347,51,l),
(343,49,l),
(339,44,l),
(339,38,l),
(343,30,l),
(346,25,l),
(348,21,l),
(349,15,l),
(353,5,l),
(360,3,l),
(364,1,l),
(374,0,l),
(379,1,l),
(384,0,l),
(390,0,l),
(399,0,l),
(405,-1,l),
(409,0,l),
(414,-1,l),
(420,0,l),
(425,-1,l),
(431,-1,l),
(435,0,l),
(441,-1,l),
(455,-2,l),
(461,-1,l),
(465,-2,l),
(475,-2,l),
(480,-1,l),
(486,-2,l),
(490,-1,l),
(496,-1,l),
(501,-2,l),
(510,-3,l),
(521,-2,l),
(524,0,l),
(528,4,l),
(531,7,l)
);
},
{
closed = 1;
nodes = (
(358,20,l),
(358,26,l),
(358,31,l),
(357,36,l),
(357,40,l),
(357,46,l),
(357,50,l),
(357,56,l),
(357,66,l),
(358,70,l),
(358,76,l),
(357,81,l),
(357,85,l),
(358,91,l),
(358,95,l),
(358,100,l),
(357,105,l),
(357,110,l),
(358,115,l),
(357,121,l),
(358,125,l),
(357,131,l),
(357,135,l),
(358,140,l),
(358,145,l),
(356,151,l),
(357,156,l),
(356,161,l),
(357,166,l),
(356,170,l),
(356,175,l),
(357,180,l),
(356,186,l),
(356,190,l),
(357,195,l),
(357,200,l),
(356,206,l),
(357,210,l),
(357,215,l),
(356,221,l),
(357,226,l),
(356,231,l),
(356,236,l),
(356,242,l),
(356,246,l),
(356,251,l),
(356,257,l),
(356,262,l),
(356,266,l),
(357,272,l),
(356,276,l),
(357,281,l),
(356,286,l),
(357,292,l),
(357,297,l),
(356,301,l),
(356,311,l),
(357,316,l),
(356,322,l),
(357,326,l),
(357,332,l),
(357,337,l),
(356,342,l),
(357,347,l),
(356,352,l),
(356,357,l),
(357,361,l),
(357,371,l),
(356,376,l),
(356,381,l),
(356,387,l),
(357,392,l),
(357,397,l),
(356,401,l),
(357,407,l),
(356,411,l),
(356,416,l),
(357,422,l),
(356,427,l),
(356,431,l),
(356,436,l),
(355,442,l),
(355,447,l),
(355,451,l),
(356,456,l),
(356,466,l),
(356,472,l),
(356,476,l),
(356,481,l),
(356,487,l),
(355,491,l),
(355,497,l),
(356,501,l),
(355,506,l),
(355,516,l),
(356,521,l),
(356,527,l),
(356,532,l),
(355,536,l),
(356,542,l),
(355,546,l),
(355,552,l),
(355,556,l),
(356,561,l),
(356,567,l),
(355,577,l),
(353,581,l),
(350,584,l),
(346,586,l),
(334.995,587,l),
(321,587,l),
(310,586,l),
(306,585,l),
(302,581,l),
(302,576,l),
(301,565,l),
(303,561,l),
(302,556,l),
(303,546,l),
(305,542,l),
(304,537,l),
(306,531,l),
(305,526,l),
(307,521,l),
(307,517,l),
(308,513,l),
(313,510,l),
(312,502,l),
(312,497,l),
(312,493,l),
(310,487,l),
(310,472,l),
(310,468,l),
(309,462,l),
(309,458,l),
(309,453,l),
(310,447,l),
(309,443,l),
(308,438,l),
(308,432,l),
(309,428,l),
(308,423,l),
(308,418,l),
(307,413,l),
(308,408,l),
(308,398,l),
(306,392,l),
(306,387,l),
(306,383,l),
(307,378,l),
(305,372,l),
(306,368,l),
(306,363,l),
(305,357,l),
(306,352,l),
(305,348,l),
(305,342,l),
(304,333,l),
(305,328,l),
(304,322,l),
(305,317,l),
(305,313,l),
(304,308,l),
(305,302,l),
(304,297,l),
(305,292,l),
(304,287,l),
(304,277,l),
(304,273,l),
(304,268,l),
(305,263,l),
(305,258,l),
(305,252,l),
(305,248,l),
(304,242,l),
(305,238,l),
(305,233,l),
(304,227,l),
(304,223,l),
(304,218,l),
(305,212,l),
(304,208,l),
(304,202,l),
(304,196,l),
(305,191,l),
(305,186,l),
(304,181,l),
(304,177,l),
(304,172,l),
(305,166,l),
(306,161,l),
(306,151,l),
(305,147,l),
(306,141,l),
(306,136,l),
(305,132,l),
(305,127,l),
(306,121,l),
(306,116,l),
(305,112,l),
(306,106,l),
(306,102,l),
(306,96,l),
(305,91,l),
(305,87,l),
(305,81,l),
(306,77,l),
(305,72,l),
(306,67,l),
(306,61,l),
(306,57,l),
(306,52,l),
(305,46,l),
(306,41,l),
(305,36,l),
(306,32,l),
(305,26,l),
(305,21,l),
(305,11,l),
(307,8,l),
(312,3,l),
(316,1,l),
(326,2,l),
(332,1,l),
(336,0,l),
(347,2,l),
(355,1,l),
(365,3,l),
(357,10,l)
);
},
{
closed = 1;
nodes = (
(368,283,l),
(373,284,l),
(379,284,l),
(384,283,l),
(390,283,l),
(394,284,l),
(400,283,l),
(409,284,l),
(415,284,l),
(421,285,l),
(425,285,l),
(431,284,l),
(436,284,l),
(446,285,l),
(449,288,l),
(453,292,l),
(455,295,l),
(455,306,l),
(455,311,l),
(455,316,l),
(454,327,l),
(452,331,l),
(449,334,l),
(445,336,l),
(435,335,l),
(429,336,l),
(414,336,l),
(409,335,l),
(403,335,l),
(399,335,l),
(393,335,l),
(388,334,l),
(377,334,l),
(373,335,l),
(368,334,l),
(357,333,l),
(354,332,l),
(350,327,l),
(348,324,l),
(348,313,l),
(347,309,l),
(349,303,l),
(349,292,l),
(351,288,l),
(355,286,l),
(359,283,l)
);
},
{
closed = 1;
nodes = (
(509,555,l),
(508,560,l),
(509,566,l),
(508,575,l),
(507,580,l),
(502,584,l),
(498,586,l),
(489,585,l),
(468,585,l),
(463,586,l),
(458,585,l),
(454,586,l),
(448,585,l),
(443,585,l),
(438,586,l),
(434,586,l),
(429,585,l),
(392,586,l),
(388,587,l),
(368,587,l),
(363,586,l),
(337,586,l),
(332,587,l),
(327,587,l),
(318,585,l),
(313,584,l),
(311,582,l),
(310,577,l),
(310,572,l),
(315,565,l),
(319,561,l),
(322,556,l),
(325,552,l),
(326,549,l),
(333,540,l),
(338,538,l),
(342,536,l),
(353,536,l),
(358,536,l),
(362,535,l),
(373,535,l),
(379,536,l),
(384,535,l),
(389,536,l),
(394,535,l),
(408,535,l),
(414,536,l),
(419,535,l),
(423,535,l),
(444,535,l),
(449,534,l),
(453,535,l),
(464,535,l),
(469,534,l),
(479,534,l),
(483,535,l),
(488,534,l),
(498,536,l),
(502,536,l),
(507,540,l),
(508,545,l)
);
}
);
width = 572;
},
{
associatedMasterId = "32AF036A-4181-4CD3-84B0-594A9F44F1BB";
layerId = "363B994B-20DB-44AC-B0D5-E5538A4D4A46";
width = 600;
}
);
unicode = (198,230);
},
{
glyphname = B;
kernLeft = H;
kernRight = B;
lastChange = "2023-08-06 15:31:52 +0000";
layers = (
{
layerId = "32AF036A-4181-4CD3-84B0-594A9F44F1BB";
shapes = (
{
closed = 1;
nodes = (
(111,0,l),
(115,0,l),
(121,-1,l),
(126,1,l),
(131,0,l),
(135,0,l),
(141,2,l),
(145,2,l),
(151,3,l),
(156,3,l),
(161,5,l),
(165,6,l),
(171,6,l),
(175,7,l),
(181,9,l),
(186,9,l),
(191,10,l),
(195,12,l),
(199,13,l),
(205,16,l),
(210,17,l),
(214,18,l),
(219,21,l),
(224,22,l),
(228,24,l),
(232,26,l),
(236,28,l),
(242,31,l),
(246,34,l),
(251,35,l),
(255,38,l),
(258,40,l),
(262,43,l),
(267,46,l),
(271,50,l),
(276,52,l),
(279,55,l),
(283,59,l),
(286,62,l),
(290,65,l),
(294,68,l),
(298,71,l),
(302,75,l),
(305,78,l),
(308,82,l),
(311,87,l),
(314,89,l),
(318,94,l),
(320,98,l),
(324,103,l),
(325,107,l),
(331,114,l),
(333,120,l),
(335,123,l),
(337,128,l),
(339,133,l),
(341,138,l),
(343,142,l),
(346,146,l),
(347,152,l),
(348,157,l),
(349,160,l),
(350,165,l),
(352,170,l),
(353,176,l),
(353,180,l),
(354,185,l),
(353,191,l),
(354,195,l),
(355,200,l),
(354,210,l),
(354,215,l),
(355,220,l),
(354,227,l),
(353,231,l),
(352,237,l),
(351,241,l),
(351,246,l),
(350,251,l),
(348,256,l),
(348,262,l),
(345,266,l),
(344,271,l),
(342,275,l),
(341,281,l),
(338,284,l),
(337,289,l),
(333,294,l),
(331,298,l),
(328,302,l),
(325,306,l),
(323,310,l),
(320,314,l),
(317,318,l),
(313,322,l),
(309,326,l),
(306,329,l),
(302,332,l),
(298,334,l),
(295,338,l),
(291,341,l),
(286,344,l),
(281,345,l),
(277,347,l),
(272,350,l),
(269,352,l),
(263,353,l),
(260,356,l),
(255,357,l),
(250,359,l),
(246,359,l),
(241,361,l),
(236,363,l),
(231,364,l),
(226,363,l),
(220,364,l),
(212,365,l),
(206,366,l),
(201,366,l),
(206,370,l),
(209,371,l),
(213,375,l),
(219,377,l),
(223,380,l),
(226,383,l),
(231,386,l),
(235,389,l),
(237,393,l),
(242,397,l),
(245,401,l),
(247,405,l),
(251,409,l),
(254,413,l),
(256,416,l),
(259,421,l),
(261,426,l),
(261,431,l),
(264,435,l),
(264,441,l),
(266,446,l),
(266,450,l),
(267,456,l),
(267,461,l),
(267,471,l),
(267,475,l),
(266,480,l),
(267,485,l),
(265,491,l),
(265,495,l),
(264,500,l),
(263,504,l),
(261,509,l),
(259,513,l),
(257,518,l),
(256,524,l),
(253,528,l),
(251,531,l),
(248,536,l),
(245,540,l),
(241,544,l),
(239,547,l),
(234,551,l),
(230,554,l),
(227,557,l),
(224,561,l),
(219,563,l),
(215,565,l),
(209,568,l),
(205,569,l),
(200,571,l),
(196,574,l),
(192,575,l),
(187,576,l),
(182,577,l),
(176,579,l),
(171,580,l),
(166,580,l),
(161,580,l),
(156,580,l),
(151,582,l),
(147,582,l),
(137,582,l),
(132,581,l),
(126,581,l),
(122,580,l),
(117,580,l),
(112,581,l),
(107,580,l),
(102,579,l),
(97,578,l),
(93,577,l),
(84,576,l),
(79,573,l),
(76,569,l),
(74,565,l),
(75,555,l),
(74,550,l),
(75,546,l),
(74,541,l),
(75,536,l),
(74,531,l),
(75,525,l),
(75,521,l),
(74,506,l),
(74,500,l),
(73,496,l),
(73,490,l),
(74,486,l),
(74,480,l),
(74,476,l),
(74,470,l),
(73,466,l),
(74,460,l),
(73,456,l),
(74,451,l),
(74,445,l),
(74,441,l),
(74,435,l),
(73,430,l),
(74,425,l),
(74,420,l),
(74,416,l),
(73,411,l),
(73,406,l),
(73,401,l),
(72,395,l),
(73,391,l),
(72,386,l),
(73,380,l),
(72,375,l),
(72,370,l),
(73,366,l),
(73,360,l),
(73,356,l),
(73,351,l),
(73,345,l),
(73,341,l),
(73,336,l),
(72,330,l),
(73,326,l),
(73,321,l),
(72,316,l),
(72,310,l),
(72,306,l),
(72,300,l),
(72,295,l),
(72,291,l),
(72,286,l),
(72,281,l),
(72,275,l),
(71,270,l),
(71,266,l),
(72,260,l),
(71,256,l),
(71,251,l),
(72,246,l),
(72,241,l),
(71,236,l),
(72,230,l),
(72,226,l),
(72,221,l),
(71,216,l),
(71,211,l),
(72,206,l),
(71,199,l),
(71,189,l),
(72,184,l),
(71,179,l),
(72,174,l),
(71,169,l),
(70,164,l),
(71,159,l),
(70,154,l),
(71,150,l),
(70,144,l),
(70,139,l),
(71,134,l),
(71,124,l),
(70,120,l),
(70,115,l),
(70,109,l),
(71,104,l),
(70,99,l),
(71,95,l),
(71,90,l),
(70,84,l),
(71,79,l),
(71,74,l),
(71,70,l),
(70,65,l),
(71,59,l),
(70,54,l),
(69,49,l),
(69,45,l),
(69,40,l),
(69,34,l),
(70,30,l),
(69,25,l),
(70,20,l),
(70,9,l),
(71,5,l),
(76,1,l),
(79,0,l),
(89,0,l),
(96,0,l),
(100,-1,l)
);
},
{
closed = 1;
nodes = (
(122,57,l),
(121,62,l),
(121,67,l),
(121,71,l),
(121,76,l),
(121,82,l),
(122,86,l),
(121,92,l),
(122,96,l),
(123,101,l),
(123,106,l),
(122,112,l),
(122,117,l),
(123,122,l),
(122,127,l),
(123,132,l),
(123,136,l),
(122,142,l),
(123,147,l),
(123,157,l),
(122,162,l),
(123,166,l),
(122,172,l),
(122,182,l),
(123,186,l),
(124,191,l),
(124,196,l),
(123,202,l),
(124,207,l),
(123,211,l),
(124,217,l),
(124,221,l),
(123,226,l),
(124,232,l),
(124,237,l),
(123,242,l),
(124,246,l),
(123,251,l),
(123,256,l),
(124,261,l),
(124,266,l),
(123,271,l),
(124,286,l),
(124,292,l),
(125,296,l),
(124,302,l),
(124,307,l),
(125,311,l),
(125,320,l),
(126,325,l),
(134,324,l),
(139,324,l),
(144,324,l),
(149,326,l),
(155,325,l),
(161,327,l),
(166,327,l),
(176,327,l),
(180,327,l),
(185,326,l),
(191,325,l),
(196,324,l),
(200,324,l),
(205,324,l),
(211,323,l),
(216,322,l),
(220,319,l),
(226,318,l),
(229,317,l),
(235,314,l),
(239,313,l),
(244,311,l),
(247,308,l),
(252,305,l),
(256,302,l),
(260,300,l),
(265,297,l),
(269,294,l),
(272,290,l),
(275,286,l),
(278,283,l),
(281,279,l),
(285,275,l),
(288,270,l),
(290,266,l),
(291,261,l),
(293,257,l),
(295,251,l),
(296,246,l),
(299,241,l),
(299,237,l),
(301,232,l),
(301,227,l),
(301,222,l),
(302,216,l),
(303,212,l),
(302,202,l),
(302,197,l),
(302,192,l),
(302,186,l),
(300,182,l),
(300,177,l),
(298,173,l),
(297,167,l),
(296,162,l),
(293,159,l),
(292,153,l),
(290,150,l),
(288,145,l),
(285,141,l),
(282,136,l),
(280,131,l),
(278,127,l),
(275,123,l),
(271,119,l),
(268,116,l),
(265,113,l),
(262,108,l),
(257,105,l),
(254,103,l),
(250,99,l),
(246,96,l),
(243,93,l),
(238,89,l),
(235,87,l),
(231,85,l),
(226,81,l),
(222,79,l),
(217,76,l),
(212,74,l),
(209,72,l),
(204,70,l),
(200,68,l),
(194,67,l),
(189,66,l),
(185,63,l),
(180,62,l),
(176,61,l),
(170,60,l),
(166,59,l),
(162,56,l),
(156,55,l),
(151,55,l),
(147,55,l),
(141,54,l),
(137,53,l),
(128,53,l),
(121,51,l)
);
},
{
closed = 1;
nodes = (
(124,379,l),
(125,384,l),
(125,390,l),
(124,395,l),
(125,415,l),
(126,420,l),
(125,424,l),
(125,430,l),
(126,434,l),
(125,439,l),
(126,444,l),
(126,450,l),
(125,456,l),
(126,461,l),
(125,465,l),
(125,470,l),
(126,476,l),
(125,481,l),
(125,485,l),
(125,490,l),
(126,496,l),
(127,500,l),
(127,510,l),
(126,516,l),
(126,523,l),
(127,531,l),
(132,531,l),
(137,531,l),
(142,532,l),
(146,532,l),
(151,532,l),
(156,530,l),
(161,529,l),
(166,529,l),
(172,527,l),
(177,526,l),
(180,525,l),
(190,520,l),
(194,517,l),
(198,514,l),
(200,510,l),
(204,506,l),
(206,502,l),
(209,498,l),
(211,494,l),
(213,489,l),
(214,485,l),
(214,479,l),
(216,475,l),
(215,469,l),
(215,460,l),
(215,454,l),
(214,450,l),
(213,445,l),
(212,439,l),
(209,435,l),
(207,431,l),
(205,426,l),
(203,422,l),
(199,418,l),
(197,415,l),
(194,410,l),
(189,407,l),
(186,404,l),
(183,401,l),
(178,398,l),
(174,395,l),
(170,392,l),
(165,390,l),
(161,387,l),
(157,385,l),
(152,383,l),
(147,381,l),
(142,380,l),
(133,376,l),
(125,374,l)
);
}
);
width = 385;
},
{
associatedMasterId = "32AF036A-4181-4CD3-84B0-594A9F44F1BB";
layerId = "363B994B-20DB-44AC-B0D5-E5538A4D4A46";
width = 600;
}
);
unicode = (66,98);
},
{
glyphname = C;
kernLeft = O;
kernRight = C;
lastChange = "2023-08-05 19:35:05 +0000";
layers = (
{
layerId = "32AF036A-4181-4CD3-84B0-594A9F44F1BB";
shapes = (
{
closed = 1;
nodes = (
(336,-17,l),
(341,-17,l),
(345,-18,l),
(356,-17,l),
(360,-17,l),
(366,-16,l),
(371,-15,l),
(375,-14,l),
(381,-14,l),
(386,-13,l),
(390,-12,l),
(396,-12,l),
(400,-10,l),
(405,-8,l),
(411,-7,l),
(414,-7,l),
(420,-5,l),
(424,-2,l),
(430,-1,l),
(433,1,l),
(439,3,l),
(443,5,l),
(447,6,l),
(451,9,l),
(456,12,l),
(464,16,l),
(470,19,l),
(474,22,l),
(482,26,l),
(485,29,l),
(489,32,l),
(494,36,l),
(498,39,l),
(501,43,l),
(505,45,l),
(509,48,l),
(516,55,l),
(518,59,l),
(518,65,l),
(517,69,l),
(510,76,l),
(505,80,l),
(501,84,l),
(495,92,l),
(489,94,l),
(485,94,l),
(480,92,l),
(472,86,l),
(468,83,l),
(464,79,l),
(462,76,l),
(458,74,l),
(452,71,l),
(449,68,l),
(444,65,l),
(441,63,l),
(437,60,l),
(432,58,l),
(427,54,l),
(423,52,l),
(418,51,l),
(414,48,l),
(409,46,l),
(405,45,l),
(400,43,l),
(395,42,l),
(390,41,l),
(386,40,l),
(380,38,l),
(375,37,l),
(371,38,l),
(366,37,l),
(361,36,l),
(355,36,l),
(351,36,l),
(346,35,l),
(340,35,l),
(336,34,l),
(326,35,l),
(320,34,l),
(316,35,l),
(310,36,l),
(305,36,l),
(300,36,l),
(296,37,l),
(285,38,l),
(280,39,l),
(275,39,l),
(270,41,l),
(266,41,l),
(261,42,l),
(256,43,l),
(250,45,l),
(246,47,l),
(240,48,l),
(236,49,l),
(231,51,l),
(227,53,l),
(223,55,l),
(218,58,l),
(213,59,l),
(208,62,l),
(205,64,l),
(199,66,l),
(196,69,l),
(191,71,l),
(187,75,l),
(183,77,l),
(179,80,l),
(175,84,l),
(171,87,l),
(168,90,l),
(164,92,l),
(160,97,l),
(156,100,l),
(152,103,l),
(150,107,l),
(142,115,l),
(139,119,l),
(137,122,l),
(134,127,l),
(132,132,l),
(128,135,l),
(127,140,l),
(124,144,l),
(121,148,l),
(120,153,l),
(117,158,l),
(116,163,l),
(113,168,l),
(113,172,l),
(111,176,l),
(110,182,l),
(108,186,l),
(106,192,l),
(105,196,l),
(105,201,l),
(105,206,l),
(103,212,l),
(103,216,l),
(103,221,l),
(101,227,l),
(101,232,l),
(101,237,l),
(101,246,l),
(101,252,l),
(102,257,l),
(103,261,l),
(102,267,l),
(102,271,l),
(103,277,l),
(105,281,l),
(105,286,l),
(105,292,l),
(107,296,l),
(108,301,l),
(109,305,l),
(109,311,l),
(111,315,l),
(111,321,l),
(112,325,l),
(114,330,l),
(116,335,l),
(118,340,l),
(119,344,l),
(120,349,l),
(122,354,l),
(124,358,l),
(126,363,l),
(128.01,367.991,l),
(130,373,l),
(131,376,l),
(134,381,l),
(135,385,l),
(138,390,l),
(141,394,l),
(143,399,l),
(146,403,l),
(147,407,l),
(150,412,l),
(153,415,l),
(156,421,l),
(159,424,l),
(162,428,l),
(164,433,l),
(168,437,l),
(170,441,l),
(174,444,l),
(178,448,l),
(183,455,l),
(188,459,l),
(191,462,l),
(195,466,l),
(198,470,l),
(202,473,l),
(206,476,l),
(210,479,l),
(212,482,l),
(217,485,l),
(221,488,l),
(225,492,l),
(228,495,l),
(232,498,l),
(237,501,l),
(242,502,l),
(246,505,l),
(250,508,l),
(255,511,l),
(258,512,l),
(263,516,l),
(268,517,l),
(273,519,l),
(276,522,l),
(282,524,l),
(286,525,l),
(290,527,l),
(295,528,l),
(300,530,l),
(306,532,l),
(310,533,l),
(315,535,l),
(320,536,l),
(324,536,l),
(329,537,l),
(334,538,l),
(340,540,l),
(344,540,l),
(349,542,l),
(355,542,l),
(359,543,l),
(365,542,l),
(370,544,l),
(379,544,l),
(384,543,l),
(389,543,l),
(394,543,l),
(400,544,l),
(405,544,l),
(410,544,l),
(415,543,l),
(419,541,l),
(424,541,l),
(428,541,l),
(434,539,l),
(438,539,l),
(444,538,l),
(448,536,l),
(453,534,l),
(457,534,l),
(462,531,l),
(467,530,l),
(471,527,l),
(475,526,l),
(480,523,l),
(484,522,l),
(489,518,l),
(493,516,l),
(497,513,l),
(502,511,l),
(509,506,l),
(513,503,l),
(519,504,l),
(522,505,l),
(531,513,l),
(535,518,l),
(539,521,l),
(544,530,l),
(546,534,l),
(547,538,l),
(545,544,l),
(536,549,l),
(533,552,l),
(529,556,l),
(524,558,l),
(520,562,l),
(516,564,l),
(512,567,l),
(508,569,l),
(503,570,l),
(498,573,l),
(493,576,l),
(489,577,l),
(484,578,l),
(480,581,l),
(476,582,l),
(471,584,l),
(466,585,l),
(461,586,l),
(456,589,l),
(451,589,l),
(446,590,l),
(442,592,l),
(437,593,l),
(432,592,l),
(427,594,l),
(421,595,l),
(416,594,l),
(411,595,l),
(407,596,l),
(401,595,l),
(396,596,l),
(392,597,l),
(387,596,l),
(382,596,l),
(377,596,l),
(366,595,l),
(361,595,l),
(357,595,l),
(351,593,l),
(346,593,l),
(342,592,l),
(337,592,l),
(332,592,l),
(326,590,l),
(322,589,l),
(316,589,l),
(312,588,l),
(306,586,l),
(303,585,l),
(297,583,l),
(292,582,l),
(287,580,l),
(283,579,l),
(278,577,l),
(273,575,l),
(268,574,l),
(264,573,l),
(260,571,l),
(255,569,l),
(251,566,l),
(246,565,l),
(242,562,l),
(236,561,l),
(233,558,l),
(227,556,l),
(223,552,l),
(220,550,l),
(216,547,l),
(210,546,l),
(206,543,l),
(203,539,l),
(199,537,l),
(194,533,l),
(191,531,l),
(186,527,l),
(183,525,l),
(178,521,l),
(174,518,l),
(171,516,l),
(167,512,l),
(163,508,l),
(160,506,l),
(156,501,l),
(153,499,l),
(150,494,l),
(146,490,l),
(142,488,l),
(139,483,l),
(137,480,l),
(133,476,l),
(130,472,l),
(127,469,l),
(123,465,l),
(120,461,l),
(117,456,l),
(115,452,l),
(112,447,l),
(110,443,l),
(106,439,l),
(105,435,l),
(101,432,l),
(99,427,l),
(96,422,l),
(95,418,l),
(93,414,l),
(90,410,l),
(88,404,l),
(85,400,l),
(84,395,l),
(82,392,l),
(79,386,l),
(78,382,l),
(75,377,l),
(74,372,l),
(73,368,l),
(70,364,l),
(68,359,l),
(67,354,l),
(66,349,l),
(64,345,l),
(63,339,l),
(61,334,l),
(60,330,l),
(59,325,l),
(59,320,l),
(58,316,l),
(56,311,l),
(55,305,l),
(55,301,l),
(53,295,l),
(53,292,l),
(52,287,l),
(51,281,l),
(51,277,l),
(50,271,l),
(50,267,l),
(50,261,l),
(49,257,l),
(50,251,l),
(50,246,l),
(49,236,l),
(50,231,l),
(50,227,l),
(50,222,l),
(50,217,l),
(52,211,l),
(51,207,l),
(53,201,l),
(52,197,l),
(54,191,l),
(54,186,l),
(55,182,l),
(56,177,l),
(59,173,l),
(59,167,l),
(61,163,l),
(63,159,l),
(64,153,l),
(65,148,l),
(68,144,l),
(70,140,l),
(72,135,l),
(73,130,l),
(76,125,l),
(77,121,l),
(80,116,l),
(82,113,l),
(84,109,l),
(88,104,l),
(90,100,l),
(92,95,l),
(95,92,l),
(99,87,l),
(101,84,l),
(104,81,l),
(107,77,l),
(111,73,l),
(114,69,l),
(117,66,l),
(122,61,l),
(125,58,l),
(128,54,l),
(133,51,l),
(136,48,l),
(139,46,l),
(143,43,l),
(148,39,l),
(151,36,l),
(155,33,l),
(159,30,l),
(164,27,l),
(169,25,l),
(172,23,l),
(177,20,l),
(181,18,l),
(185,15,l),
(191,13,l),
(194,12,l),
(199,10,l),
(204,8,l),
(208,6,l),
(212,3,l),
(217,1,l),
(222,-1,l),
(228,-2,l),
(232,-3,l),
(237,-5,l),
(242,-5,l),
(246,-7,l),
(252,-9,l),
(255,-9,l),
(260,-10,l),
(266,-12,l),
(270,-12,l),
(276,-14,l),
(280,-15,l),
(286,-15,l),
(290,-15,l),
(296,-16,l),
(300,-17,l),
(306,-16,l),
(311,-17,l),
(316,-18,l),
(321,-17,l),
(326,-18,l)
);
}
);
width = 583;
},
{
associatedMasterId = "32AF036A-4181-4CD3-84B0-594A9F44F1BB";
layerId = "363B994B-20DB-44AC-B0D5-E5538A4D4A46";
width = 600;
}
);
unicode = (67,99);
},
{
glyphname = Ccedilla;
kernLeft = O;
lastChange = "2023-08-05 19:35:05 +0000";
layers = (
{
layerId = "32AF036A-4181-4CD3-84B0-594A9F44F1BB";
shapes = (
{
ref = C;
},
{
closed = 1;
nodes = (
(325,-197,l),
(331,-198,l),
(336,-197,l),
(341,-195,l),
(346,-195,l),
(351,-194,l),
(355,-192,l),
(360,-191,l),
(364,-188,l),
(370,-187,l),
(374,-185,l),
(379,-182,l),
(382,-178,l),
(387,-175,l),
(390,-173,l),
(394,-170,l),
(397,-166,l),
(401,-162,l),
(403,-159,l),
(406,-154,l),
(408,-150,l),
(412,-145,l),
(414,-141,l),
(416,-136,l),
(417,-132,l),
(417,-126,l),
(418,-122,l),
(420,-118,l),
(419,-108,l),
(419,-102,l),
(419,-98,l),
(418,-92,l),
(416,-89,l),
(414,-84,l),
(410,-74,l),
(407,-70,l),
(404,-66,l),
(402,-62,l),
(398,-59,l),
(393,-56,l),
(389,-54,l),
(385,-50,l),
(381,-48,l),
(375,-47,l),
(371,-45,l),
(367,-44,l),
(361,-42,l),
(356,-43,l),
(351,-42,l),
(346,-41,l),
(343,-35,l),
(344,-31,l),
(344,-26,l),
(346,-21,l),
(346,-11,l),
(345,-7,l),
(343,-3,l),
(338,-2,l),
(328,0,l),
(320,-1,l),
(314,-3,l),
(312,-6,l),
(309,-8,l),
(305,-18,l),
(304,-22,l),
(304,-27,l),
(301,-32,l),
(301,-38,l),
(299,-43,l),
(297,-47,l),
(297,-52,l),
(294,-62,l),
(296,-66,l),
(299,-70,l),
(303,-73,l),
(313,-73,l),
(317,-73,l),
(322,-74,l),
(327,-75,l),
(333,-77,l),
(338,-78,l),
(342,-79,l),
(347,-81,l),
(351,-83,l),
(356,-87,l),
(359,-90,l),
(361,-93,l),
(364,-98,l),
(367,-102,l),
(368,-108,l),
(367,-117,l),
(366,-121,l),
(363,-126,l),
(361,-131,l),
(356,-134,l),
(354,-136,l),
(348,-139,l),
(345,-142,l),
(339,-142,l),
(336,-144,l),
(331,-144,l),
(326,-145,l),
(315,-145,l),
(312,-144,l),
(307,-144,l),
(299,-143,l),
(293,-141,l),
(289,-143,l),
(285,-145,l),
(279,-153,l),
(277,-155,l),
(273,-159,l),
(270,-162,l),
(265,-171,l),
(263,-175,l),
(264,-180,l),
(266,-185,l),
(275,-190,l),
(279,-192,l),
(284,-192,l),
(290,-194,l),
(299,-196,l),
(310,-197,l),
(316,-197,l)
);
}
);
width = 583;
},
{
associatedMasterId = "32AF036A-4181-4CD3-84B0-594A9F44F1BB";
layerId = "363B994B-20DB-44AC-B0D5-E5538A4D4A46";
width = 600;
}
);
unicode = (199,231);
},
{
glyphname = D;
kernLeft = H;
kernRight = O;
lastChange = "2023-08-05 19:35:05 +0000";
layers = (
{
layerId = "32AF036A-4181-4CD3-84B0-594A9F44F1BB";
shapes = (
{
closed = 1;
nodes = (
(215,-2,l),
(220,-2,l),
(224,-3,l),
(229,-3,l),
(235,-2,l),
(240,-1,l),
(244,-2,l),
(255,-2,l),
(261,0,l),
(266,-1,l),
(270,0,l),
(275,1,l),
(281,1,l),
(285,1,l),
(290,3,l),
(295,3,l),
(301,3,l),
(306,5,l),
(311,6,l),
(315,5,l),
(320,6,l),
(330,8,l),
(335,10,l),
(341,10,l),
(345,12,l),
(349,12,l),
(354,15,l),
(359,16,l),
(365,16,l),
(369,19,l),
(375,20,l),
(379,22,l),
(383,23,l),
(388,25,l),
(394,25,l),
(399,27,l),
(403,29,l),
(407,31,l),
(413,32,l),
(417,35,l),
(422,37,l),
(426,38,l),
(430,40,l),
(436,43,l),
(439,46,l),
(444,47,l),
(449,50,l),
(453,53,l),
(457,55,l),
(461,57,l),
(466,60,l),
(469,62,l),
(473,65,l),
(478,69,l),
(482,72,l),
(487,74,l),
(491,77,l),
(494,81,l),
(497,84,l),
(502,87,l),
(505,90,l),
(510,94,l),
(512,96,l),
(517,101,l),
(520,104,l),
(524,107,l),
(527,111,l),
(530,115,l),
(534,119,l),
(537,122,l),
(539,126,l),
(542,131,l),
(545,134,l),
(549,139,l),
(552,142,l),
(553,147,l),
(557,151,l),
(559,155,l),
(562,159,l),
(564,163,l),
(567,168,l),
(568,173,l),
(571,178,l),
(572,181,l),
(574,187,l),
(576,192,l),
(579,195,l),
(580,200,l),
(581,206,l),
(584,211,l),
(584,215,l),
(587,220,l),
(587,224,l),
(589,230,l),
(590,234,l),
(592,240,l),
(592,245,l),
(593,250,l),
(595,255,l),
(594,260,l),
(595,264,l),
(596,269,l),
(597,275,l),
(597,280,l),
(598,285,l),
(599,289,l),
(598,294,l),
(599,299,l),
(599,305,l),
(600,309,l),
(599,314,l),
(600,324,l),
(600,329,l),
(599,334,l),
(599,339,l),
(598,345,l),
(597,349,l),
(598,355,l),
(597,360,l),
(597,364,l),
(595,369,l),
(594,374,l),
(593,379,l),
(592,384,l),
(590,389,l),
(589,393,l),
(589,399,l),
(586,404,l),
(585,407,l),
(584,412,l),
(581,418,l),
(579,422,l),
(577,427,l),
(574,431,l),
(573,436,l),
(571,440,l),
(568,443,l),
(565,448,l),
(562,452,l),
(560,456,l),
(556,461,l),
(553,465,l),
(551,469,l),
(547,471,l),
(545,475,l),
(542,479,l),
(538,483,l),
(535,487,l),
(530,490,l),
(527,494,l),
(524,496,l),
(515,503,l),
(511,506,l),
(508,509,l),
(504,512,l),
(500,514,l),
(496,517,l),
(492,521,l),
(487,522,l),
(483,526,l),
(478,528,l),
(474,531,l),
(469,533,l),
(466,535,l),
(460,536,l),
(456,539,l),
(451,540,l),
(447,542,l),
(443,544,l),
(437,547,l),
(434,549,l),
(429,550,l),
(424,551,l),
(419,554,l),
(414,556,l),
(410,557,l),
(404,559,l),
(399,560,l),
(395,561,l),
(390,563,l),
(386,563,l),
(380,564,l),
(376,566,l),
(370,566,l),
(366,568,l),
(362,569,l),
(352,570,l),
(346,572,l),
(341,573,l),
(331,575,l),
(326,574,l),
(321,576,l),
(316,576,l),
(311,577,l),
(307,577,l),
(297,578,l),
(286,579,l),
(282,579,l),
(276,579,l),
(271,581,l),
(267,580,l),
(261,581,l),
(257,580,l),
(242,581,l),
(237,582,l),
(231,581,l),
(222,582,l),
(216,582,l),
(212,581,l),
(201,581,l),
(196,581,l),
(191,580,l),
(186,581,l),
(182,580,l),
(177,579,l),
(171,580,l),
(166,579,l),
(161,579,l),
(157,579,l),
(151,579,l),
(147,577,l),
(141,578,l),
(137,576,l),
(132,576,l),
(126,575,l),
(118,574,l),
(114,573,l),
(110,569,l),
(109,565,l),
(108,554,l),
(106,550,l),
(107,544,l),
(107,540,l),
(105,534,l),
(105,529,l),
(106,525,l),
(104,519,l),
(104,515,l),
(104,509,l),
(103,504,l),
(103,500,l),
(103,495,l),
(102,489,l),
(102,485,l),
(102,480,l),
(102,474,l),
(101,470,l),
(100,465,l),
(100,459,l),
(100,455,l),
(100,450,l),
(99,445,l),
(100,440,l),
(99,425,l),
(97,420,l),
(97,414,l),
(96,404,l),
(97,400,l),
(96,395,l),
(95,389,l),
(95,385,l),
(96,379,l),
(94,374,l),
(94,369,l),
(95,365,l),
(94,359,l),
(94,349,l),
(93,345,l),
(92,340,l),
(91,334,l),
(92,329,l),
(91,324,l),
(91,319,l),
(91,314,l),
(90,309,l),
(90,305,l),
(89,300,l),
(90,294,l),
(89,290,l),
(88,285,l),
(89,280,l),
(88,270,l),
(87,265,l),
(86,259,l),
(87,254,l),
(86,250,l),
(85,244,l),
(86,239,l),
(85,234,l),
(84,230,l),
(85,224,l),
(83,220,l),
(84,215,l),
(83,210,l),
(82,205,l),
(82,199,l),
(82,195,l),
(82,190,l),
(82,185,l),
(82,179,l),
(81,174,l),
(80,169,l),
(80,165,l),
(79,159,l),
(80,154,l),
(80,150,l),
(78,145,l),
(78,140,l),
(78,134,l),
(77,130,l),
(78,124,l),
(78,119,l),
(76,114,l),
(77,110,l),
(77,104,l),
(76,100,l),
(75,95,l),
(75,89,l),
(75,85,l),
(74,79,l),
(74,75,l),
(74,70,l),
(73,65,l),
(73,60,l),
(73,55,l),
(72,50,l),
(71,45,l),
(72,39,l),
(71,29,l),
(70,19,l),
(73,16,l),
(74,11,l),
(79,10,l),
(89,7,l),
(94,6,l),
(99,6,l),
(103,4,l),
(108,5,l),
(114,3,l),
(118,3,l),
(124,2,l),
(128,1,l),
(133,2,l),
(138,1,l),
(144,0,l),
(148,0,l),
(154,-1,l),
(159,0,l),
(165,-1,l),
(170,-2,l),
(175,-2,l),
(180,-1,l),
(184,-3,l),
(189,-2,l),
(199,-2,l),
(205,-3,l)
);
},
{
closed = 1;
nodes = (
(205,49,l),
(200,50,l),
(184,51,l),
(180,51,l),
(174,50,l),
(168,51,l),
(164,51,l),
(148,52,l),
(144,52,l),
(135,53,l),
(129,54,l),
(124,59,l),
(126,64,l),
(126,70,l),
(126,75,l),
(126,80,l),
(126,84,l),
(127,90,l),
(128,94,l),
(128,104,l),
(128,110,l),
(128,114,l),
(128,120,l),
(129,125,l),
(129,129,l),
(129,134,l),
(130,140,l),
(130,145,l),
(130,149,l),
(131,154,l),
(132,160,l),
(131,164,l),
(132,170,l),
(133,174,l),
(132,178,l),
(134,183,l),
(134,188,l),
(133,194,l),
(135,198,l),
(135,204,l),
(135,209,l),
(135,214,l),
(135,218,l),
(136,224,l),
(136,229,l),
(137,234,l),
(136,238,l),
(137,243,l),
(138,249,l),
(139,259,l),
(138,263,l),
(139,268,l),
(139,273,l),
(140,279,l),
(139,283,l),
(140,288,l),
(141,293,l),
(141,298,l),
(142,304,l),
(141,309,l),
(142,313,l),
(143,318,l),
(144,328,l),
(143,333,l),
(144,338,l),
(145,343,l),
(144,349,l),
(145,354,l),
(145,359,l),
(146,363,l),
(146,369,l),
(146,374,l),
(147,378,l),
(146,384,l),
(148,389,l),
(147,393,l),
(148,399,l),
(148,404,l),
(149,408,l),
(149,413,l),
(149,417,l),
(150,423,l),
(150,427,l),
(150,433,l),
(151,437,l),
(152,447,l),
(151,452,l),
(151,457,l),
(152,463,l),
(153,467,l),
(153,473,l),
(154,478,l),
(153,482,l),
(153,488,l),
(155,492,l),
(154,498,l),
(155,503,l),
(156,507,l),
(156,513,l),
(155,517,l),
(157,523,l),
(161,528,l),
(167,528,l),
(171,529,l),
(177,529,l),
(182,528,l),
(186,528,l),
(202,529,l),
(213,529,l),
(218,530,l),
(227,529,l),
(232,529,l),
(238,530,l),
(243,530,l),
(248,529,l),
(252,529,l),
(267,529,l),
(272,527,l),
(278,528,l),
(282,528,l),
(288,526,l),
(293,527,l),
(298,526,l),
(303,525,l),
(309,524,l),
(313,524,l),
(319,524,l),
(323,523,l),
(328,522,l),
(334,521,l),
(338,520,l),
(343,520,l),
(348,519,l),
(353,517,l),
(357,517,l),
(362,515,l),
(367,515,l),
(373,513,l),
(377,513,l),
(383,511,l),
(388,510,l),
(391,508,l),
(397,506,l),
(402,506,l),
(406,503,l),
(412,501,l),
(415,500,l),
(421,499,l),
(425,497,l),
(429,494,l),
(434,492,l),
(438,490,l),
(444,489,l),
(448,485,l),
(452,483,l),
(456,481,l),
(461,478,l),
(464,475,l),
(470,473,l),
(474,470,l),
(478,467,l),
(482,463,l),
(486,461,l),
(489,458,l),
(492,455,l),
(497,450,l),
(500,447,l),
(504,444,l),
(507,439,l),
(510,435,l),
(512,433,l),
(516,429,l),
(519,424,l),
(521,419,l),
(523,416,l),
(526,411,l),
(528,407,l),
(530,403,l),
(532,398,l),
(534,392,l),
(537,389,l),
(538,383,l),
(540,378,l),
(541,374,l),
(541,368,l),
(544,363,l),
(545,358,l),
(545,354,l),
(545,349,l),
(547,343,l),
(547,339,l),
(547,334,l),
(548,328,l),
(547,324,l),
(547,313,l),
(547,309,l),
(548,304,l),
(547,299,l),
(547,294,l),
(546,289,l),
(546,283,l),
(546,278,l),
(545,272,l),
(543,268,l),
(543,263,l),
(542,258,l),
(542,252,l),
(540,248,l),
(539,243,l),
(538,239,l),
(536,234,l),
(534,229,l),
(533,224,l),
(531,220,l),
(530,214,l),
(528,209,l),
(527,206,l),
(525,201,l),
(522,196,l),
(519,191,l),
(517,187,l),
(516,183,l),
(513,179,l),
(511,174,l),
(508,170,l),
(505,166,l),
(501,162,l),
(498,158,l),
(495,154,l),
(492,151,l),
(490,147,l),
(486,143,l),
(482,139,l),
(478,135,l),
(476,132,l),
(471,129,l),
(468,126,l),
(465,122,l),
(460,119,l),
(456,117,l),
(453,114,l),
(448,110,l),
(444,108,l),
(441,104,l),
(435,103,l),
(432,100,l),
(427,97,l),
(422,95,l),
(418,92,l),
(415,91,l),
(410,87,l),
(405,85,l),
(401,83,l),
(395,81,l),
(391,79,l),
(387,78,l),
(382,76,l),
(377,75,l),
(373,74,l),
(368,72,l),
(362,71,l),
(358,69,l),
(354,68,l),
(348,65,l),
(344,65,l),
(339,63,l),
(334,62,l),
(329,62,l),
(324,60,l),
(320,60,l),
(314,58,l),
(310,58,l),
(304,57,l),
(299,56,l),
(294,55,l),
(289,54,l),
(285,54,l),
(280,53,l),
(274,53,l),
(269,53,l),
(265,51,l),
(254,51,l),
(250,51,l),
(245,50,l),
(239,51,l),
(235,50,l),
(230,50,l),
(224,50,l),
(220,49,l),
(215,50,l)
);
}
);
width = 650;
},
{
associatedMasterId = "32AF036A-4181-4CD3-84B0-594A9F44F1BB";
layerId = "363B994B-20DB-44AC-B0D5-E5538A4D4A46";
width = 600;
}
);
unicode = (68,100);
},
{
glyphname = Eth;
kernLeft = H;
kernRight = O;
lastChange = "2023-08-05 19:35:05 +0000";
layers = (
{
layerId = "32AF036A-4181-4CD3-84B0-594A9F44F1BB";
shapes = (
{
ref = D;
},
{
closed = 1;
nodes = (
(25,260,l),
(36,260,l),
(41,261,l),
(45,260,l),
(60,261,l),
(66,262,l),
(71,262,l),
(76,261,l),
(80,261,l),
(91,262,l),
(95,263,l),
(100,262,l),
(106,262,l),
(110,262,l),
(116,263,l),
(120,264,l),
(136,264,l),
(141,263,l),
(147,265,l),
(152,264,l),
(157,265,l),
(161,264,l),
(167,265,l),
(176,266,l),
(181,265,l),
(196,265,l),
(202,266,l),
(206,266,l),
(211,267,l),
(216,266,l),
(221,267,l),
(227,267,l),
(232,266,l),
(242,268,l),
(246,269,l),
(248,273,l),
(250,278,l),
(251,287,l),
(251,293,l),
(250,299,l),
(250,309,l),
(247,312,l),
(243,315,l),
(240,317,l),
(230,318,l),
(225,318,l),
(219,317,l),
(215,318,l),
(210,317,l),
(194,316,l),
(190,317,l),
(184,316,l),
(180,317,l),
(174,316,l),
(165,315,l),
(159,315,l),
(154,316,l),
(145,316,l),
(139,314,l),
(134,315,l),
(129,314,l),
(125,314,l),
(119,315,l),
(114,314,l),
(108,314,l),
(103,314,l),
(98,313,l),
(93,313,l),
(88,314,l),
(83,313,l),
(79,313,l),
(73,312,l),
(68,313,l),
(64,312,l),
(59,313,l),
(54,313,l),
(49,311,l),
(44,312,l),
(39,311,l),
(34,312,l),
(28,311,l),
(24,311,l),
(13,311,l),
(10,309,l),
(6,305,l),
(5,301,l),
(4,291,l),
(5,285,l),
(4,279,l),
(6,270,l),
(8,266,l),
(11,262,l),
(16,260,l)
);
}
);
width = 650;
},
{
associatedMasterId = "32AF036A-4181-4CD3-84B0-594A9F44F1BB";
layerId = "363B994B-20DB-44AC-B0D5-E5538A4D4A46";
width = 600;
}
);
unicode = (208,240);
},
{
glyphname = E;
kernLeft = H;
kernRight = E;
lastChange = "2023-08-05 19:35:05 +0000";
layers = (
{
layerId = "32AF036A-4181-4CD3-84B0-594A9F44F1BB";
shapes = (
{
closed = 1;
nodes = (
(123,21,l),
(122,26,l),
(122,30,l),
(124,36,l),
(124,41,l),
(123,45,l),
(123,50,l),
(125,55,l),
(125,70,l),
(125,75,l),
(126,81,l),
(126,85,l),
(126,91,l),
(126,96,l),
(126,100,l),
(126,105,l),
(127,111,l),
(127,115,l),
(127,120,l),
(127,126,l),
(128,131,l),
(129,135,l),
(129,144.993,l),
(128,151,l),
(129,155,l),
(130,160,l),
(129,165,l),
(130,170,l),
(130,176,l),
(130,181,l),
(130,186,l),
(130,190,l),
(131,196,l),
(131,201,l),
(131,206,l),
(132,211,l),
(131,215,l),
(133,221,l),
(133,225,l),
(132,230,l),
(132,236,l),
(133,240,l),
(133,245,l),
(133,251,l),
(134,255,l),
(135,261,l),
(134,266,l),
(135,271,l),
(134,275,l),
(136,280,l),
(136,285,l),
(136,291,l),
(135,296,l),
(135,301,l),
(137,306,l),
(137,311,l),
(136,315,l),
(137,320,l),
(137,326,l),
(137,331,l),
(138,336,l),
(138,341,l),
(138,345,l),
(139,351,l),
(138,355,l),
(139,360,l),
(139,366,l),
(140,370,l),
(139,375,l),
(139,381,l),
(141,386,l),
(140,391,l),
(141,396,l),
(140,401,l),
(141,405,l),
(142,411,l),
(142,415,l),
(142,421,l),
(142,425,l),
(142,431,l),
(142,435,l),
(143,440,l),
(143,445,l),
(143,451,l),
(143,455,l),
(143,461,l),
(143,465,l),
(145,471,l),
(145,481,l),
(145,485,l),
(145,490,l),
(145,496,l),
(146,500,l),
(146,505,l),
(147,511,l),
(146,515,l),
(147,521,l),
(147,525,l),
(147,531,l),
(147,535,l),
(148,540,l),
(147,545,l),
(148,551,l),
(149,556,l),
(148,560,l),
(149,570,l),
(146,575,l),
(143,579,l),
(140,581,l),
(129,581,l),
(124,582,l),
(118,581,l),
(107,580,l),
(102,579,l),
(99,576,l),
(97,572,l),
(97,561,l),
(97,557,l),
(97,551,l),
(95,547,l),
(95,542,l),
(95,536,l),
(95,531,l),
(95,526,l),
(95,522,l),
(95,516,l),
(94,511,l),
(94,507,l),
(94,497,l),
(93,491,l),
(92,486,l),
(92,482,l),
(93,477,l),
(93,472,l),
(92,468,l),
(92,463,l),
(92,457,l),
(92,452,l),
(90,448,l),
(91,443,l),
(91,437,l),
(91,427,l),
(89,422,l),
(90,417,l),
(89,413,l),
(89,408,l),
(88,402,l),
(89,398,l),
(88,392,l),
(88,388,l),
(87,383,l),
(88,378,l),
(87,373,l),
(87,368,l),
(86,362,l),
(87,357,l),
(86,352,l),
(86,347,l),
(86,342,l),
(86,338,l),
(86,333,l),
(85,327,l),
(85,323,l),
(85,318,l),
(84,312,l),
(85,307,l),
(84,302,l),
(84,298,l),
(83,292,l),
(84,287,l),
(83,282,l),
(82,277,l),
(83,273,l),
(83,267,l),
(82,252,l),
(81,248,l),
(82,242,l),
(80,238,l),
(80,233,l),
(81,228,l),
(80,223,l),
(80,217,l),
(80,212,l),
(79,208,l),
(79,203,l),
(79,198,l),
(78,192,l),
(79,188,l),
(78,183,l),
(78,177,l),
(78,167,l),
(77,163,l),
(76,157,l),
(77,154,l),
(77,149,l),
(76,143,l),
(77,139,l),
(75,134,l),
(75,129,l),
(75,123,l),
(74,113,l),
(75,109,l),
(75,104,l),
(75,98,l),
(74,93,l),
(73,89,l),
(74,83,l),
(74,78,l),
(72,73,l),
(73,68,l),
(73,63,l),
(72,59,l),
(71,53,l),
(71,48,l),
(71,44,l),
(72,39,l),
(71,33,l),
(70,28,l),
(71,24,l),
(70,13,l),
(73,9,l),
(76,5,l),
(80,3,l),
(90,3,l),
(96,2,l),
(101,1,l),
(112,2,l),
(116,4,l),
(119,6,l),
(122,10,l)
);
},
{
closed = 1;
nodes = (
(297,12,l),
(297,18,l),
(297,24,l),
(296,33,l),
(294,37,l),
(292,42,l),
(277,45,l),
(273,45,l),
(267,44,l),
(263,45,l),
(257,45,l),
(253,46,l),
(244,46,l),
(238,46,l),
(234,47,l),
(228,46,l),
(224,46,l),
(219,48,l),
(213,47,l),
(209,48,l),
(193,49,l),
(189,49,l),
(184,49,l),
(178,48,l),
(174,50,l),
(168,49,l),
(163,49,l),
(160,49,l),
(155,50,l),
(149,50,l),
(144,51,l),
(139,50,l),
(135,51,l),
(130,51,l),
(124,51,l),
(120,51,l),
(115,52,l),
(105,51,l),
(98,50,l),
(94,47,l),
(90,37,l),
(86,34,l),
(84,30,l),
(82,25,l),
(77,15,l),
(76,10,l),
(80,6,l),
(85,4,l),
(95,2,l),
(100,3,l),
(104,1,l),
(110,2,l),
(115,2,l),
(120,1,l),
(124,0,l),
(130,1,l),
(134,1,l),
(140,1,l),
(144,-1,l),
(150,0,l),
(154,0,l),
(160,-1,l),
(164,-2,l),
(170,-1,l),
(175,-2,l),
(180,-1,l),
(184,-3,l),
(195,-3,l),
(200,-3,l),
(205,-3,l),
(211,-3,l),
(216,-4,l),
(220,-3,l),
(226,-4,l),
(230,-4,l),
(235,-5,l),
(241,-5,l),
(245,-6,l),
(250,-5,l),
(261,-5,l),
(266,-7,l),
(271,-6,l),
(275,-6,l),
(286,-6,l),
(289,-5,l),
(293,-1,l),
(296,2,l)
);
},
{
closed = 1;
nodes = (
(139,284,l),
(144,285,l),
(154,285,l),
(157,284,l),
(182,285,l),
(188,286,l),
(193,285,l),
(196,286,l),
(202,285,l),
(207,285,l),
(216,286,l),
(220,289,l),
(225,293,l),
(225,297,l),
(226,306,l),
(227,311,l),
(225,317,l),
(225,328,l),
(224,332,l),
(219,335,l),
(216,337,l),
(205,336,l),
(200,336,l),
(196,337,l),
(190,336,l),
(187,336,l),
(181,337,l),
(177,336,l),
(171,335,l),
(167,336,l),
(161,335,l),
(157,336,l),
(147,336,l),
(142,335,l),
(138,336,l),
(127,335,l),
(124,332,l),
(119,328,l),
(119,324,l),
(118,314,l),
(118,310,l),
(119,303,l),
(119,294,l),
(120,289,l),
(124,287,l),
(128,285,l)
);
},
{
closed = 1;
nodes = (
(294,548,l),
(294,558,l),
(294,569,l),
(293,573,l),
(289,576,l),
(285,579,l),
(275,578,l),
(264,578,l),
(260,580,l),
(245,580,l),
(239,579,l),
(233,579,l),
(229,580,l),
(224,580,l),
(219,579,l),
(214,580,l),
(209,579,l),
(179,580,l),
(174,581,l),
(168,580,l),
(162,580,l),
(157,581,l),
(143,581,l),
(138,580,l),
(127,581,l),
(122,582,l),
(111,580,l),
(108,579,l),
(104,574,l),
(105,569,l),
(107,559,l),
(111,554,l),
(112,551,l),
(114,546,l),
(119,536,l),
(123,533,l),
(128,531,l),
(138,531,l),
(144,530,l),
(148,531,l),
(153,529,l),
(158,530,l),
(164,529,l),
(168,530,l),
(179,530,l),
(184,529,l),
(189,530,l),
(194,530,l),
(199,529,l),
(205,530,l),
(209,529,l),
(214,528,l),
(220,528,l),
(225,529,l),
(230,529,l),
(235,528,l),
(249,528,l),
(255,529,l),
(260,528,l),
(275,527,l),
(284,529,l),
(289,530,l),
(292,533,l),
(294,538,l)
);
}
);
width = 338;
},
{
associatedMasterId = "32AF036A-4181-4CD3-84B0-594A9F44F1BB";
layerId = "363B994B-20DB-44AC-B0D5-E5538A4D4A46";
width = 600;
}
);
unicode = (69,101);
},
{
glyphname = Eacute;
kernLeft = H;
kernRight = E;
lastChange = "2023-08-05 19:35:05 +0000";
layers = (
{
layerId = "32AF036A-4181-4CD3-84B0-594A9F44F1BB";
shapes = (
{
ref = E;
},
{
closed = 1;
nodes = (
(195,676,l),
(198,681,l),
(202,684,l),
(206,688,l),
(208,693,l),
(212,696,l),
(215,700,l),
(219,704,l),
(222,707,l),
(224,712,l),
(229,716,l),
(232,720,l),
(234,724,l),
(237,728,l),
(242,730,l),
(244,735,l),
(247,739,l),
(251,742,l),
(255,746,l),
(258,751,l),
(264,758,l),
(265,763,l),
(264,768,l),
(263,772,l),
(255,779,l),
(252,782,l),
(248,784,l),
(245,788,l),
(238,794,l),
(233,794,l),
(229,794,l),
(225,793,l),
(218,786,l),
(214,781,l),
(211,778,l),
(207,774,l),
(205,769,l),
(200,766,l),
(198,762,l),
(195,759,l),
(190,755,l),
(187,751,l),
(185,747,l),
(181,742,l),
(177,738,l),
(174,735,l),
(171,732,l),
(167,727,l),
(165,723,l),
(161,719,l),
(158,715,l),
(155,711,l),
(148,703,l),
(146,699,l),
(148,695,l),
(150,690,l),
(156,683,l),
(161,680,l),
(164,678,l),
(167,675,l),
(176,669,l),
(179,668,l),
(184,667,l),
(189,670,l)
);
}
);
width = 338;
},
{
associatedMasterId = "32AF036A-4181-4CD3-84B0-594A9F44F1BB";
layerId = "363B994B-20DB-44AC-B0D5-E5538A4D4A46";
width = 600;
}
);
unicode = (201,233);
},
{
glyphname = F;
kernLeft = H;
kernRight = F;
lastChange = "2023-08-05 19:35:05 +0000";
layers = (
{
layerId = "32AF036A-4181-4CD3-84B0-594A9F44F1BB";
shapes = (
{
closed = 1;
nodes = (
(123,19,l),
(122,24,l),
(122,30,l),
(124,35,l),
(124,45,l),
(123,49,l),
(124,54,l),
(124,59,l),
(124,65,l),
(125,70,l),
(124,74,l),
(125,79,l),
(126,84,l),
(126,90,l),
(125,94,l),
(126,99,l),
(126,105,l),
(127,110,l),
(126,115,l),
(126,120,l),
(127,124,l),
(127,130,l),
(128,134,l),
(128,140,l),
(127,144,l),
(128,154,l),
(129,160,l),
(129,164,l),
(129,170,l),
(129,175,l),
(130,179,l),
(130,184,l),
(130,190,l),
(131,194,l),
(131,200,l),
(131,205,l),
(130,209,l),
(132,215,l),
(132,220,l),
(132,224,l),
(131,229,l),
(132,234,l),
(133,239,l),
(133,244,l),
(132,249,l),
(133,254,l),
(134,258,l),
(133,264,l),
(134,269,l),
(133,273,l),
(135,279,l),
(135,289,l),
(135,293,l),
(134,298,l),
(135,303,l),
(135,309,l),
(136,314,l),
(135,318,l),
(136,324,l),
(137,329,l),
(136,334,l),
(137,338,l),
(136,344,l),
(137,348,l),
(138,354,l),
(138,359,l),
(137,363,l),
(138,369,l),
(139,373,l),
(138,379,l),
(139,383,l),
(138,388,l),
(140,394,l),
(140,399,l),
(139,403,l),
(140,408,l),
(141,418,l),
(141,424,l),
(140,429,l),
(140,433,l),
(141,443,l),
(141,449,l),
(141,453,l),
(143,459,l),
(142,464,l),
(142,474,l),
(143,478,l),
(144,484,l),
(144,489,l),
(143,493,l),
(144,499,l),
(145,504,l),
(144,509,l),
(145,513,l),
(145,518,l),
(145,524,l),
(146,529,l),
(146,533,l),
(145,539,l),
(145,543,l),
(146,548,l),
(147,554,l),
(147,559,l),
(146,568,l),
(144,572,l),
(141,577,l),
(137,579,l),
(126,578,l),
(121,579,l),
(116,580,l),
(105,579,l),
(102,578,l),
(97,573,l),
(95,570,l),
(94,559,l),
(95,554,l),
(94,550,l),
(94,545,l),
(93,539,l),
(94,534,l),
(93,530,l),
(94,524,l),
(92,520,l),
(93,514,l),
(93,509,l),
(92,505,l),
(92,500,l),
(92,494,l),
(92,490,l),
(92,485,l),
(92,479,l),
(90,476,l),
(91,471,l),
(91,466,l),
(91,460,l),
(90,455,l),
(89,450,l),
(89,445,l),
(89,441,l),
(90,436,l),
(89,426,l),
(88,420,l),
(89,416,l),
(88,410,l),
(88,405,l),
(87,401,l),
(88,395,l),
(86,390,l),
(87,385,l),
(87,381,l),
(86,376,l),
(87,370,l),
(86,366,l),
(85,360,l),
(86,356,l),
(86,350,l),
(84,346,l),
(84,341,l),
(85,336,l),
(85,330,l),
(84,320,l),
(83,316,l),
(84,311,l),
(84,305,l),
(82,301,l),
(83,295,l),
(82,290,l),
(83,285,l),
(82,275,l),
(81,270,l),
(81,265,l),
(82,261,l),
(81,256,l),
(81,250,l),
(81,245,l),
(81,241,l),
(81,235,l),
(79,231,l),
(79,221,l),
(80,215,l),
(79,210,l),
(78,205,l),
(79,200,l),
(79,196,l),
(78,191,l),
(77,172,l),
(77,167,l),
(76,161,l),
(77,157,l),
(77,152,l),
(76,146,l),
(75,142,l),
(75,137,l),
(76,132,l),
(75,126,l),
(75,122,l),
(74,117,l),
(74,111,l),
(74,106,l),
(74,102,l),
(74,97,l),
(73,91,l),
(73,87,l),
(73,82,l),
(72,76,l),
(72,66,l),
(73,61,l),
(71,56,l),
(72,51,l),
(72,46,l),
(72,42,l),
(72,37,l),
(71,31,l),
(71,21,l),
(70,12,l),
(72,7,l),
(75,3,l),
(79,1,l),
(90,0,l),
(95,0,l),
(102,1,l),
(112,1,l),
(115,2,l),
(120,6,l),
(122,9,l)
);
},
{
closed = 1;
nodes = (
(137,282,l),
(143,283,l),
(147,282,l),
(153,283,l),
(158,283,l),
(164,282,l),
(168,283,l),
(173,283,l),
(178,284,l),
(183,283,l),
(189,284,l),
(194,283,l),
(199,283,l),
(205,284,l),
(215,284,l),
(219,287,l),
(222,290,l),
(223,295,l),
(224,305,l),
(224,309,l),
(224,316,l),
(223,326,l),
(222,330,l),
(218,333,l),
(213,335,l),
(204,335,l),
(193,335,l),
(189,335,l),
(185,334,l),
(180,334,l),
(175,335,l),
(164,334,l),
(160,334,l),
(154,333,l),
(150,333,l),
(146,334,l),
(141,333,l),
(135,334,l),
(126,332,l),
(122,330,l),
(119,327,l),
(116,323,l),
(116,313,l),
(117,307,l),
(117,302,l),
(117,291,l),
(119,288,l),
(123,284,l),
(127,282,l)
);
},
{
closed = 1;
nodes = (
(293,546,l),
(292,551,l),
(293,557,l),
(292,567,l),
(292,571,l),
(287,575,l),
(283,577,l),
(274,577,l),
(269,578,l),
(264,577,l),
(258,578,l),
(254,578,l),
(248,577,l),
(242,579,l),
(238,578,l),
(233,579,l),
(227,578,l),
(217,578,l),
(213,579,l),
(207,579,l),
(202,578,l),
(198,579,l),
(193,578,l),
(188,578,l),
(183,579,l),
(177,578,l),
(171,579,l),
(166,578,l),
(156,578,l),
(152,579,l),
(146,578,l),
(132,579,l),
(126,580,l),
(122,580,l),
(111,578,l),
(105,576,l),
(103,572,l),
(104,566,l),
(108,556,l),
(111,552,l),
(112,548,l),
(115,544,l),
(121,535,l),
(124,531,l),
(131,529,l),
(141,528,l),
(145,529,l),
(150,528,l),
(155,529,l),
(166,528,l),
(171,527,l),
(176,528,l),
(181,527,l),
(187,528,l),
(191,528,l),
(196,527,l),
(212,527,l),
(216,528,l),
(221,527,l),
(226,528,l),
(231,527,l),
(236,528,l),
(242,527,l),
(248,528,l),
(252,527,l),
(257,526,l),
(263,527,l),
(273,527,l),
(283,528,l),
(287,528,l),
(290,533,l),
(293,536,l)
);
}
);
width = 324;
},
{
associatedMasterId = "32AF036A-4181-4CD3-84B0-594A9F44F1BB";
layerId = "363B994B-20DB-44AC-B0D5-E5538A4D4A46";
width = 600;
}
);
unicode = (70,102);
},
{
glyphname = G;
kernLeft = O;
kernRight = G;
lastChange = "2023-08-06 15:31:52 +0000";
layers = (
{
layerId = "32AF036A-4181-4CD3-84B0-594A9F44F1BB";
shapes = (
{
closed = 1;
nodes = (
(345,-13,l),
(350,-14,l),
(355,-14,l),
(360,-12,l),
(366,-13,l),
(371,-12,l),
(375,-11,l),
(380,-11,l),
(386,-9,l),
(390,-9,l),
(396,-7,l),
(401,-7,l),
(405,-5,l),
(411,-5,l),
(415,-4,l),
(420,-2,l),
(426,-1,l),
(429,1,l),
(434,3,l),
(440,4,l),
(445,6,l),
(448,9,l),
(454,10,l),
(458,12,l),
(462,15,l),
(467,17,l),
(471,20,l),
(477,22,l),
(480,24,l),
(485,26,l),
(489,29,l),
(493,31,l),
(497,34,l),
(501,38,l),
(506,41,l),
(511,43,l),
(515,47,l),
(519,49,l),
(521,52,l),
(525,55,l),
(529,58,l),
(534,62,l),
(538,65,l),
(541,69,l),
(545,73,l),
(547,77,l),
(552,80,l),
(558,88,l),
(561,92,l),
(564,95,l),
(567,100,l),
(570,104,l),
(574,108,l),
(576,112,l),
(578,117,l),
(582,120,l),
(584,124,l),
(586,130,l),
(588,133,l),
(591,139,l),
(593,143,l),
(596,147,l),
(597,151,l),
(599,156,l),
(600,161,l),
(602,165,l),
(605,171,l),
(605,175,l),
(607,180,l),
(609,184,l),
(610,189,l),
(610,193,l),
(611,199,l),
(613,204,l),
(614,212,l),
(612,217,l),
(608,221,l),
(604,222,l),
(594,224,l),
(589,222,l),
(585,223,l),
(579,223,l),
(574,222,l),
(570,222,l),
(564,223,l),
(555,223,l),
(550,222,l),
(544,223,l),
(519,222,l),
(515,221,l),
(510,221,l),
(505,222,l),
(495,222,l),
(490,220,l),
(485,221,l),
(481,221,l),
(475,220,l),
(471,221,l),
(466,220,l),
(460,221,l),
(455,220,l),
(450,221,l),
(446,220,l),
(440,219,l),
(436,220,l),
(431,219,l),
(416,219,l),
(410,220,l),
(401,220,l),
(395,219,l),
(390,219,l),
(376,219,l),
(370,218,l),
(356,218,l),
(351,219,l),
(345,219,l),
(340,217,l),
(302,217,l),
(297,218,l),
(291,216,l),
(282,217,l),
(278,214,l),
(274,210,l),
(273,206,l),
(272,197,l),
(271,191,l),
(271,186,l),
(272,175,l),
(273,172,l),
(277,169,l),
(282,167,l),
(292,165,l),
(301,166,l),
(307,167,l),
(312,166,l),
(321,166,l),
(326,167,l),
(331,167,l),
(337,166,l),
(342,168,l),
(356,168,l),
(361,167,l),
(366,168,l),
(370,167,l),
(376,168,l),
(380,167,l),
(385,168,l),
(390,168,l),
(396,168,l),
(400,169,l),
(405,168,l),
(410,169,l),
(415,169,l),
(420,168,l),
(425,169,l),
(431,169,l),
(435,169,l),
(441,169,l),
(446,170,l),
(455,170,l),
(461,169,l),
(471,169,l),
(475,170,l),
(481,170,l),
(490,170,l),
(495,171,l),
(499,170,l),
(514,170,l),
(520,171,l),
(525,171,l),
(529,171,l),
(534,171,l),
(539,172,l),
(544,172,l),
(553,172,l),
(555,171,l),
(547,163,l),
(543,153,l),
(539,149,l),
(535,144,l),
(533,140,l),
(530,137,l),
(528,132,l),
(525,128,l),
(522,124,l),
(519,120,l),
(514,116,l),
(511,113,l),
(509,109,l),
(504,105,l),
(500,102,l),
(497,99,l),
(493,96,l),
(489,91,l),
(486,88,l),
(481,86,l),
(477,82,l),
(473,80,l),
(469,77,l),
(466,74,l),
(462,72,l),
(457,68,l),
(453,67,l),
(448,63,l),
(444,62,l),
(435,57,l),
(430,56,l),
(425,54,l),
(421,51,l),
(416,51,l),
(411,48,l),
(406,48,l),
(401,46,l),
(395,45,l),
(391,43,l),
(385,42,l),
(380,42,l),
(375,41,l),
(371,41,l),
(365,40,l),
(361,40,l),
(356,39,l),
(351,39,l),
(345,38,l),
(336,38,l),
(330,39,l),
(325,39,l),
(320,40,l),
(316,40,l),
(310,40,l),
(306,40,l),
(300,42,l),
(296,42,l),
(290,43,l),
(285,44,l),
(281,46,l),
(275,47,l),
(270,48,l),
(266,49,l),
(262,51,l),
(257,52,l),
(251,54,l),
(248,56,l),
(242,57,l),
(237,60,l),
(233,62,l),
(229,63,l),
(224,66,l),
(220,67,l),
(216,71,l),
(211,73,l),
(206,75,l),
(202,79,l),
(199,81,l),
(194,85,l),
(191,88,l),
(186,90,l),
(182,94,l),
(179,96,l),
(176,100,l),
(172,104,l),
(168,108,l),
(164,110,l),
(161,115,l),
(158,119,l),
(154,122,l),
(151,126,l),
(149,130,l),
(147,134,l),
(143,139,l),
(141,142,l),
(138,147,l),
(135,151,l),
(134,156,l),
(132,161,l),
(129,165,l),
(127,169,l),
(126,174,l),
(123,180,l),
(123,183,l),
(121,189,l),
(119,194,l),
(117,199,l),
(116,204,l),
(115,208,l),
(115,214,l),
(114,219,l),
(114,223,l),
(112,229,l),
(113,234,l),
(111,239,l),
(112,243,l),
(112,249,l),
(112,259,l),
(111,263,l),
(112,269,l),
(112,273,l),
(113,278,l),
(114,284,l),
(114,289,l),
(115,293,l),
(116,298,l),
(115,303,l),
(116,308,l),
(118,313,l),
(119,319,l),
(121,323,l),
(121,329,l),
(123,334,l),
(123,337,l),
(126,342,l),
(128,348,l),
(128,352,l),
(131,357,l),
(133,362,l),
(135,367,l),
(137,370,l),
(139,376,l),
(140,381,l),
(143,384,l),
(145,389,l),
(147,394,l),
(150,398,l),
(151,402,l),
(154,406,l),
(156,410,l),
(159,415,l),
(163,419,l),
(165,424,l),
(168,427,l),
(171,432,l),
(175,436,l),
(178,439,l),
(181,444,l),
(184,447,l),
(187,452,l),
(193,458,l),
(197,462,l),
(200,466,l),
(204,470,l),
(208,473,l),
(212,476,l),
(216,480,l),
(220,483,l),
(224,486,l),
(226,488,l),
(231,492,l),
(234,494,l),
(240,497,l),
(243,500,l),
(248,504,l),
(252,506,l),
(257,508,l),
(261,511,l),
(265,514,l),
(270,515,l),
(273,517,l),
(278,520,l),
(283,522,l),
(288,524,l),
(293,525,l),
(297,527,l),
(302,529,l),
(306,530,l),
(311,533,l),
(316,534,l),
(320,534,l),
(325,535,l),
(330,537,l),
(335,538,l),
(340,539,l),
(346,540,l),
(351,539,l),
(360,540,l),
(366,541,l),
(375,541,l),
(380,540,l),
(386,540,l),
(390,540,l),
(396,540,l),
(400,538,l),
(416,537,l),
(420,537,l),
(426,536,l),
(429,534,l),
(435,534,l),
(439,533,l),
(444,531,l),
(450,530,l),
(455,530,l),
(459,527,l),
(464,527,l),
(469,525,l),
(473,524,l),
(479,521,l),
(483,520,l),
(488,517,l),
(492,516,l),
(500,510,l),
(504,508,l),
(509,505,l),
(517,500,l),
(520,497,l),
(525,498,l),
(530,498,l),
(539,505,l),
(543,508,l),
(546,511,l),
(555,519,l),
(557,522,l),
(557,528,l),
(556,533,l),
(549,539,l),
(546,543,l),
(541,546,l),
(538,549,l),
(534,551,l),
(530,553,l),
(525,557,l),
(521,558,l),
(517,562,l),
(512,564,l),
(508,566,l),
(503,568,l),
(497,570,l),
(494,571,l),
(489,572,l),
(484,575,l),
(478,576,l),
(474,577,l),
(470,580,l),
(465,581,l),
(459,581,l),
(455,583,l),
(450,583,l),
(446,585,l),
(441,586,l),
(435,587,l),
(430,588,l),
(425,589,l),
(420,590,l),
(416,590,l),
(411,591,l),
(406,591,l),
(401,592,l),
(396,592,l),
(391,592,l),
(381,593,l),
(375,593,l),
(366,593,l),
(360,593,l),
(355,592,l),
(350,592,l),
(346,591,l),
(340,591,l),
(336,591,l),
(331,590,l),
(325,588,l),
(320,587,l),
(317,586,l),
(312,585,l),
(307,585,l),
(302,583,l),
(296,583,l),
(293,581,l),
(288,580,l),
(282,578,l),
(278,575,l),
(273,574,l),
(268,572,l),
(263,570,l),
(259,569,l),
(255,566,l),
(251,565,l),
(245,562,l),
(242,560,l),
(238,557,l),
(232,555,l),
(229,552,l),
(224,550,l),
(219,548,l),
(215,544,l),
(211,542,l),
(208,540,l),
(203,537,l),
(200,533,l),
(196,531,l),
(192,527,l),
(187,524,l),
(183,520,l),
(180,518,l),
(176,515,l),
(172,510,l),
(169,508,l),
(166,503,l),
(162,501,l),
(159,497,l),
(155,494,l),
(152,489,l),
(148,486,l),
(145,482,l),
(142,479,l),
(139,474,l),
(135,471,l),
(132,466,l),
(129,462,l),
(127,458,l),
(123,455,l),
(120,450,l),
(118,447,l),
(115,441,l),
(112,438,l),
(111,433,l),
(107,429,l),
(105,425,l),
(103,420,l),
(101,416,l),
(98,411,l),
(95,407,l),
(93,402,l),
(91,398,l),
(90,394,l),
(87,389,l),
(86,384,l),
(84,380,l),
(81,376,l),
(81,370,l),
(78,366,l),
(76,360,l),
(76,357,l),
(74,352,l),
(73,346,l),
(72,342,l),
(71,336,l),
(69,332,l),
(67,328,l),
(67,323,l),
(66,318,l),
(64,312,l),
(64,308,l),
(64,303,l),
(62,298,l),
(61,292,l),
(61,287,l),
(61,283,l),
(61,277,l),
(60,273,l),
(60,267,l),
(59,262,l),
(59,257,l),
(60,247,l),
(60,242,l),
(59,237,l),
(61,232,l),
(60,227,l),
(61,222,l),
(61,217,l),
(63,212,l),
(63,208,l),
(63,202,l),
(64,197,l),
(65,193,l),
(67,188,l),
(69,183,l),
(70,178,l),
(71,172,l),
(73,168,l),
(73,164,l),
(76,159,l),
(77,153,l),
(79,148,l),
(81,144,l),
(83,140,l),
(85,136,l),
(87,130,l),
(90,126,l),
(92,121,l),
(95,118,l),
(98,113,l),
(101,109,l),
(103,104,l),
(106,101,l),
(109,96,l),
(111,93,l),
(115,88,l),
(119,85,l),
(121,82,l),
(125,78,l),
(128,74,l),
(131,69,l),
(135,66,l),
(138,62,l),
(142,59,l),
(146,57,l),
(150,54,l),
(153,49,l),
(158,46,l),
(162,44,l),
(165,41,l),
(169,38,l),
(174,36,l),
(179,32,l),
(182,29,l),
(187,27,l),
(191,24,l),
(195,22,l),
(200,19,l),
(204,17,l),
(209,15,l),
(214,14,l),
(219,11,l),
(223,10,l),
(227,7,l),
(232,5,l),
(237,4,l),
(242,3,l),
(247,0,l),
(251,0,l),
(257,-1,l),
(261,-3,l),
(266,-4,l),
(271,-5,l),
(276,-6,l),
(281,-8,l),
(285,-8,l),
(291,-9,l),
(296,-11,l),
(300,-10,l),
(305,-12,l),
(311,-12,l),
(315,-13,l),
(321,-12,l),
(326,-13,l),
(330,-14,l),
(335,-13,l)
);
}
);
width = 636;
},
{
associatedMasterId = "32AF036A-4181-4CD3-84B0-594A9F44F1BB";
layerId = "363B994B-20DB-44AC-B0D5-E5538A4D4A46";
width = 600;
}
);
unicode = (71,103);
},
{
glyphname = Gbreve;
kernLeft = O;
kernRight = G;
lastChange = "2023-08-05 19:35:05 +0000";
layers = (
{
layerId = "32AF036A-4181-4CD3-84B0-594A9F44F1BB";
shapes = (
{
ref = G;
},
{
closed = 1;
nodes = (
(383,653,l),
(393,654,l),
(398,656,l),
(401,657,l),
(406,659,l),
(412,660,l),
(416,662,l),
(420,664,l),
(424,666,l),
(429,668,l),
(434,671,l),
(437,673,l),
(441,676,l),
(445,679,l),
(449,682,l),
(454,684,l),
(458,687,l),
(461,692,l),
(465,694,l),
(468,698,l),
(473,702,l),
(475,704,l),
(480,708,l),
(483,712,l),
(486,715,l),
(490,720,l),
(493,723,l),
(496,726,l),
(498,730,l),
(502,734,l),
(505,738,l),
(507,743,l),
(510,747,l),
(516,754,l),
(518,759,l),
(517,764,l),
(514,767,l),
(507,775,l),
(502,778,l),
(497,780,l),
(490,787,l),
(485,787,l),
(481,786,l),
(476,784,l),
(469,777,l),
(467,772,l),
(464,769,l),
(461,764,l),
(457,761,l),
(454,757,l),
(451,754,l),
(448,750,l),
(445,745,l),
(440,742,l),
(438,738,l),
(433,735,l),
(429,732,l),
(427,729,l),
(418,722,l),
(415,720,l),
(410,716,l),
(406,714,l),
(401,712,l),
(397,709,l),
(393,708,l),
(388,705,l),
(384,705,l),
(373,705,l),
(369,706,l),
(363,708,l),
(359,710,l),
(355,714,l),
(352,716,l),
(348,721,l),
(344,723,l),
(341,728,l),
(338,732,l),
(336,737,l),
(334,741,l),
(331,745,l),
(328,751,l),
(326,755,l),
(323,764,l),
(320,767,l),
(315,770,l),
(310,770,l),
(301,767,l),
(296,765,l),
(290,763,l),
(281,760,l),
(276,758,l),
(274,752,l),
(275,748,l),
(278,739,l),
(279,734,l),
(283,730,l),
(284,725,l),
(286,721,l),
(289,717,l),
(291,711,l),
(294,707,l),
(297,704,l),
(299,699,l),
(303,696,l),
(305,691,l),
(309,687,l),
(313,684,l),
(316,681,l),
(320,677,l),
(323,673,l),
(327,671,l),
(331,668,l),
(336,666,l),
(340,663,l),
(344,661,l),
(348,659,l),
(354,657,l),
(362,654,l),
(368,655,l),
(373,653,l)
);
}
);
width = 636;
},
{
associatedMasterId = "32AF036A-4181-4CD3-84B0-594A9F44F1BB";
layerId = "363B994B-20DB-44AC-B0D5-E5538A4D4A46";
width = 600;
}
);
unicode = (286,287);
},
{
glyphname = H;
kernLeft = H;
kernRight = H;
lastChange = "2023-08-05 19:35:05 +0000";
layers = (
{
layerId = "32AF036A-4181-4CD3-84B0-594A9F44F1BB";
shapes = (
{
closed = 1;
nodes = (
(481,18,l),
(480,23,l),
(482,28,l),
(482,34,l),
(481,38,l),
(483,44,l),
(482,48,l),
(482,53,l),
(484,59,l),
(484,69,l),
(484,73,l),
(485,78,l),
(484,83,l),
(485,89,l),
(485,93,l),
(485,99,l),
(486,104,l),
(486,108,l),
(487,114,l),
(486,118,l),
(486,124,l),
(487,128,l),
(488,134,l),
(487,138,l),
(488,144,l),
(489,148,l),
(489,153,l),
(488,159,l),
(489,164,l),
(490,169,l),
(489,174,l),
(490,184,l),
(491,189,l),
(490,194,l),
(492,198,l),
(491,203,l),
(491,209,l),
(493,213,l),
(492,218,l),
(493,224,l),
(493,228,l),
(493,234,l),
(493,238,l),
(494,244,l),
(495,249,l),
(494,254,l),
(494,258,l),
(495,264,l),
(495,268,l),
(495,274,l),
(495,279,l),
(497,284,l),
(496,288,l),
(497,292,l),
(498,298,l),
(497,302,l),
(498,307,l),
(497,313,l),
(498,318,l),
(498,322,l),
(498,327,l),
(500,332,l),
(500,337,l),
(500,343,l),
(500,348,l),
(500,353,l),
(500,357,l),
(500,363,l),
(502,368,l),
(502,372,l),
(501,378,l),
(503,382,l),
(503,388,l),
(503,392,l),
(502,397,l),
(503,402,l),
(503,408,l),
(503,413,l),
(505,418,l),
(504,422,l),
(504,428,l),
(505,433,l),
(506,438,l),
(505,442,l),
(505,448,l),
(506,453,l),
(507,458,l),
(507,462,l),
(507,467,l),
(507,477,l),
(507,483,l),
(508,487,l),
(508,493,l),
(509,498,l),
(510,502,l),
(509,507,l),
(510,513,l),
(510,518,l),
(511,522,l),
(510,528,l),
(511,533,l),
(512,537,l),
(511,543,l),
(511,547,l),
(512,553,l),
(513,557,l),
(512,568,l),
(511,571,l),
(507,575,l),
(504,577,l),
(493,579,l),
(487,580,l),
(481,579,l),
(471,580,l),
(467,578,l),
(464,575,l),
(461,570,l),
(461,560,l),
(461,556,l),
(460,551,l),
(459,545,l),
(459,540,l),
(459,536,l),
(459,531,l),
(459,525,l),
(458,520,l),
(457,515,l),
(458,510,l),
(457,505,l),
(456,500,l),
(457,496,l),
(457,491,l),
(456,485,l),
(455,480,l),
(456,476,l),
(455,470,l),
(455,465,l),
(454,460,l),
(455,456,l),
(454,450,l),
(453,446,l),
(453,440,l),
(454,435,l),
(452,431,l),
(452,425,l),
(453,421,l),
(452,415,l),
(451,410,l),
(451,405,l),
(451,401,l),
(451,396,l),
(451,390,l),
(451,385,l),
(449,380,l),
(450,375,l),
(449,371,l),
(449,366,l),
(449,360,l),
(449,355,l),
(449,351,l),
(447,345,l),
(446,330,l),
(447,326,l),
(447,320,l),
(445,316,l),
(446,311,l),
(446,306,l),
(446,300,l),
(445,295,l),
(444,291,l),
(445,287,l),
(443,281,l),
(444,277,l),
(444,271,l),
(444,267,l),
(442,262,l),
(443,256,l),
(443,251,l),
(441,247,l),
(442,241,l),
(441,236,l),
(440,232,l),
(441,227,l),
(441,217,l),
(440,211,l),
(440,206,l),
(439,201,l),
(439,197,l),
(438,192,l),
(438,186,l),
(438,181,l),
(438,176,l),
(437,172,l),
(438,167,l),
(437,157,l),
(436,152,l),
(437,147,l),
(435,141,l),
(436,137,l),
(436,131,l),
(435,127,l),
(434,122,l),
(435,117,l),
(433,112,l),
(434,106,l),
(434,101,l),
(433,96,l),
(433,92,l),
(433,87,l),
(432,82,l),
(431,76,l),
(431,72,l),
(431,66,l),
(431,62,l),
(431,57,l),
(431,52,l),
(430,47,l),
(429,42,l),
(429,36,l),
(430,31,l),
(428,26,l),
(428,22,l),
(428,11,l),
(430,7,l),
(434,4,l),
(438,2,l),
(448,1,l),
(460,0,l),
(469,-1,l),
(473,2,l),
(478,4,l),
(480,9,l)
);
},
{
closed = 1;
nodes = (
(122,20,l),
(123,25,l),
(123,29,l),
(124,39,l),
(123,45,l),
(124,55,l),
(124,59,l),
(124,65,l),
(125,70,l),
(125,74,l),
(126,79,l),
(126,85,l),
(126,88,l),
(126,94,l),
(126,98,l),
(126,104,l),
(126,109,l),
(128,114,l),
(128,119,l),
(127,124,l),
(128,134,l),
(129,138,l),
(128,143,l),
(129,149,l),
(129,154,l),
(130,158,l),
(129,163,l),
(129,168,l),
(131,173,l),
(129.997,179.003,l),
(130,183,l),
(131,189,l),
(132,193,l),
(132,198,l),
(131,204,l),
(132,208,l),
(132,213,l),
(133,219,l),
(132,223,l),
(132,229,l),
(134,234,l),
(134,239,l),
(133,244,l),
(133,249,l),
(134,253,l),
(135,258,l),
(135,268,l),
(135,272,l),
(135,277,l),
(135,283,l),
(136,287,l),
(137,297,l),
(136,303,l),
(137,307,l),
(138,312,l),
(138,318,l),
(138,323,l),
(137,328,l),
(138,333,l),
(139,338,l),
(139,343,l),
(139,347,l),
(140,352,l),
(139,358,l),
(140,363,l),
(139,368,l),
(141,373,l),
(141,377,l),
(141,382,l),
(140,387,l),
(141,393,l),
(142,398,l),
(142,408,l),
(143,412,l),
(142,417,l),
(143,423,l),
(142,428,l),
(144,433,l),
(143,438,l),
(143,442,l),
(143,447,l),
(144,453,l),
(144,457,l),
(145,461,l),
(145,467,l),
(146,471,l),
(145,476,l),
(146,482,l),
(146,486,l),
(146,492,l),
(147,497,l),
(147,502,l),
(146,506,l),
(147,512,l),
(148,517,l),
(148,527,l),
(148,532,l),
(148,537,l),
(149,542,l),
(148,546,l),
(150,552,l),
(150,557,l),
(149,566,l),
(148,570,l),
(144,574,l),
(140,577,l),
(129,577,l),
(125,577,l),
(119,578,l),
(109,578,l),
(104,575,l),
(100,573,l),
(99,569,l),
(97,558,l),
(97,554,l),
(98,548,l),
(96,543,l),
(97,538,l),
(96,533,l),
(97,528,l),
(96,524,l),
(96,509,l),
(94,504,l),
(94,498,l),
(95,493,l),
(95,490,l),
(94,484,l),
(94,474,l),
(93,470,l),
(92,465,l),
(93,460,l),
(93,454,l),
(93,449,l),
(92,445,l),
(92,440,l),
(91,435,l),
(91,429,l),
(90,424,l),
(90,420,l),
(90,414,l),
(89,404,l),
(89.003,399.997,l),
(89,394,l),
(89,390,l),
(89,385,l),
(88,379,l),
(88,375,l),
(89,370,l),
(87,364,l),
(87,359,l),
(88,354,l),
(87,350,l),
(86,345,l),
(87,340,l),
(86,325,l),
(85,319,l),
(86,314,l),
(86,309,l),
(85,306,l),
(84,301,l),
(84,296,l),
(85,291,l),
(83,286,l),
(84,281,l),
(83,275,l),
(84,270,l),
(83,255,l),
(83,251,l),
(82,246,l),
(82,240,l),
(82,235,l),
(81,230,l),
(81,226,l),
(80,221,l),
(80,216,l),
(80,210,l),
(79,200,l),
(79,196,l),
(80,191,l),
(79,185,l),
(78,160,l),
(77,156,l),
(77,151,l),
(76,145,l),
(77,141,l),
(77,136,l),
(77,130,l),
(76,126,l),
(75,122,l),
(74,102,l),
(75,97,l),
(75,91,l),
(73,86,l),
(73,81,l),
(73,77,l),
(73,71,l),
(73,67,l),
(73,62,l),
(72,57,l),
(73,51,l),
(71,47,l),
(72,42,l),
(72,36,l),
(71,32,l),
(71,26,l),
(70,22,l),
(70,12,l),
(73,7,l),
(75,3,l),
(79,1,l),
(91,0,l),
(95,0,l),
(102,0,l),
(112,0,l),
(116,2,l),
(119,6,l),
(121,10,l)
);
},
{
closed = 1;
nodes = (
(115,236,l),
(125,236,l),
(131,235,l),
(135,236,l),
(146,236,l),
(151,235,l),
(170,235,l),
(175,236,l),
(181,235,l),
(185,236,l),
(195,236,l),
(200,235,l),
(205,236,l),
(210,235,l),
(216,236,l),
(221,235,l),
(226,236,l),
(230,235,l),
(236,236,l),
(240,235,l),
(246,235,l),
(251,236,l),
(256,235,l),
(266,235,l),
(271,236,l),
(301,236,l),
(306,235,l),
(311,236,l),
(317,235,l),
(321,235,l),
(327,236,l),
(332,235,l),
(341,235,l),
(347,236,l),
(352,235,l),
(356,235,l),
(361,236,l),
(371,236,l),
(376,235,l),
(382,235,l),
(387,236,l),
(391,235,l),
(412,235,l),
(417,236,l),
(421,235,l),
(427,236,l),
(431,236,l),
(437,235,l),
(441,235,l),
(446,236,l),
(452,235,l),
(457,235,l),
(467,236,l),
(471,238,l),
(475,242,l),
(476,245,l),
(477,255,l),
(476,260,l),
(476,267,l),
(475,276,l),
(475,281,l),
(471,284,l),
(466,285,l),
(456,287,l),
(451,286,l),
(446,287,l),
(442,287,l),
(436,286,l),
(431,287,l),
(427,287,l),
(421,286,l),
(417,286,l),
(411,287,l),
(406,286,l),
(396,286,l),
(392,287,l),
(386,286,l),
(382,287,l),
(372,287,l),
(366,286,l),
(356,286,l),
(351,287,l),
(347,286,l),
(342,286,l),
(336,287,l),
(317,287,l),
(311,286,l),
(307,287,l),
(302,286,l),
(296,286,l),
(292,287,l),
(271,287,l),
(265,286,l),
(255,286,l),
(251,287,l),
(246,287,l),
(241,286,l),
(235,287,l),
(221,287,l),
(215,286,l),
(210,287,l),
(206,286,l),
(200,287,l),
(185,287,l),
(180,286,l),
(176,287,l),
(171,286,l),
(160,286,l),
(155,287,l),
(151,287,l),
(145,286,l),
(140,286,l),
(135,287,l),
(131,286,l),
(116,286,l),
(105,286,l),
(102,284,l),
(98,280,l),
(97,277,l),
(95,266,l),
(96,262,l),
(95,256,l),
(96,245,l),
(97,241,l),
(101,238,l),
(106,237,l)
);
}
);
width = 584;
},
{
associatedMasterId = "32AF036A-4181-4CD3-84B0-594A9F44F1BB";
layerId = "363B994B-20DB-44AC-B0D5-E5538A4D4A46";
width = 600;
}
);
unicode = (72,104);
},
{
glyphname = I;
kernLeft = H;
kernRight = H;
lastChange = "2023-08-05 19:35:05 +0000";
layers = (
{
layerId = "32AF036A-4181-4CD3-84B0-594A9F44F1BB";
shapes = (
{
closed = 1;
nodes = (
(122,20,l),
(123,26,l),
(122,30,l),
(124,35,l),
(124,41,l),
(124,45,l),
(124,51,l),
(125,56,l),
(124,61,l),
(125,66,l),
(124,71,l),
(126,75,l),
(126,81,l),
(126,85,l),
(125,90,l),
(127,95,l),
(126,100,l),
(127,106,l),
(126,111,l),
(128,116,l),
(127,120,l),
(127,125,l),
(128,131,l),
(129,136,l),
(128,140,l),
(129,146,l),
(129,150,l),
(130,156,l),
(130,160,l),
(130,165,l),
(129,170,l),
(130,176,l),
(130,180,l),
(130,185,l),
(131,191,l),
(130,196,l),
(132,200,l),
(132,206,l),
(132,210,l),
(131,216,l),
(132,221,l),
(132,225,l),
(133,230,l),
(133,236,l),
(133,240,l),
(134,246,l),
(133,252,l),
(133,256,l),
(135,261,l),
(134,266,l),
(135,271,l),
(134,276,l),
(135,282,l),
(136,287,l),
(135,291,l),
(136,296,l),
(137,302,l),
(136,307,l),
(137,312,l),
(136,316,l),
(138,322,l),
(138,327,l),
(137,332,l),
(138,336,l),
(139,341,l),
(138,346,l),
(138,351,l),
(138,357,l),
(139,361,l),
(139,366,l),
(139,372,l),
(139,377,l),
(141,382,l),
(140,386,l),
(140,396,l),
(141,402,l),
(142,406,l),
(141,412,l),
(141,417,l),
(142,421,l),
(143,427,l),
(143,431,l),
(142,437,l),
(142,442,l),
(144,446,l),
(143,452,l),
(144,457,l),
(143,461,l),
(144,467,l),
(144,471,l),
(145,476,l),
(144,481,l),
(145,486,l),
(146,491,l),
(145,496,l),
(145,502,l),
(146,507,l),
(147,511,l),
(146,517,l),
(147,522,l),
(148,526,l),
(148,532,l),
(148,542,l),
(148,547,l),
(148,552,l),
(149,556,l),
(148,567,l),
(146,571,l),
(144,574,l),
(139,576,l),
(129,577,l),
(125,578,l),
(118,578,l),
(109,578,l),
(105,576,l),
(100,573,l),
(99,570,l),
(97,559,l),
(98,554,l),
(96,550,l),
(96,545,l),
(97,539,l),
(97,535,l),
(96,529,l),
(95,525,l),
(95,519,l),
(96,514,l),
(95,509,l),
(94,504,l),
(94,500,l),
(95,494,l),
(93,489,l),
(94,484,l),
(94,479,l),
(93,475,l),
(93,469,l),
(92,464,l),
(92,460,l),
(92,454,l),
(91,449,l),
(92,444,l),
(91,440,l),
(91,435,l),
(91,429,l),
(90,425,l),
(90,420,l),
(91,414,l),
(90,409,l),
(89,404,l),
(90,399,l),
(89,389,l),
(89,385,l),
(88,370,l),
(87,365,l),
(87,359,l),
(87,355,l),
(87,349,l),
(86,345,l),
(87,340,l),
(86,330,l),
(86,324,l),
(86,319,l),
(86,313,l),
(85,308,l),
(84,303,l),
(85,299,l),
(84,293,l),
(83,288,l),
(84,283,l),
(83,279,l),
(84,274,l),
(82,269,l),
(82,259,l),
(82,253,l),
(81,243,l),
(82,239,l),
(81,233,l),
(81,228,l),
(80,223,l),
(80,213,l),
(79,209,l),
(80,204,l),
(80,198,l),
(79,194,l),
(78,189,l),
(78,183,l),
(78,179,l),
(78,174,l),
(78,169,l),
(78,163,l),
(77,159,l),
(77,153,l),
(76,143,l),
(77,139,l),
(76,134,l),
(75,119,l),
(75,113,l),
(74,109,l),
(74,103,l),
(74,99,l),
(75,94,l),
(73,88,l),
(74,83,l),
(73,79,l),
(73,73,l),
(73,69,l),
(72,63,l),
(71,43,l),
(72,38,l),
(71,34,l),
(71,28,l),
(70,24,l),
(71,14,l),
(72,10,l),
(75,6,l),
(79,3,l),
(89,2,l),
(101,1,l),
(111,2,l),
(115,3,l),
(119,6,l),
(122,10,l)
);
}
);
width = 220;
},
{
associatedMasterId = "32AF036A-4181-4CD3-84B0-594A9F44F1BB";
layerId = "363B994B-20DB-44AC-B0D5-E5538A4D4A46";
width = 600;
}
);
unicode = (73,105);
},
{
glyphname = Iacute;
kernLeft = H;
kernRight = H;
lastChange = "2023-08-05 19:35:05 +0000";
layers = (
{
layerId = "32AF036A-4181-4CD3-84B0-594A9F44F1BB";
shapes = (
{
ref = I;
},
{
closed = 1;
nodes = (
(136,676,l),
(143,684,l),
(147,688,l),
(153,696,l),
(156,701,l),
(160,703,l),
(163,707,l),
(165,712,l),
(169,715,l),
(173,719,l),
(176,723,l),
(179,728,l),
(182,730,l),
(186,735,l),
(188,738,l),
(193,742,l),
(195,746,l),
(198,751,l),
(205,758,l),
(207,763,l),
(206,768,l),
(204,772,l),
(197,779,l),
(193,782,l),
(190,784,l),
(187,788,l),
(178,793,l),
(174,794,l),
(169,794,l),
(166,793,l),
(158,786,l),
(156,781,l),
(149,773,l),
(145,770,l),
(142,766,l),
(138,761,l),
(135,759,l),
(128,751,l),
(126,747,l),
(122,743,l),
(118,739,l),
(116,734,l),
(113,732,l),
(109,728,l),
(105,724,l),
(103,720,l),
(99,715,l),
(95,712,l),
(90,704,l),
(87,700,l),
(88,695,l),
(90,690,l),
(97,683,l),
(102,681,l),
(104,677,l),
(108,674,l),
(117,669,l),
(120,667,l),
(125,667,l),
(130,669,l)
);
}
);
width = 220;
},
{
associatedMasterId = "32AF036A-4181-4CD3-84B0-594A9F44F1BB";
layerId = "363B994B-20DB-44AC-B0D5-E5538A4D4A46";
width = 600;
}
);
unicode = (205,237);
},
{
glyphname = Idotaccent;
kernLeft = H;
kernRight = H;
lastChange = "2023-08-05 19:35:05 +0000";
layers = (
{
layerId = "32AF036A-4181-4CD3-84B0-594A9F44F1BB";
shapes = (
{
ref = I;
},
{
closed = 1;
nodes = (
(155,675,l),
(155,680,l),
(155,685,l),
(156,690,l),
(156,696,l),
(157,702,l),
(156,706,l),
(157,711,l),
(157,717,l),
(158,721,l),
(158,727,l),
(158,731,l),
(159,737,l),
(158,742,l),
(160,747,l),
(159,752,l),
(160,757,l),
(159,763,l),
(160,768,l),
(161,778,l),
(158,782,l),
(156,786,l),
(152,787,l),
(141,789,l),
(136,790,l),
(129,789,l),
(119,789,l),
(115,788,l),
(112,784,l),
(110,780,l),
(109,771,l),
(107,765,l),
(108,760,l),
(107,756,l),
(108,751,l),
(106,744,l),
(106,740,l),
(107,735,l),
(105,729,l),
(106,725,l),
(106,720,l),
(104,714,l),
(105,709,l),
(105,705,l),
(104,699,l),
(104,683,l),
(102,679,l),
(103,668,l),
(104,664,l),
(107,661,l),
(112,659,l),
(122,658,l),
(134,657,l),
(143,657,l),
(148,658,l),
(152,661,l),
(154,665,l)
);
}
);
width = 220;
},
{
associatedMasterId = "32AF036A-4181-4CD3-84B0-594A9F44F1BB";
layerId = "363B994B-20DB-44AC-B0D5-E5538A4D4A46";
width = 600;
}
);
unicode = 304;
},
{
glyphname = J;
kernLeft = J;
kernRight = J;
lastChange = "2023-08-07 09:44:55 +0000";
layers = (
{
layerId = "32AF036A-4181-4CD3-84B0-594A9F44F1BB";
shapes = (
{
closed = 1;
nodes = (
(74,-20,l),
(79,-20,l),
(83,-19,l),
(89,-18,l),
(94,-18,l),
(99,-16,l),
(102,-15,l),
(107,-15,l),
(112,-13,l),
(118,-11,l),
(121,-10,l),
(126,-8,l),
(131,-6,l),
(136,-3,l),
(139,-2,l),
(145,1,l),
(148,3,l),
(153,7,l),
(156,9,l),
(160,13,l),
(165,16,l),
(168,19,l),
(171,22,l),
(176,25,l),
(178,29,l),
(186,36,l),
(188,41,l),
(192,45,l),
(194,49,l),
(198,53,l),
(200,57,l),
(203,60,l),
(205,64,l),
(208,68,l),
(211,74,l),
(214,78,l),
(216,83,l),
(218,86,l),
(221,91,l),
(223,96,l),
(224,101,l),
(227,104,l),
(228,109,l),
(231,113,l),
(232,118,l),
(235,123,l),
(237,128,l),
(238,132,l),
(239,138,l),
(241,142,l),
(242,146,l),
(245,152,l),
(246,157,l),
(247,162,l),
(248,167,l),
(250,170,l),
(251,176,l),
(252,180,l),
(255,186,l),
(255,191,l),
(257,195,l),
(257,201,l),
(259,204,l),
(260,210,l),
(261,215,l),
(262,219,l),
(263,224,l),
(264,230,l),
(264,235,l),
(265,239,l),
(267,244,l),
(268,250,l),
(269,255,l),
(268,259,l),
(270,264,l),
(270,269,l),
(270,274,l),
(272,279,l),
(272,284,l),
(273,289,l),
(273,295,l),
(274,300,l),
(275,305,l),
(275,310,l),
(276,314,l),
(276,319,l),
(276,325,l),
(278,330,l),
(277,335,l),
(278,340,l),
(278,344,l),
(278,349,l),
(279,355,l),
(279,359,l),
(279,364,l),
(280,369,l),
(281,374,l),
(281,379,l),
(280,384,l),
(281,390,l),
(281,394,l),
(282,400,l),
(282,404,l),
(281,410,l),
(281,414,l),
(283,419,l),
(282,425,l),
(282,429,l),
(282,435,l),
(283,439,l),
(283,445,l),
(282,449,l),
(282,459,l),
(282,464,l),
(282,469,l),
(283,474,l),
(282,479,l),
(283,484,l),
(281,488,l),
(282,493,l),
(281,498,l),
(281,504,l),
(282,509,l),
(281,514,l),
(280,518,l),
(280,524,l),
(280,528,l),
(280,533,l),
(279,539,l),
(279,543,l),
(278,548,l),
(279,552,l),
(279,557,l),
(277,563,l),
(276,573,l),
(274,577,l),
(272,580,l),
(266,581,l),
(258,583,l),
(247,583,l),
(242,582,l),
(237,583,l),
(232,582,l),
(228,582,l),
(223,582,l),
(218,581,l),
(213,581,l),
(207,582,l),
(192,582,l),
(187,581,l),
(184,582,l),
(168,582,l),
(164,581,l),
(159,582,l),
(154,581,l),
(124,581,l),
(119,582,l),
(105,581,l),
(99,580,l),
(94,581,l),
(90,580,l),
(85,580,l),
(75,580,l),
(70,579,l),
(66,575,l),
(66,570,l),
(64,560,l),
(65,554,l),
(64,549,l),
(65,539,l),
(66,534,l),
(71,531,l),
(74,529,l),
(84,528,l),
(89,529,l),
(100,529,l),
(104,528,l),
(115,528,l),
(119,529,l),
(124,528,l),
(130,529,l),
(134,529,l),
(139,528,l),
(144,528,l),
(150,530,l),
(155,530,l),
(159,529,l),
(164,530,l),
(169,530,l),
(174,529,l),
(178,530,l),
(183,530,l),
(189,529,l),
(194,530,l),
(199,529,l),
(204,529,l),
(209,530,l),
(224,530,l),
(231,532,l),
(232,531,l),
(230,518,l),
(230,510,l),
(229,505,l),
(229,499,l),
(229,494,l),
(229,489,l),
(229,484,l),
(230,479,l),
(230,473,l),
(230,469,l),
(229,463,l),
(229,453,l),
(229,448,l),
(230,444,l),
(230,439,l),
(230,433,l),
(229,429,l),
(229,424,l),
(228,418,l),
(229,413,l),
(228,409,l),
(228,403,l),
(229,398,l),
(228,392,l),
(228,387,l),
(228,383,l),
(227,377,l),
(228,372,l),
(226,367,l),
(227,363,l),
(227,358,l),
(226,352,l),
(225,348,l),
(226,343,l),
(225,337,l),
(225,333,l),
(223,328,l),
(223,323,l),
(222,318,l),
(223,312,l),
(222,307,l),
(222,302,l),
(221,297,l),
(220,292,l),
(220,287,l),
(218,282,l),
(218,277,l),
(218,272,l),
(216,266,l),
(215,262,l),
(215,257,l),
(214,251,l),
(214,247,l),
(213,242,l),
(211,237,l),
(211,232,l),
(209,227,l),
(208,222,l),
(207,216,l),
(206,212,l),
(205,206,l),
(204,201,l),
(204,197,l),
(202,192,l),
(201,187,l),
(199,181,l),
(199,176,l),
(196,172,l),
(196,167,l),
(194,163,l),
(193,158,l),
(190,153,l),
(188,148,l),
(186,143,l),
(186,138,l),
(184,134,l),
(181,128,l),
(179,125,l),
(178,120,l),
(174,116,l),
(173,110,l),
(171,106,l),
(167,102,l),
(165,97,l),
(163,94,l),
(161,88,l),
(157,84,l),
(155,80,l),
(152,77,l),
(148,72,l),
(146,69,l),
(141,66,l),
(138,61,l),
(134,59,l),
(132,55,l),
(127,52,l),
(123,50,l),
(119,47,l),
(116,44,l),
(111,42,l),
(106,40,l),
(102,38,l),
(97,36,l),
(93,36,l),
(88,35,l),
(83,34,l),
(79,32,l),
(74,33,l),
(65,33,l),
(58,31,l),
(54,25,l),
(53,13,l),
(53,7,l),
(52,2,l),
(52,-9,l),
(52,-12,l),
(56,-16,l),
(61,-18,l),
(66,-20,l)
);
}
);
width = 343;
},
{
associatedMasterId = "32AF036A-4181-4CD3-84B0-594A9F44F1BB";
layerId = "363B994B-20DB-44AC-B0D5-E5538A4D4A46";
width = 600;
}
);
unicode = (74,106);
},
{
glyphname = K;
kernLeft = H;
kernRight = K;
lastChange = "2023-08-06 09:03:01 +0000";
layers = (
{
layerId = "32AF036A-4181-4CD3-84B0-594A9F44F1BB";
shapes = (
{
closed = 1;
nodes = (
(335,-3,l),
(338,2,l),
(343,5,l),
(350,12,l),
(351,18,l),
(350,21,l),
(348,26,l),
(343,33,l),
(338,36,l),
(336,40,l),
(331,43,l),
(328,48,l),
(325,51,l),
(321,54,l),
(318,57,l),
(308,68,l),
(303,71,l),
(300,76,l),
(297,78,l),
(294,82,l),
(289,86,l),
(286,89,l),
(283,93,l),
(280,95,l),
(276,100,l),
(273,102,l),
(269,107,l),
(265,109,l),
(261,114,l),
(258,116,l),
(254,121,l),
(247,127,l),
(245,131,l),
(240,133,l),
(238,137,l),
(234,140,l),
(230,145,l),
(227,147,l),
(222,151,l),
(219,155,l),
(216,159,l),
(213,161,l),
(204,169,l),
(202,172,l),
(191,182,l),
(187,187,l),
(183,189,l),
(180,193,l),
(176,196,l),
(173,201,l),
(170,203,l),
(166,208,l),
(159,215,l),
(155,217,l),
(152,221,l),
(148,225,l),
(150,230,l),
(153,234,l),
(156,239,l),
(159,243,l),
(163,247,l),
(165,250,l),
(169,254,l),
(172,258,l),
(174,262,l),
(177,267,l),
(181,271,l),
(183,275,l),
(187,279,l),
(189,283,l),
(192,288,l),
(195,291,l),
(198,296,l),
(201,299,l),
(204,304,l),
(207,308,l),
(210,311,l),
(213,316,l),
(216,320,l),
(220,323,l),
(223,327,l),
(225,331,l),
(228,335,l),
(232,340,l),
(234,344,l),
(238,347,l),
(241,352,l),
(244,356,l),
(246,361,l),
(250,365,l),
(252,369,l),
(259,376,l),
(262,380,l),
(265,385,l),
(267,388,l),
(271,392,l),
(274,397,l),
(277,400,l),
(282,409,l),
(286,413,l),
(288,416,l),
(291,421,l),
(295,425,l),
(297,429,l),
(300,433,l),
(307,440,l),
(310,446,l),
(312,449,l),
(315,453,l),
(319,458,l),
(322,461,l),
(324,465,l),
(327,469,l),
(331,474,l),
(334,478,l),
(336,482,l),
(341,490,l),
(344,493,l),
(347,498,l),
(354,505,l),
(356,510,l),
(359,513,l),
(363,518,l),
(366,522,l),
(369,527,l),
(371,531,l),
(375,534,l),
(378,538,l),
(381,543,l),
(383,546,l),
(389,554,l),
(391,560,l),
(390,564,l),
(387,568,l),
(378,575,l),
(374,578,l),
(370,581,l),
(362,588,l),
(356,589,l),
(352,588,l),
(347,584,l),
(342,577,l),
(338,573,l),
(335,569,l),
(333,565,l),
(329,562,l),
(327,558,l),
(323,553,l),
(318,545,l),
(316,541,l),
(309,534,l),
(307,529,l),
(303,526,l),
(300,521,l),
(298,518,l),
(294,512,l),
(292,509,l),
(288,504,l),
(286,500,l),
(280,492,l),
(276,489,l),
(273,484,l),
(271,480,l),
(267,477,l),
(265,473,l),
(262,468,l),
(260,464,l),
(253,457,l),
(250,453,l),
(248,449,l),
(244,445,l),
(242,441,l),
(239,437,l),
(235,432,l),
(230,424,l),
(227,421,l),
(225,416,l),
(222,413,l),
(219,408,l),
(215,404,l),
(213,399,l),
(211,396,l),
(208,391,l),
(204,387,l),
(202,384,l),
(199,380,l),
(196,376,l),
(193,371,l),
(190,366,l),
(188,363,l),
(185,358,l),
(182,354,l),
(179,350,l),
(177,346,l),
(171,338,l),
(167,334,l),
(166,330,l),
(163,326,l),
(160,321,l),
(156,318,l),
(154,313,l),
(151,310,l),
(149,305,l),
(145,301,l),
(143,297,l),
(139,293,l),
(138,289,l),
(135,284,l),
(131,277,l),
(129,279,l),
(126,280,l),
(123,276,l),
(115,269,l),
(112,264,l),
(109,260,l),
(103,251,l),
(98,242,l),
(95,239,l),
(95,234,l),
(94,224,l),
(95,220,l),
(95,210,l),
(98,206,l),
(100,200,l),
(106,193,l),
(112,188,l),
(116,184,l),
(123,185,l),
(125,186,l),
(130,178,l),
(133,175,l),
(137,172,l),
(139,168,l),
(143,165,l),
(147,160,l),
(150,156,l),
(154,153,l),
(156,149,l),
(160,146,l),
(163,142,l),
(167,139,l),
(170,134,l),
(174,130,l),
(176,128,l),
(181,124,l),
(183,120,l),
(187,116,l),
(190,112,l),
(193,108,l),
(197,105,l),
(200,101,l),
(208,95,l),
(210,90,l),
(215,88,l),
(218,83,l),
(229,73,l),
(232,70,l),
(235,66,l),
(239,62,l),
(243,59,l),
(247,56,l),
(249,53,l),
(254,48,l),
(257,46,l),
(260,41,l),
(263,38,l),
(267,35,l),
(271,31,l),
(275,28,l),
(278,24,l),
(281,20,l),
(285,18,l),
(289,14,l),
(293,10,l),
(300,3,l),
(303,1,l),
(307,-4,l),
(314,-10,l),
(319,-12,l),
(323,-11,l),
(327,-9,l)
);
},
{
closed = 1;
nodes = (
(122,17,l),
(123,22,l),
(123,27,l),
(122,32,l),
(123,37,l),
(123,41,l),
(123,47,l),
(123,52,l),
(124,57,l),
(124,60,l),
(125,66,l),
(124,70,l),
(125,81,l),
(124,85,l),
(124,91,l),
(124,96,l),
(125,101,l),
(125,105,l),
(124,111,l),
(124,115,l),
(125,120,l),
(124,126,l),
(123,132,l),
(124,137,l),
(123,141,l),
(123,147,l),
(124,151,l),
(123,157,l),
(123,161,l),
(124,166,l),
(124,172,l),
(124,176,l),
(123,185,l),
(125,186,l),
(126,191,l),
(128,201,l),
(128,205,l),
(127,211,l),
(129,216,l),
(129,221,l),
(128,226,l),
(129,231,l),
(130,236,l),
(129,241,l),
(130,245,l),
(129,251,l),
(131,256,l),
(131,260,l),
(130,265,l),
(131,270,l),
(131,277,l),
(129,279,l),
(129,287,l),
(129,291,l),
(130,297,l),
(131,302,l),
(130,306,l),
(130,311,l),
(132,317,l),
(133,327,l),
(132,331,l),
(133,337,l),
(134,342,l),
(133,346,l),
(135,352,l),
(135,356,l),
(134,361,l),
(136,368,l),
(135,372,l),
(135,377,l),
(137,383,l),
(136,387,l),
(138,392,l),
(138,402,l),
(138,408,l),
(139,418,l),
(139,422,l),
(139,428,l),
(140,433,l),
(141,437,l),
(141,442,l),
(142,452,l),
(142,457,l),
(142,462,l),
(143,468,l),
(142,472,l),
(143,478,l),
(143,481,l),
(144,486,l),
(144,491,l),
(144,497,l),
(145,502,l),
(144,507,l),
(144,511,l),
(145,517,l),
(144,522,l),
(145,526,l),
(146,532,l),
(145,536,l),
(146,541,l),
(147,545,l),
(147,550,l),
(147,556,l),
(146,566,l),
(144,570,l),
(142,574,l),
(137,575,l),
(128,576,l),
(121,577,l),
(116,578,l),
(106,578,l),
(101,576,l),
(98,573,l),
(95,569,l),
(95,559,l),
(94,553,l),
(95,549,l),
(93,544,l),
(93,538,l),
(93,533,l),
(94,529,l),
(93,523,l),
(93,519,l),
(92,514,l),
(92,504,l),
(91,498,l),
(91,494,l),
(91,488,l),
(91,484,l),
(91,478,l),
(90,474,l),
(91,468,l),
(90,464,l),
(91,458,l),
(89,453,l),
(90,448,l),
(89,444,l),
(90,439,l),
(88,434,l),
(88,429,l),
(89,423,l),
(89,419,l),
(89,414,l),
(87,409,l),
(88,403,l),
(88,399,l),
(88,393,l),
(87,383,l),
(86,379,l),
(87,373,l),
(87,369,l),
(86,363,l),
(85,359,l),
(85,353,l),
(85,349,l),
(84,343,l),
(84,339,l),
(85,333,l),
(84,328,l),
(84,324,l),
(84,318,l),
(84,314,l),
(83,309,l),
(84,303,l),
(82,298,l),
(82,293,l),
(82,289,l),
(82,283,l),
(83,278,l),
(82,275,l),
(82,270,l),
(82,264,l),
(82,260,l),
(80,255,l),
(81,250,l),
(81,245,l),
(81,239,l),
(80,235,l),
(80,230,l),
(80,224,l),
(79,219,l),
(79,214,l),
(79,209,l),
(78,204,l),
(79,200,l),
(78,194,l),
(79,190,l),
(77,184,l),
(77,180,l),
(78,174,l),
(77,169,l),
(77,165,l),
(77,160,l),
(76,154,l),
(76,150,l),
(76,144,l),
(76,139,l),
(75,135,l),
(76,130,l),
(76,124,l),
(74,120,l),
(74,115,l),
(75,110,l),
(75,105,l),
(73,100,l),
(74,94,l),
(74,84,l),
(74,80,l),
(73,74,l),
(72,70,l),
(72,64,l),
(72,60,l),
(72,55,l),
(71,49,l),
(72,44,l),
(71,40,l),
(70,30,l),
(70,24,l),
(70,19,l),
(70,9,l),
(72,6,l),
(75,1,l),
(79,0,l),
(90,-1,l),
(96,-2,l),
(102,-1,l),
(112,-2,l),
(115,1,l),
(119,4,l),
(121,7,l)
);
}
);
width = 426;
},
{
associatedMasterId = "32AF036A-4181-4CD3-84B0-594A9F44F1BB";
layerId = "363B994B-20DB-44AC-B0D5-E5538A4D4A46";
width = 600;
}
);
unicode = (75,107);
},
{
glyphname = L;
kernLeft = H;
kernRight = L;
lastChange = "2023-08-06 09:03:30 +0000";
layers = (
{
layerId = "32AF036A-4181-4CD3-84B0-594A9F44F1BB";
shapes = (
{
closed = 1;
nodes = (
(343,18,l),
(344,24,l),
(344,29,l),
(343,39,l),
(341,43,l),
(337,47,l),
(334,49,l),
(323,49,l),
(318,49,l),
(314,50,l),
(309,49,l),
(289,49,l),
(284,51,l),
(278,50,l),
(273,51,l),
(268,50,l),
(264,50,l),
(258,51,l),
(248,51,l),
(244,50,l),
(238,50,l),
(235,51,l),
(229,51,l),
(225,50,l),
(220,51,l),
(215,50,l),
(210,50,l),
(205,51,l),
(199,50,l),
(195,51,l),
(189,50,l),
(175,51,l),
(169,52,l),
(164,51,l),
(160,52,l),
(155,51,l),
(149,51,l),
(144,52,l),
(128,50,l),
(124,47,l),
(122,49,l),
(125,61,l),
(126,66,l),
(125,71,l),
(125,76,l),
(127,81,l),
(126,87,l),
(127,91,l),
(128,101,l),
(127,107,l),
(127,112,l),
(127,116,l),
(128,122,l),
(128,126,l),
(128,132,l),
(128,136,l),
(130,142,l),
(130,152,l),
(129,156,l),
(131,161,l),
(131,176,l),
(131,182,l),
(131,187,l),
(131,191,l),
(132,197,l),
(132,202,l),
(133,206,l),
(132,212,l),
(133,222,l),
(134,227,l),
(134,232,l),
(134,236,l),
(135,242,l),
(135,246,l),
(134,251,l),
(136,256,l),
(136,262,l),
(136,266,l),
(136,272,l),
(137,277,l),
(136,281,l),
(137,287,l),
(137,292,l),
(137,298,l),
(138,303,l),
(137,307,l),
(137,312,l),
(139,317,l),
(138,322,l),
(138,327,l),
(138,333,l),
(139,338,l),
(139,342,l),
(140,347,l),
(140,352,l),
(141,358,l),
(140,363,l),
(140,368,l),
(141,373,l),
(141,377,l),
(141,383,l),
(142,388,l),
(142,392,l),
(143,398,l),
(142,403,l),
(143,407,l),
(144,412,l),
(144,418,l),
(143,423,l),
(144,428,l),
(145,433,l),
(144,437,l),
(144,443,l),
(145,448,l),
(145,452,l),
(146,457,l),
(146,467,l),
(146,472,l),
(146,477,l),
(146,483,l),
(146,488,l),
(148,492,l),
(147,498,l),
(148,502,l),
(147,507,l),
(149,513,l),
(148,518,l),
(148,522,l),
(148,527,l),
(149,533,l),
(149,538,l),
(149,542,l),
(150,547,l),
(150,553,l),
(151,557,l),
(151,568,l),
(149,571,l),
(146,575,l),
(141,577,l),
(131,578,l),
(126,579,l),
(121,580,l),
(109,580,l),
(106,577,l),
(102,575,l),
(100,570,l),
(98,561,l),
(98,555,l),
(97,550,l),
(98,546,l),
(98,540,l),
(97,535,l),
(97,530,l),
(96,526,l),
(96,520,l),
(97,516,l),
(96,506,l),
(95,500,l),
(96,495,l),
(94,491,l),
(94,485,l),
(93,470,l),
(94,466,l),
(93,460,l),
(93,456,l),
(92,450,l),
(92,445,l),
(93,440,l),
(92,435,l),
(92,431,l),
(91,426,l),
(92,421,l),
(91,416,l),
(90,411,l),
(90,406,l),
(91,400,l),
(90,395,l),
(89,391,l),
(90,386,l),
(90,381,l),
(88,376,l),
(88,371,l),
(89,366,l),
(89,361,l),
(88,355,l),
(87,351,l),
(88,345,l),
(88,341,l),
(87,336,l),
(86,331,l),
(86,325,l),
(85,315,l),
(86,311,l),
(86,305,l),
(86,300,l),
(85,296,l),
(85,290,l),
(84,285,l),
(83,281,l),
(83,275,l),
(84,271,l),
(83,265,l),
(82,260,l),
(83,256,l),
(83,250,l),
(83,246,l),
(81,241,l),
(81,231,l),
(82,226,l),
(81,220,l),
(80,215,l),
(79,200,l),
(80,196,l),
(79,191,l),
(80,185,l),
(79,180,l),
(79,176,l),
(78,170,l),
(78,165,l),
(78,159,l),
(78,154,l),
(77,149,l),
(78,145,l),
(76,139,l),
(76,135,l),
(76,129,l),
(76,124,l),
(76,119,l),
(76,115,l),
(75,109,l),
(75,105,l),
(75,100,l),
(74,95,l),
(75,90,l),
(73,85,l),
(74,80,l),
(74,75,l),
(73,69,l),
(73,64,l),
(72,60,l),
(73,55,l),
(73,50,l),
(72,44,l),
(72,40,l),
(72,30,l),
(71,24,l),
(70,20,l),
(70,10,l),
(72,5,l),
(75,1,l),
(80,0,l),
(90,0,l),
(94,-1,l),
(99,-1,l),
(105,0,l),
(114,0,l),
(120,-1,l),
(124,0,l),
(130,0,l),
(134,-1,l),
(154,-2,l),
(159,-1,l),
(165,-2,l),
(170,-1,l),
(174,-1,l),
(179,-2,l),
(184,-1,l),
(190,-1,l),
(194,-2,l),
(205,-2,l),
(209,-1,l),
(215,-2,l),
(220,-1,l),
(224,-1,l),
(230,-2,l),
(258,-2,l),
(264,-1,l),
(269,-2,l),
(273,-2,l),
(278,-2,l),
(283,-3,l),
(289,-2,l),
(293,-3,l),
(319,-3,l),
(323,-2,l),
(333,-2,l),
(338,0,l),
(341,3,l),
(342,8,l)
);
}
);
width = 374;
},
{
associatedMasterId = "32AF036A-4181-4CD3-84B0-594A9F44F1BB";
layerId = "363B994B-20DB-44AC-B0D5-E5538A4D4A46";
width = 600;
}
);
unicode = (76,108);
},
{
glyphname = M;
kernLeft = H;
kernRight = H;
lastChange = "2023-08-06 09:03:58 +0000";
layers = (
{
layerId = "32AF036A-4181-4CD3-84B0-594A9F44F1BB";
shapes = (
{
closed = 1;
nodes = (
(350,273,l),
(354,277,l),
(357,281,l),
(362,284,l),
(365,286,l),
(369,291,l),
(371,294,l),
(376,298,l),
(380,301,l),
(383,303,l),
(387,308,l),
(391,310,l),
(394,314,l),
(398,318,l),
(401,321,l),
(404,325,l),
(408,328,l),
(411,330,l),
(416,334,l),
(420,337,l),
(422,341,l),
(427,344,l),
(430,348,l),
(434,352,l),
(437,354,l),
(441,357,l),
(444,362,l),
(448,365,l),
(452,369,l),
(456,371,l),
(458,375,l),
(462,378,l),
(467,381,l),
(469,385,l),
(473,389,l),
(477,391,l),
(480,396,l),
(485,399,l),
(487,401,l),
(491,406,l),
(496,408,l),
(499,413,l),
(503,416,l),
(506,418,l),
(509,423,l),
(514,425,l),
(517,429,l),
(521,432,l),
(525,436,l),
(527,439,l),
(535,446,l),
(538,450,l),
(542,454,l),
(545,456,l),
(548,461,l),
(553,464,l),
(556,467,l),
(558,471,l),
(563,474,l),
(565,479,l),
(569,482,l),
(573,486,l),
(576,488,l),
(580,492,l),
(583,496,l),
(586,500,l),
(590,503,l),
(593,506,l),
(604,518,l),
(608,520,l),
(613,527,l),
(615,526,l),
(619,531,l),
(625,538,l),
(627,542,l),
(630,545,l),
(634,549,l),
(637,553,l),
(639,556,l),
(642,560,l),
(648,567,l),
(649,572,l),
(649,575,l),
(647,579,l),
(641,581,l),
(633,583,l),
(628,583,l),
(623,584,l),
(613,584,l),
(608,583,l),
(603,581,l),
(595,573,l),
(592,571,l),
(589,567,l),
(584,563,l),
(581,560,l),
(577,556,l),
(574,554,l),
(571,549,l),
(566,547,l),
(563,543,l),
(559,539,l),
(555,535,l),
(552,533,l),
(548,529,l),
(544,525,l),
(542,522,l),
(537,519,l),
(534,515,l),
(530,513,l),
(526,509,l),
(522,505,l),
(520,502,l),
(515,498,l),
(511,494,l),
(509,492,l),
(505,488,l),
(501,485,l),
(497,482,l),
(493,477,l),
(490,474,l),
(487,471,l),
(482,468,l),
(479,465,l),
(476,460,l),
(471,458,l),
(468,454,l),
(464,450,l),
(460,447,l),
(458,443,l),
(453,440,l),
(450,437,l),
(446,434,l),
(438,427,l),
(436,424,l),
(432,419,l),
(428,416,l),
(424,412,l),
(417,407,l),
(413,402,l),
(410,400,l),
(407,396,l),
(402,393,l),
(399,389,l),
(395,386,l),
(392,382,l),
(384,374,l),
(381,371,l),
(378,367,l),
(374,365,l),
(370,360,l),
(367,358,l),
(363,353,l),
(359,351,l),
(355,347,l),
(352,344,l),
(348,340,l),
(345,337,l),
(340,333,l),
(337,330,l),
(333,325,l),
(331,323,l),
(326,319,l),
(321,323,l),
(319,328,l),
(316,331,l),
(310,339,l),
(308,345,l),
(304,349,l),
(302,353,l),
(300,357,l),
(296,360,l),
(294,364,l),
(291,369,l),
(289,373,l),
(285,377,l),
(282,381,l),
(281,385,l),
(278,389,l),
(275,394,l),
(271,397,l),
(270,402,l),
(264,409,l),
(261,414,l),
(257,417,l),
(255,422,l),
(253,426,l),
(250,430,l),
(246,434,l),
(243,439,l),
(241,442,l),
(238,446,l),
(236,450,l),
(232,454,l),
(229,459,l),
(227,463,l),
(224,468,l),
(221,471,l),
(219,476,l),
(213,484,l),
(209,488,l),
(207,492,l),
(196,509,l),
(193,512,l),
(190,517,l),
(188,520,l),
(184,524,l),
(182,529,l),
(179,533,l),
(175,537,l),
(173,541,l),
(170,545,l),
(168,550,l),
(165,553,l),
(161,558,l),
(158,561,l),
(155,566,l),
(154,569,l),
(146,577,l),
(142,580,l),
(138,583,l),
(126,583,l),
(115,582,l),
(110,581,l),
(99,580,l),
(94,578,l),
(92,573,l),
(93,567,l),
(100,558,l),
(102,555,l),
(108,546,l),
(112,542,l),
(115,538,l),
(118,533,l),
(121,530,l),
(124,526,l),
(127,520,l),
(131,521,l),
(134,515,l),
(136,509,l),
(139,505,l),
(143,501,l),
(145,497,l),
(147,492,l),
(150,489,l),
(153,484,l),
(155,479,l),
(158,475,l),
(162,472,l),
(163,466,l),
(166,462,l),
(170,458,l),
(171,453,l),
(174,449,l),
(178,445,l),
(180,441,l),
(185,432,l),
(189,428,l),
(192,425,l),
(193,420,l),
(196,416,l),
(200,412,l),
(203,408,l),
(206,403,l),
(208,400,l),
(211,395,l),
(214,391,l),
(216,388,l),
(219,382,l),
(222,379,l),
(226,375,l),
(227,371,l),
(231,367,l),
(240,355,l),
(242,349,l),
(244,346,l),
(248,342,l),
(250,338,l),
(254,334,l),
(257,329,l),
(260,326,l),
(261,321,l),
(265,316,l),
(271,308,l),
(273,304,l),
(277,301,l),
(279,296,l),
(282,292,l),
(284,289,l),
(287,283,l),
(291,280,l),
(296,272,l),
(300,269,l),
(305,267,l),
(321,265,l),
(333,263,l),
(338,265,l),
(342,266,l)
);
},
{
closed = 1;
nodes = (
(123,19,l),
(123,24,l),
(122,29,l),
(123,35,l),
(123,40,l),
(122,45,l),
(123,50,l),
(123,55,l),
(123,60,l),
(123,64,l),
(124,69,l),
(123,75,l),
(124,80,l),
(124,85,l),
(123,89,l),
(124,95,l),
(124,99,l),
(124,104,l),
(125,110,l),
(125,114,l),
(124,119,l),
(125,125,l),
(125,129,l),
(125,134,l),
(125,140,l),
(125,145,l),
(126,149,l),
(125,155,l),
(125,159,l),
(125,164,l),
(125,170,l),
(126,174,l),
(126,179,l),
(127,185,l),
(127,189,l),
(127,195,l),
(126,199,l),
(126,204,l),
(127,210,l),
(127,215,l),
(128,219,l),
(127,224,l),
(128,229,l),
(128,235,l),
(127,240,l),
(128,244,l),
(128,250,l),
(129,255,l),
(129,259,l),
(128,264,l),
(128,270,l),
(129,275,l),
(129,279,l),
(129,284,l),
(130,290,l),
(130,294,l),
(130,300,l),
(130,304,l),
(129,309,l),
(130,314,l),
(129,320,l),
(130,325,l),
(130,329,l),
(130,344,l),
(131,349,l),
(131,354,l),
(130,359,l),
(131,365,l),
(132,369,l),
(131,375,l),
(131,380,l),
(132,384,l),
(132,390,l),
(131,395,l),
(131,400,l),
(131,404,l),
(133,409,l),
(132,415,l),
(132,420,l),
(132,430,l),
(133,435,l),
(132,440,l),
(131,449,l),
(132,453,l),
(131,459,l),
(132,463,l),
(132,469,l),
(131,473,l),
(130,479,l),
(131,484,l),
(131,489,l),
(131,493,l),
(130,497,l),
(130,502,l),
(130,507,l),
(129,513,l),
(129,521,l),
(132,524,l),
(135,534,l),
(135,540,l),
(137,546,l),
(137,551,l),
(138,557,l),
(140,562,l),
(140,571,l),
(139,577,l),
(137,581,l),
(132,582,l),
(122,582,l),
(116,582,l),
(112,581,l),
(107,582,l),
(102,581,l),
(94,579,l),
(89,578,l),
(85,574,l),
(83,569,l),
(84,561,l),
(83,555,l),
(82,551,l),
(83,545,l),
(82,540,l),
(83,535,l),
(82,531,l),
(82,521,l),
(82,515,l),
(81,510,l),
(82,506,l),
(81,500,l),
(81,495,l),
(82,491,l),
(81,485,l),
(81,481,l),
(81,475,l),
(80,470,l),
(80,465,l),
(80,461,l),
(80,451,l),
(80,445,l),
(80,441,l),
(81,435,l),
(80,430,l),
(79,426,l),
(80,420,l),
(80,415,l),
(80,411,l),
(79,406,l),
(79,401,l),
(80,395,l),
(79,391,l),
(79,385,l),
(79,381,l),
(79,376,l),
(78,371,l),
(78,365,l),
(78,361,l),
(79,355,l),
(78,351,l),
(78,345,l),
(78,341,l),
(77,336,l),
(77,326,l),
(77,320,l),
(78,315,l),
(77,310,l),
(76,305,l),
(76,301,l),
(76,295,l),
(76,290,l),
(77,285,l),
(77,280,l),
(76,275,l),
(77,270,l),
(76,265,l),
(76,261,l),
(76,256,l),
(75,250,l),
(75,246,l),
(75,240,l),
(76,236,l),
(75,231,l),
(74,225,l),
(74,220,l),
(75,215,l),
(74,210,l),
(74,206,l),
(74,201,l),
(75,196,l),
(75,190,l),
(74,185,l),
(73,181,l),
(74,175,l),
(74,170,l),
(74,166,l),
(73,160,l),
(73,155,l),
(74,150,l),
(74,146,l),
(72,140,l),
(73,135,l),
(72,130,l),
(73,125,l),
(73,121,l),
(73,115,l),
(73,110,l),
(72,106,l),
(72,101,l),
(71,95,l),
(72,91,l),
(72,86,l),
(71,80,l),
(71,76,l),
(71,71,l),
(72,66,l),
(71,60,l),
(71,56,l),
(70,51,l),
(71,46,l),
(70,40,l),
(71,36,l),
(70,31,l),
(71,25,l),
(70,21,l),
(70,10,l),
(71,6,l),
(75,2,l),
(79,0,l),
(90,0,l),
(96,0,l),
(102,-1,l),
(112,1,l),
(116,1,l),
(119,5,l),
(122,9,l)
);
},
{
closed = 1;
nodes = (
(649,20,l),
(650,24,l),
(650,29,l),
(650,35,l),
(651,40,l),
(650,44,l),
(651,49,l),
(650,55,l),
(650,59,l),
(651,65,l),
(651,75,l),
(650,79,l),
(651,84,l),
(651,89,l),
(651,94,l),
(652,100,l),
(651,104,l),
(651,110,l),
(652,115,l),
(651,120,l),
(652,125,l),
(652,129,l),
(651,135,l),
(651,140,l),
(652,144,l),
(652,150,l),
(653,154,l),
(653,159,l),
(652,165,l),
(652,169,l),
(653,174,l),
(652,179,l),
(652,184,l),
(653,190,l),
(653,200,l),
(653,205,l),
(654,210,l),
(653,216,l),
(654,220,l),
(654,225,l),
(653,230,l),
(653,236,l),
(653,241,l),
(654,246,l),
(654,250,l),
(654,256,l),
(653,261,l),
(655,266,l),
(654,271,l),
(654,276,l),
(654,280,l),
(654,286,l),
(654,290,l),
(654,310,l),
(654,316,l),
(656,321,l),
(655,326,l),
(656,331,l),
(655,335,l),
(655,340,l),
(656,345,l),
(656,350,l),
(655,356,l),
(655,360,l),
(655,366,l),
(655,370,l),
(656,375,l),
(656,381,l),
(657,386,l),
(657,391,l),
(656,396,l),
(656,400,l),
(656,406,l),
(657,410,l),
(657,416,l),
(656,421,l),
(657,426,l),
(657,431,l),
(657,436,l),
(658,440,l),
(657,446,l),
(658,451,l),
(657,456,l),
(657,461,l),
(657,465,l),
(657,470,l),
(658,475,l),
(657,481,l),
(658,486,l),
(658,491,l),
(658,495,l),
(658,500,l),
(659,506,l),
(659,510,l),
(658,516,l),
(658,526,l),
(658,530,l),
(659,536,l),
(659,546,l),
(658,550,l),
(660,555,l),
(660,561,l),
(658,570,l),
(657,575,l),
(653,578,l),
(649,580,l),
(640,582,l),
(634,583,l),
(629,582,l),
(618,584,l),
(613,582,l),
(610,579,l),
(608,574,l),
(608,564,l),
(609,558,l),
(610,548,l),
(610,545,l),
(609,540,l),
(611,535,l),
(611,529,l),
(615,526,l),
(612,519,l),
(611,514,l),
(612,508,l),
(610,504,l),
(611,498,l),
(610,494,l),
(609,484,l),
(610,479,l),
(609,473,l),
(609,468,l),
(608,462,l),
(607,458,l),
(608,452,l),
(607,447,l),
(606,443,l),
(607,437,l),
(605,432,l),
(606,427,l),
(604,422,l),
(605,412,l),
(604,408,l),
(605,402,l),
(604,398,l),
(604,393,l),
(604,388,l),
(603,383,l),
(604,378,l),
(603,372,l),
(604,368,l),
(603,363,l),
(603,358,l),
(603,352,l),
(603,348,l),
(603,342,l),
(604,338,l),
(603,333,l),
(602,327,l),
(602,322,l),
(603,316,l),
(602,311,l),
(603,306,l),
(603,302,l),
(603,297,l),
(603,291,l),
(602,286,l),
(602,281,l),
(603,276,l),
(602,272,l),
(602,267,l),
(602,261,l),
(601,256,l),
(601,252,l),
(601,246,l),
(602,242,l),
(601,237,l),
(602,232,l),
(601,227,l),
(601,222,l),
(601,216,l),
(601,212,l),
(600,206,l),
(601,202,l),
(600,196,l),
(601,192,l),
(601,186,l),
(601,182,l),
(600,177,l),
(600,171,l),
(601,166,l),
(601,162,l),
(601,152,l),
(599,147,l),
(600,141,l),
(600,137,l),
(600,122,l),
(600,115,l),
(599,110,l),
(599,106,l),
(600,101,l),
(600,95,l),
(600,90,l),
(598,86,l),
(598,76,l),
(599,70,l),
(598,65,l),
(598,60,l),
(599,55,l),
(599,40,l),
(598,36,l),
(597,21,l),
(599,11,l),
(599,7,l),
(603,2,l),
(608,0,l),
(618,0,l),
(623,1,l),
(628,0,l),
(640,1,l),
(644,2,l),
(648,5,l),
(650,9,l)
);
}
);
width = 730;
},
{
associatedMasterId = "32AF036A-4181-4CD3-84B0-594A9F44F1BB";
layerId = "363B994B-20DB-44AC-B0D5-E5538A4D4A46";
width = 600;
}
);
unicode = (77,109);
},
{
glyphname = N;
kernLeft = N;
kernRight = N;
lastChange = "2023-08-06 09:04:32 +0000";
layers = (
{
layerId = "32AF036A-4181-4CD3-84B0-594A9F44F1BB";
shapes = (
{
closed = 1;
nodes = (
(448,-2,l),
(454,-2,l),
(459,0,l),
(468,0,l),
(477,2,l),
(482,4,l),
(485,9,l),
(485,13,l),
(479,22,l),
(477,27,l),
(474,31,l),
(470,34,l),
(467,39,l),
(465,43,l),
(463,46,l),
(460,50,l),
(456,54,l),
(452,58,l),
(450,56,l),
(446,65,l),
(443,71,l),
(442,75,l),
(439,79,l),
(438,83,l),
(434,88,l),
(433,93,l),
(431,97,l),
(428,102,l),
(424,111,l),
(422,114,l),
(419,120,l),
(417,124,l),
(415,128,l),
(412,133,l),
(409,136,l),
(407,142,l),
(406,146,l),
(402,150,l),
(401,154,l),
(399,159,l),
(396,163,l),
(393,169,l),
(389,176,l),
(387,182,l),
(385,185,l),
(382,189,l),
(379,194,l),
(376,199,l),
(375,202,l),
(371,208,l),
(370,212,l),
(367,215,l),
(364,221,l),
(362,225,l),
(360,228,l),
(357,234,l),
(354,237,l),
(353,241,l),
(349,246,l),
(348,251,l),
(344,256,l),
(343,259,l),
(340,264,l),
(338,268,l),
(334,272,l),
(332,277,l),
(330,282,l),
(328,286,l),
(324,289,l),
(322,295,l),
(319,299,l),
(318,303,l),
(316,307,l),
(313,312,l),
(310,316,l),
(307,320,l),
(305,324,l),
(303,329,l),
(301,333,l),
(297,338,l),
(295,341,l),
(292,347,l),
(291,350,l),
(287,355,l),
(285,359,l),
(282,364,l),
(277,373,l),
(276,377,l),
(274,381,l),
(270,386,l),
(268,389,l),
(266,394,l),
(263,399,l),
(261,402,l),
(258,406,l),
(255,412,l),
(254,416,l),
(251,420,l),
(248,425,l),
(245,428,l),
(240,437,l),
(238,442,l),
(236,447,l),
(234,450,l),
(231,455,l),
(229,459,l),
(226,464,l),
(224,468,l),
(219,477,l),
(216,481,l),
(213,486,l),
(212,489,l),
(209,494,l),
(206,499,l),
(203,502,l),
(199,511,l),
(197,516,l),
(194,520,l),
(191,525,l),
(190,528,l),
(186,532,l),
(185,538,l),
(181,542,l),
(179,545,l),
(176,550,l),
(174,555,l),
(169,564,l),
(166,567,l),
(162,576,l),
(157,580,l),
(151,582,l),
(141,582,l),
(136,581,l),
(130,581,l),
(125,582,l),
(115,580,l),
(110,578,l),
(108,574,l),
(109,568,l),
(114,559,l),
(115,554,l),
(118,550,l),
(121,547,l),
(124,542,l),
(127,539,l),
(128,534,l),
(132,529,l),
(134,525,l),
(137,522,l),
(140,518,l),
(143,519,l),
(147,511,l),
(149,505,l),
(151,501,l),
(154,497,l),
(156,493,l),
(159,487,l),
(160,483,l),
(163,479,l),
(165,474,l),
(167,470,l),
(169,466,l),
(172,462,l),
(174,456,l),
(177,452,l),
(178,448,l),
(181,444,l),
(182,438,l),
(185,434,l),
(187,430,l),
(189,426,l),
(192,421,l),
(195,417,l),
(196,411,l),
(200,404,l),
(204,398,l),
(205,395,l),
(208,391,l),
(211,386,l),
(213,381,l),
(216,377,l),
(219,373,l),
(221,368,l),
(224,365,l),
(225,360,l),
(229,355,l),
(230,351,l),
(233,346,l),
(236,342,l),
(237,339,l),
(241,334,l),
(246,326,l),
(247,320,l),
(251,316,l),
(252,312,l),
(255,308,l),
(258,303,l),
(266,290,l),
(267,285,l),
(270,281,l),
(272,278,l),
(274,272,l),
(277,269,l),
(279,264,l),
(282,260,l),
(285,256,l),
(288,251,l),
(290,247,l),
(293,242,l),
(294,238,l),
(297,233,l),
(300,230,l),
(302,225,l),
(307,216,l),
(310,212,l),
(311,208,l),
(315,203,l),
(317,200,l),
(319,195,l),
(321,190,l),
(324,187,l),
(326,181,l),
(329,178,l),
(331,173,l),
(334,168,l),
(336,165,l),
(340,160,l),
(342,156,l),
(345,151,l),
(346,147,l),
(348,142,l),
(352,139,l),
(353,134,l),
(356,130,l),
(358,125,l),
(362,121,l),
(364,117,l),
(366,113,l),
(369,107,l),
(371,104,l),
(373,99,l),
(376,94,l),
(379,91,l),
(382,86,l),
(384,82,l),
(385,77,l),
(389,74,l),
(391,68,l),
(393,64,l),
(396,60,l),
(398,55,l),
(400,51,l),
(404,48,l),
(406,42,l),
(409,39,l),
(411,34,l),
(413,30,l),
(415,26,l),
(419,22,l),
(421,16,l),
(423,13,l),
(428,3,l),
(432,0,l),
(438,-2,l)
);
},
{
closed = 1;
nodes = (
(122,21,l),
(122,25,l),
(124,31,l),
(123,36,l),
(123,40,l),
(124,46,l),
(125,56,l),
(124,61,l),
(124,66,l),
(126,71,l),
(125,75,l),
(125,80,l),
(125,86,l),
(126,91,l),
(127,95,l),
(126,100,l),
(127,105,l),
(128,111,l),
(128,116,l),
(128,120,l),
(127,126,l),
(129,130,l),
(128,135,l),
(129,141,l),
(129,145,l),
(129,151,l),
(129,161,l),
(129,165,l),
(130,171,l),
(131,175,l),
(131,180,l),
(130,185,l),
(132,191,l),
(132,196,l),
(131,200,l),
(132,206,l),
(132,209,l),
(133,215,l),
(133,220,l),
(133,224,l),
(133,229,l),
(134,234,l),
(134,240,l),
(135,245,l),
(134,249,l),
(134,259,l),
(135,265,l),
(135,269,l),
(135,279,l),
(137,284,l),
(137,290,l),
(137,294,l),
(136,300,l),
(137,304,l),
(137,310,l),
(138,315,l),
(137,319,l),
(139,325,l),
(138,330,l),
(139,334,l),
(139,340,l),
(140,345,l),
(140,349,l),
(140,355,l),
(139,360,l),
(141,365,l),
(140,370,l),
(140,374,l),
(141,384,l),
(141,395,l),
(141,399,l),
(142,405,l),
(142,410,l),
(141,414,l),
(142,420,l),
(141,425,l),
(142,430,l),
(142,463,l),
(141,469,l),
(142,473,l),
(141,479,l),
(142,484,l),
(141,489,l),
(141,493,l),
(142,498,l),
(142,508,l),
(140,518,l),
(143,519,l),
(146,521,l),
(148,531,l),
(149,537,l),
(149,542,l),
(151,546,l),
(151,550,l),
(154,555,l),
(155,561,l),
(155,570,l),
(154,575,l),
(151,580,l),
(146,582,l),
(137,582,l),
(133,581,l),
(127,581,l),
(123,582,l),
(119,582,l),
(110,580,l),
(104,578,l),
(102,576,l),
(100,570,l),
(98,561,l),
(98,557,l),
(98,551,l),
(98,546,l),
(97,542,l),
(98,536,l),
(96,532,l),
(96,527,l),
(97,521,l),
(96,517,l),
(96,512,l),
(95,506,l),
(96,502,l),
(95,497,l),
(94,492,l),
(95,486,l),
(94,482,l),
(93,472,l),
(94,466,l),
(94,462,l),
(94,457,l),
(92,452,l),
(93,447,l),
(93,442,l),
(92,436,l),
(91,431,l),
(91,427,l),
(92,422,l),
(90,416,l),
(90,412,l),
(90,406,l),
(91,401,l),
(89,397,l),
(89,392,l),
(90,387,l),
(89,381,l),
(88,376,l),
(89,372,l),
(89,366,l),
(88,362,l),
(87,357,l),
(87,353,l),
(87,348,l),
(87,342,l),
(87,337,l),
(86,332,l),
(87,328,l),
(86,323,l),
(85,317,l),
(85,313,l),
(86,308,l),
(85,302,l),
(85,298,l),
(85,293,l),
(84,287,l),
(83,277,l),
(84,272,l),
(83,268,l),
(83,263,l),
(82,258,l),
(83,253,l),
(82,247,l),
(81,237,l),
(82,232,l),
(82,228,l),
(80,223,l),
(81,218,l),
(80,213,l),
(81,207,l),
(80,202,l),
(80,198,l),
(79,193,l),
(79,188,l),
(78,182,l),
(78,177,l),
(79,172,l),
(78,168,l),
(77,162,l),
(77,157,l),
(77,153,l),
(78,147,l),
(76,142,l),
(76,137,l),
(77,133,l),
(76,128,l),
(76,122,l),
(75,118,l),
(76,113,l),
(75,109,l),
(75,103,l),
(75,98,l),
(74,94,l),
(73,89,l),
(73,83,l),
(74,78,l),
(73,68,l),
(73,64,l),
(72,58,l),
(72,54,l),
(72,48,l),
(72,44,l),
(71,38,l),
(71,34,l),
(70,29,l),
(71,24,l),
(71,13,l),
(73,10,l),
(76,6,l),
(80,3,l),
(90,3,l),
(95,2,l),
(101,2,l),
(112,2,l),
(115,3,l),
(120,7,l),
(121,10,l)
);
},
{
closed = 1;
nodes = (
(455,-2,l),
(460,0,l),
(465,0,l),
(469,0,l),
(474,1,l),
(485,2,l),
(489,3,l),
(491,6,l),
(493,10,l),
(495,20,l),
(494,25,l),
(495,35,l),
(495,41,l),
(497,45,l),
(497,50,l),
(496,55,l),
(498,61,l),
(498,66,l),
(497,70,l),
(499,76,l),
(499,80,l),
(499,85,l),
(498,91,l),
(499,95,l),
(500,115,l),
(501,121,l),
(501,126,l),
(501,130,l),
(502,136,l),
(501,141,l),
(503,145,l),
(503,150,l),
(502,155,l),
(503,161,l),
(503,165,l),
(504,170,l),
(504,176,l),
(505,181,l),
(506,191,l),
(505,196,l),
(505,200,l),
(505,205,l),
(507,211,l),
(506,216,l),
(506,221,l),
(508,226,l),
(508,231,l),
(507,236,l),
(509,240,l),
(510,266,l),
(510,272,l),
(511,277,l),
(510,282,l),
(510,287,l),
(512,291,l),
(511,297,l),
(512,302,l),
(513,306,l),
(513,312,l),
(513,316,l),
(513,321,l),
(513,326,l),
(513,332,l),
(513,337,l),
(515,341,l),
(514,346,l),
(515,352,l),
(516,362,l),
(515,366,l),
(517,371,l),
(517,376,l),
(516,381,l),
(516,387,l),
(518,392,l),
(518,397,l),
(517,402,l),
(519,406,l),
(518,411,l),
(518,417,l),
(519,421,l),
(520,427,l),
(520,431,l),
(520,436,l),
(520,442,l),
(520,447,l),
(520,451,l),
(521,461,l),
(522,466,l),
(522,471,l),
(523,476,l),
(523,481,l),
(523,487,l),
(523,491,l),
(523,496,l),
(523,502,l),
(524,506,l),
(525,512,l),
(524,517,l),
(525,522,l),
(526,526,l),
(526,532,l),
(526,537,l),
(527,542,l),
(527,547,l),
(527,551,l),
(528,556,l),
(528,566,l),
(526,571,l),
(522,575,l),
(518,577,l),
(507,577,l),
(503,578,l),
(497,579,l),
(487,579,l),
(482,576,l),
(478,574,l),
(477,569,l),
(476,560,l),
(475,554,l),
(474,550,l),
(475,544,l),
(474,539,l),
(473,535,l),
(474,529,l),
(474,525,l),
(473,520,l),
(473,514,l),
(473,509,l),
(472,506,l),
(471,500,l),
(472,495,l),
(471,491,l),
(470,486,l),
(470,480,l),
(471,475,l),
(470,470,l),
(469,460,l),
(470,455,l),
(469,445,l),
(468,441,l),
(468,436,l),
(468,431,l),
(467,426,l),
(468,420,l),
(467,416,l),
(467,410,l),
(466,406,l),
(465,400,l),
(466,395,l),
(465,390,l),
(464,386,l),
(464,381,l),
(465,377,l),
(464,371,l),
(463,366,l),
(464,362,l),
(463,357,l),
(462,351,l),
(462,347,l),
(462,341,l),
(463,337,l),
(461,332,l),
(461,326,l),
(462,321,l),
(461,316,l),
(460,312,l),
(461,306,l),
(460,301,l),
(459,296,l),
(459,286,l),
(459,281,l),
(459,277,l),
(459,272,l),
(457,267,l),
(458,262,l),
(458,253,l),
(456,247,l),
(457,243,l),
(456,238,l),
(455,233,l),
(455,227,l),
(456,222,l),
(454,217,l),
(454,212,l),
(454,208,l),
(455,203,l),
(453,197,l),
(453,187,l),
(454,182,l),
(453,177,l),
(454,173,l),
(453,168,l),
(454,163,l),
(452,157,l),
(453,153,l),
(453,128,l),
(452,122,l),
(452,97,l),
(452,92,l),
(452,88,l),
(451,82,l),
(452,78,l),
(452,72,l),
(451,67,l),
(452,58,l),
(450,56,l),
(446,54,l),
(445,45,l),
(443,41,l),
(441,36,l),
(440,30,l),
(439,25,l),
(438,19,l),
(435,9,l),
(436,4,l),
(440,0,l),
(444,-2,l)
);
}
);
width = 599;
},
{
associatedMasterId = "32AF036A-4181-4CD3-84B0-594A9F44F1BB";
layerId = "363B994B-20DB-44AC-B0D5-E5538A4D4A46";
width = 600;
}
);
unicode = (78,110);
},
{
glyphname = O;
kernLeft = O;
kernRight = O;
lastChange = "2023-08-05 19:35:05 +0000";
layers = (
{
layerId = "32AF036A-4181-4CD3-84B0-594A9F44F1BB";
shapes = (
{
closed = 1;
nodes = (
(321,-16,l),
(326,-16,l),
(331,-17,l),
(341,-16,l),
(345,-16,l),
(350,-14,l),
(355,-15,l),
(361,-14,l),
(366,-13,l),
(370,-12,l),
(375,-11,l),
(380,-10,l),
(386,-10,l),
(390,-7,l),
(394,-6,l),
(399,-5,l),
(404,-4,l),
(409,-2,l),
(414,-1,l),
(419,1,l),
(424,1,l),
(429,4,l),
(432,5,l),
(438,8,l),
(441,9,l),
(447,12,l),
(452,13,l),
(455,15,l),
(460,18,l),
(465,19,l),
(468,23,l),
(473,25,l),
(477,27,l),
(481,30,l),
(486,33,l),
(490,35,l),
(495,38,l),
(498,40,l),
(503,44,l),
(507,46,l),
(511,50,l),
(515,52,l),
(519,56,l),
(521,60,l),
(525,63,l),
(530,66,l),
(533,70,l),
(536,72,l),
(541,76,l),
(544,79,l),
(548,83,l),
(551,87,l),
(554,91,l),
(558,95,l),
(560,98,l),
(564,101,l),
(567,105,l),
(569,109,l),
(573,114,l),
(576,118,l),
(578,122,l),
(581,127,l),
(584,130,l),
(587,134,l),
(589,139,l),
(591,142,l),
(595,148,l),
(597,151,l),
(599,156,l),
(602,161,l),
(603,164,l),
(606,169,l),
(608,174,l),
(610,179,l),
(612,183,l),
(614,188,l),
(616,193,l),
(617,197,l),
(619,202,l),
(621,206,l),
(622,211,l),
(624,216,l),
(626,221,l),
(626,225,l),
(629,231,l),
(630,235,l),
(630,240,l),
(631,244,l),
(633,249,l),
(633,254,l),
(634,260,l),
(636,265,l),
(635,270,l),
(637,274,l),
(637,279,l),
(638,285,l),
(638,290,l),
(638,294,l),
(639,299,l),
(639,304,l),
(639,310,l),
(639,314,l),
(640,324,l),
(639,329,l),
(640,334,l),
(638,340,l),
(639,345,l),
(639,349,l),
(637,354,l),
(637,360,l),
(636,365,l),
(635,370,l),
(636,374,l),
(635,379,l),
(634,385,l),
(632,389,l),
(631,394,l),
(630,399,l),
(629,404,l),
(628,408,l),
(625,413,l),
(624,418,l),
(623,423,l),
(622,427,l),
(620,431,l),
(618,437,l),
(616,442,l),
(613,445,l),
(612,451,l),
(609,454,l),
(607,460,l),
(605,463,l),
(602,467,l),
(600,473,l),
(597,477,l),
(594,480,l),
(593,484,l),
(590,488,l),
(587,493,l),
(583,496,l),
(581,501,l),
(578,504,l),
(574,508,l),
(571,512,l),
(568,516,l),
(563,519,l),
(560,522,l),
(556,526,l),
(553,529,l),
(549,532,l),
(546,536,l),
(541,539,l),
(538,542,l),
(534,546,l),
(531,549,l),
(526,551,l),
(521,553,l),
(517,557,l),
(513,559,l),
(510,561,l),
(505,564,l),
(500,567,l),
(496,568,l),
(491,570,l),
(486,572,l),
(482,575,l),
(477,577,l),
(473,577,l),
(469,579,l),
(464,581,l),
(459,582,l),
(453,584,l),
(448,585,l),
(444,587,l),
(439,588,l),
(435,589,l),
(430,590,l),
(424,590,l),
(420,590,l),
(414,591,l),
(409,593,l),
(405,592,l),
(399,593,l),
(390,594,l),
(385,593,l),
(375,594,l),
(370,593,l),
(365,593,l),
(360,593,l),
(355,592,l),
(349,592,l),
(345,592,l),
(340,591,l),
(335,591,l),
(329,589,l),
(324,588,l),
(319,587,l),
(315,587,l),
(310,585,l),
(304,584,l),
(300,583,l),
(296,583,l),
(290,581,l),
(286,580,l),
(280,578,l),
(277,577,l),
(272,574,l),
(266,572,l),
(262,572,l),
(257,570,l),
(253,567,l),
(249,565,l),
(244,563,l),
(240,560,l),
(234,559,l),
(231,556,l),
(226,554,l),
(222,552,l),
(218,550,l),
(212,546,l),
(208,544,l),
(205,542,l),
(201,539,l),
(196,535,l),
(192,532,l),
(189,529,l),
(184,526,l),
(180,524,l),
(176,521,l),
(172,517,l),
(168,514,l),
(165,510,l),
(162,508,l),
(158,504,l),
(154,500,l),
(151,496,l),
(148,493,l),
(143,490,l),
(141,485,l),
(137,483,l),
(133,478,l),
(131,474,l),
(127,471,l),
(124,466,l),
(121,462,l),
(118,459,l),
(116,454,l),
(113,450,l),
(110,446,l),
(107,442,l),
(104,437,l),
(101,433,l),
(98,429,l),
(97,426,l),
(93,420,l),
(92,416,l),
(89,411,l),
(87,407,l),
(84,403,l),
(82,398,l),
(81,393,l),
(79,389,l),
(76,384,l),
(74,380,l),
(73,375,l),
(72,371,l),
(69,365,l),
(68,362,l),
(66,356,l),
(64,352,l),
(63,347,l),
(63,341,l),
(60,337,l),
(59,332,l),
(59,327,l),
(57,322,l),
(56,317,l),
(55,312,l),
(54,308,l),
(53,303,l),
(53,298,l),
(53,293,l),
(52,287,l),
(51,282,l),
(51,278,l),
(51,273,l),
(50,267,l),
(49,262,l),
(50,257,l),
(49,252,l),
(50,243,l),
(50,238,l),
(50,233,l),
(50,228,l),
(50,222,l),
(51,218,l),
(52,212,l),
(52,208,l),
(52,203,l),
(54,198,l),
(54,192,l),
(56,188,l),
(56,183,l),
(58,178,l),
(59,172,l),
(59,167,l),
(62,163,l),
(62,157,l),
(63,152,l),
(66,149,l),
(67,143,l),
(69,139,l),
(71,135,l),
(73,130,l),
(76,126,l),
(77,121,l),
(80,117,l),
(81,111,l),
(84,107,l),
(87,102,l),
(89,99,l),
(92,95,l),
(95,90,l),
(98,87,l),
(100,82,l),
(104,78,l),
(108,74,l),
(110,71,l),
(113,67,l),
(117,64,l),
(120,60,l),
(124,57,l),
(127,53,l),
(132,50,l),
(136,47,l),
(139,43,l),
(142,40,l),
(146,37,l),
(150,34,l),
(154,30,l),
(159,28,l),
(164,25,l),
(167,23,l),
(171,20,l),
(177,17,l),
(181,16,l),
(185,13,l),
(190,11,l),
(194,8,l),
(199,6,l),
(204,4,l),
(208,3,l),
(213,2,l),
(218,0,l),
(221,-1,l),
(226,-3,l),
(232,-4,l),
(236,-6,l),
(241,-8,l),
(245,-8,l),
(250,-9,l),
(256,-11,l),
(261,-12,l),
(265,-13,l),
(270,-13,l),
(275,-14,l),
(281,-14,l),
(285,-16,l),
(290,-15,l),
(295,-16,l),
(300,-17,l),
(305,-16,l),
(311,-17,l)
);
},
{
closed = 1;
nodes = (
(318,36,l),
(313,35,l),
(308,35,l),
(303,37,l),
(298,37,l),
(294,36,l),
(288,37,l),
(284,37,l),
(278,38,l),
(273,39,l),
(269,40,l),
(264,42,l),
(259,43,l),
(254,44,l),
(248,44,l),
(245,45,l),
(240,48,l),
(235,49,l),
(230,51,l),
(226,52,l),
(220,53,l),
(215,55,l),
(211,57,l),
(207,59,l),
(202,63,l),
(198,65,l),
(194,68,l),
(189,69,l),
(185,73,l),
(182,75,l),
(178,77,l),
(174,81,l),
(170,84,l),
(165,88,l),
(163,91,l),
(159,95,l),
(156,98,l),
(151,101,l),
(149,105,l),
(145,108,l),
(142,113,l),
(140,117,l),
(136,120,l),
(134,125,l),
(132,130,l),
(129,134,l),
(126,137,l),
(125,143,l),
(122,147,l),
(120,152,l),
(118,156,l),
(117,160,l),
(115,165,l),
(113,169,l),
(111,174,l),
(110,179,l),
(109,184,l),
(108,188,l),
(106,194,l),
(106,199,l),
(105,203,l),
(104,209,l),
(104,213,l),
(103,219,l),
(103,224,l),
(103,228,l),
(101,233,l),
(101,239,l),
(102,243,l),
(101,254,l),
(101,258,l),
(102,263,l),
(102,268,l),
(102,273,l),
(102,279,l),
(103,284,l),
(105,288,l),
(104,293,l),
(105,298,l),
(106,303,l),
(108,308,l),
(108,312,l),
(110,317,l),
(111,322,l),
(112,328,l),
(114,332,l),
(114,336,l),
(116,341,l),
(117,346,l),
(120,351,l),
(122,356,l),
(123,361,l),
(125,365,l),
(127,369,l),
(128,375,l),
(130,379,l),
(133,383,l),
(136,388,l),
(137,392,l),
(141,396,l),
(142,400,l),
(145,404,l),
(147,410,l),
(154,417,l),
(156,422,l),
(159,426,l),
(161,429,l),
(164,434,l),
(167,437,l),
(171,441,l),
(174,446,l),
(177,449,l),
(181,452,l),
(184,456,l),
(187,460,l),
(191,464,l),
(195,467,l),
(198,470,l),
(201,474,l),
(205,476,l),
(209,481,l),
(214,483,l),
(217,487,l),
(221,489,l),
(225,493,l),
(230,495,l),
(233,498,l),
(238,501,l),
(241,503,l),
(246,505,l),
(251,509,l),
(255,510,l),
(259,513,l),
(264,516,l),
(269,518,l),
(273,520,l),
(278,521,l),
(281,523,l),
(287,524,l),
(292,527,l),
(296,528,l),
(301,530,l),
(305,531,l),
(311,532,l),
(316,534,l),
(319,534,l),
(324,535,l),
(329,536,l),
(335,538,l),
(340,538,l),
(349,539,l),
(354,539,l),
(364,540,l),
(370,541,l),
(380,541,l),
(384,541,l),
(395,540,l),
(399,540,l),
(405,538,l),
(410,539,l),
(415,538,l),
(420,536,l),
(425,536,l),
(430,536,l),
(434,534,l),
(439,533,l),
(444,532,l),
(449,531,l),
(453,528,l),
(457,527,l),
(463,525,l),
(467,523,l),
(472,522,l),
(476,519,l),
(481,517,l),
(486,514,l),
(489,512,l),
(494,509,l),
(497,507,l),
(502,504,l),
(506,502,l),
(510,499,l),
(513,496,l),
(517,493,l),
(521,488,l),
(524,486,l),
(528,481,l),
(532,479,l),
(535,475,l),
(538,471,l),
(541,466,l),
(544,464,l),
(547,458,l),
(550,455,l),
(552,451,l),
(554,446,l),
(557,443,l),
(560,437,l),
(561,434,l),
(565,428,l),
(567,425,l),
(568,420,l),
(569,415,l),
(571,411,l),
(573,406,l),
(574,402,l),
(577,396,l),
(577,391,l),
(578,386,l),
(579,382,l),
(582,377,l),
(583,373,l),
(583,367,l),
(584,362,l),
(585,358,l),
(585,352,l),
(585,348,l),
(587,342,l),
(587,338,l),
(586,333,l),
(587,327,l),
(587,323,l),
(587,318,l),
(587,308,l),
(588,302,l),
(586,297,l),
(586,293,l),
(586,289,l),
(586,283,l),
(585,278,l),
(584,274,l),
(582,268,l),
(581,264,l),
(580,258,l),
(579,254,l),
(579,249,l),
(578,244,l),
(576,240,l),
(575,235,l),
(572,230,l),
(572,225,l),
(569,221,l),
(568,217,l),
(567,211,l),
(565,206,l),
(562,203,l),
(560,197,l),
(559,193,l),
(557,189,l),
(553,185,l),
(551,179,l),
(550,176,l),
(546,172,l),
(544,167,l),
(541,163,l),
(540,158,l),
(537,155,l),
(534,151,l),
(531,145,l),
(529,142,l),
(526,137,l),
(522,134,l),
(519,131,l),
(516,126,l),
(513,122,l),
(510,119,l),
(506,115,l),
(502,111,l),
(499,107,l),
(496,104,l),
(493,100,l),
(488,98,l),
(485,94,l),
(480,91,l),
(476,88,l),
(473,85,l),
(470,82,l),
(464,78,l),
(460,76,l),
(456,74,l),
(452,71,l),
(448,68,l),
(443,65,l),
(439,63,l),
(435,61,l),
(431,58,l),
(426,57,l),
(422,54,l),
(417,53,l),
(412,50,l),
(408,50,l),
(403,47,l),
(397,46,l),
(392,45,l),
(388,43,l),
(383,42,l),
(378,42,l),
(373,40,l),
(369,39,l),
(364,38,l),
(359,37,l),
(354,37,l),
(349,36,l),
(343,37,l),
(334,36,l),
(328,35,l)
);
}
);
width = 690;
},
{
associatedMasterId = "32AF036A-4181-4CD3-84B0-594A9F44F1BB";
layerId = "363B994B-20DB-44AC-B0D5-E5538A4D4A46";
width = 600;
}
);
unicode = (79,111);
},
{
glyphname = Oacute;
kernLeft = O;
kernRight = O;
lastChange = "2023-08-05 19:35:05 +0000";
layers = (
{
layerId = "32AF036A-4181-4CD3-84B0-594A9F44F1BB";
shapes = (
{
ref = O;
},
{
closed = 1;
nodes = (
(398,677,l),
(400,680,l),
(410,692,l),
(414,696,l),
(418,701,l),
(420,703,l),
(424,708,l),
(426,711,l),
(431,716,l),
(434,720,l),
(436,724,l),
(446,735,l),
(449,738,l),
(454,742,l),
(457,746,l),
(459,751,l),
(465,758,l),
(467,763,l),
(467,767,l),
(465,771,l),
(457,779,l),
(455,782,l),
(451,784,l),
(448,788,l),
(440,794,l),
(436,795,l),
(430,795,l),
(426,792,l),
(420,785,l),
(416,781,l),
(412,778,l),
(409,773,l),
(407,769,l),
(403,765,l),
(399,762,l),
(396,758,l),
(394,755,l),
(390,750,l),
(387,747,l),
(384,742,l),
(380,738,l),
(377,735,l),
(374,731,l),
(371,728,l),
(367,723,l),
(364,719,l),
(361,716,l),
(357,711,l),
(352,703,l),
(349,699,l),
(350,694,l),
(352,691,l),
(359,683,l),
(363,681,l),
(367,677,l),
(369,674,l),
(378,669,l),
(382,667,l),
(387,667,l),
(391,670,l)
);
}
);
width = 690;
},
{
associatedMasterId = "32AF036A-4181-4CD3-84B0-594A9F44F1BB";
layerId = "363B994B-20DB-44AC-B0D5-E5538A4D4A46";
width = 600;
}
);
unicode = (211,243);
},
{
glyphname = Odieresis;
kernLeft = O;
kernRight = O;
lastChange = "2023-08-05 19:35:05 +0000";
layers = (
{
layerId = "32AF036A-4181-4CD3-84B0-594A9F44F1BB";
shapes = (
{
ref = O;
},
{
closed = 1;
nodes = (
(492,681,l),
(494,686,l),
(494,690,l),
(496,695,l),
(496,701,l),
(497,705,l),
(498,710,l),
(499,715,l),
(501,725,l),
(502,730,l),
(502,734,l),
(504,740,l),
(503,744,l),
(505,754,l),
(507,760,l),
(507,765,l),
(509,770,l),
(510,774,l),
(511,785,l),
(509,790,l),
(506,793,l),
(503,796,l),
(493,797,l),
(489,799,l),
(484,799,l),
(480,801,l),
(471,801,l),
(466,801,l),
(461,798,l),
(459,794,l),
(458,783,l),
(456,778,l),
(456,773,l),
(454,768,l),
(454,764,l),
(453,759,l),
(452,753,l),
(451,749,l),
(451,743,l),
(450,739,l),
(448,734,l),
(447,730,l),
(446,725,l),
(447,719,l),
(446,715,l),
(445,709,l),
(444,704,l),
(442,699,l),
(441,695,l),
(441,690,l),
(439,679,l),
(441,675,l),
(444,671,l),
(447,668,l),
(457,667,l),
(462,666,l),
(465,665,l),
(471,663,l),
(479,662,l),
(485,664,l),
(489,666,l),
(491,670,l)
);
},
{
closed = 1;
nodes = (
(365,683,l),
(366,688,l),
(368,693,l),
(367,698,l),
(369,708,l),
(370,712,l),
(372,717,l),
(371,721,l),
(373,726,l),
(374,731,l),
(374,737,l),
(374,742,l),
(376,746,l),
(376,750,l),
(378,755,l),
(378,760,l),
(379,766,l),
(380,771,l),
(380,775,l),
(381,784,l),
(380,789,l),
(378,794,l),
(373,796,l),
(365,797,l),
(360,798,l),
(355,800,l),
(350,801,l),
(342,802,l),
(336,801,l),
(333,797,l),
(331,793,l),
(328,783,l),
(328,780,l),
(327,774,l),
(326,770,l),
(324,765,l),
(324,760,l),
(324,754,l),
(322,750,l),
(321,746,l),
(321,741,l),
(321,736,l),
(319,730,l),
(318,725,l),
(318,722,l),
(316,716,l),
(317,711,l),
(316,707,l),
(314,701,l),
(314,697,l),
(312,693,l),
(311,682,l),
(313,678,l),
(315,674,l),
(319,672,l),
(329,670,l),
(333,668,l),
(342,666,l),
(352,666,l),
(358,667,l),
(362,670,l),
(364,673,l)
);
}
);
width = 690;
},
{
associatedMasterId = "32AF036A-4181-4CD3-84B0-594A9F44F1BB";
layerId = "363B994B-20DB-44AC-B0D5-E5538A4D4A46";
width = 600;
}
);
unicode = (214,246);
},
{
glyphname = Oslash;
kernLeft = O;
kernRight = O;
lastChange = "2023-08-05 19:35:05 +0000";
layers = (
{
layerId = "32AF036A-4181-4CD3-84B0-594A9F44F1BB";
shapes = (
{
ref = O;
},
{
closed = 1;
nodes = (
(111,22,l),
(115,25,l),
(118,28,l),
(122,32,l),
(127,35,l),
(130,38,l),
(135,40,l),
(138,44,l),
(143,47,l),
(145,51,l),
(149,53,l),
(154,58,l),
(158,61,l),
(161,63,l),
(165,67,l),
(170,69,l),
(174,73,l),
(177,77,l),
(181,80,l),
(184,82,l),
(189,87,l),
(193,89,l),
(197,92,l),
(200,96,l),
(203,99,l),
(207,103,l),
(211,105,l),
(215,109,l),
(220,112,l),
(224,116,l),
(228,118,l),
(232,121,l),
(234,124,l),
(238,129,l),
(243,131,l),
(247,134,l),
(251,138,l),
(254,142,l),
(259,144,l),
(262,148,l),
(265,150,l),
(273,157,l),
(282,164,l),
(284,167,l),
(288,170,l),
(293,174,l),
(295,176,l),
(300,180,l),
(304,184,l),
(308,187,l),
(311,189,l),
(314,193,l),
(319,197,l),
(321,200,l),
(329,207,l),
(333,209,l),
(337,213,l),
(340,216,l),
(343,219,l),
(347,223,l),
(351,226,l),
(355,230,l),
(359,233,l),
(362,236,l),
(373,246,l),
(378,249,l),
(381,254,l),
(385,257,l),
(388,260,l),
(391,263,l),
(402,273,l),
(407,276,l),
(409,281,l),
(413,284,l),
(417,286,l),
(421,290,l),
(424,293,l),
(428,297,l),
(431,301,l),
(436,304,l),
(439,307,l),
(461,328,l),
(464,332,l),
(468,334,l),
(472,338,l),
(475,341,l),
(478,346,l),
(482,348,l),
(487,352,l),
(490,355,l),
(493,360,l),
(497,363,l),
(500,365,l),
(504,370,l),
(514,380,l),
(518,383,l),
(522,386,l),
(525,390,l),
(528,394,l),
(532,397,l),
(536,401,l),
(539,405,l),
(544,409,l),
(546,412,l),
(551,416,l),
(553,419,l),
(558,422,l),
(561,426,l),
(565,430,l),
(568,432,l),
(572,437,l),
(574,439,l),
(578,444,l),
(581,447,l),
(585,450,l),
(589,454,l),
(593,458,l),
(600,466,l),
(602,468,l),
(606,473,l),
(610,475,l),
(614,479,l),
(617,484,l),
(620,486,l),
(624,491,l),
(627,494,l),
(631,497,l),
(634,502,l),
(637,504,l),
(641,509,l),
(644,513,l),
(648,515,l),
(654,523,l),
(656,527,l),
(655,532,l),
(654,538,l),
(646,545,l),
(642,549,l),
(638,551,l),
(630,559,l),
(626,559,l),
(621,559,l),
(616,558,l),
(610,550,l),
(607,546,l),
(602,543,l),
(599,540,l),
(595,536,l),
(592,532,l),
(588,529,l),
(585,525,l),
(581,521,l),
(577,517,l),
(575,513,l),
(570,510,l),
(568,506,l),
(564,502,l),
(560,499,l),
(557,494,l),
(553,491,l),
(550,488,l),
(541,480,l),
(538,477,l),
(534,472,l),
(531,470,l),
(528,466,l),
(524,462,l),
(521,458,l),
(516,454,l),
(514,451,l),
(510,447,l),
(505,444,l),
(503,441,l),
(499,436,l),
(495,432,l),
(491,429,l),
(488,425,l),
(483,423,l),
(480,418,l),
(477,414,l),
(472,411,l),
(470,408,l),
(465,405,l),
(462,401,l),
(459,397,l),
(455,393,l),
(450,390,l),
(447,387,l),
(443,383,l),
(440,380,l),
(436,376,l),
(433,372,l),
(428,368,l),
(425,364,l),
(420,361,l),
(417,357,l),
(414,354,l),
(410,351,l),
(407,347,l),
(402,343,l),
(398,341,l),
(394,336,l),
(390,333,l),
(388,329,l),
(384,327,l),
(379,322,l),
(375,320,l),
(373,315,l),
(369,312,l),
(364,308,l),
(361,306,l),
(357,301,l),
(354,298,l),
(350,294,l),
(345,291,l),
(341,288,l),
(339,284,l),
(335,280,l),
(330,278,l),
(326,274,l),
(322,270,l),
(318,266,l),
(315,264,l),
(312,261,l),
(308,257,l),
(304,253,l),
(299,249,l),
(295,247,l),
(292,242,l),
(289,239,l),
(284,236,l),
(281,233,l),
(276,230,l),
(273,225,l),
(268,222,l),
(257,212,l),
(254,209,l),
(249,205,l),
(246,202,l),
(235,192,l),
(231,188,l),
(226,186,l),
(222,182,l),
(219,178,l),
(214,174,l),
(207,168,l),
(203,166,l),
(199,162,l),
(196,159,l),
(191,156,l),
(187,152,l),
(184,149,l),
(181,145,l),
(176,141,l),
(168,135,l),
(165,132,l),
(161,129,l),
(157,125,l),
(154,123,l),
(149.004,120.01,l),
(146,117,l),
(141,113,l),
(138,110,l),
(135,107,l),
(131,104,l),
(127,100,l),
(123,98,l),
(120,95,l),
(113,90,l),
(110,86,l),
(105,83,l),
(103,80,l),
(99,77,l),
(96,76,l),
(93,73,l),
(89,70,l),
(87,67,l),
(83,65,l),
(80,64,l),
(77,60,l),
(71,55,l),
(70,52,l),
(69,46,l),
(70,41,l),
(76,34,l),
(80,29,l),
(83,24,l),
(89,17,l),
(93,14,l),
(99,15,l),
(104,16,l)
);
}
);
width = 690;
},
{
associatedMasterId = "32AF036A-4181-4CD3-84B0-594A9F44F1BB";
layerId = "363B994B-20DB-44AC-B0D5-E5538A4D4A46";
width = 600;
}
);
unicode = (216,248);
},
{
glyphname = P;
kernLeft = H;
kernRight = P;
lastChange = "2023-08-06 09:05:37 +0000";
layers = (
{
layerId = "32AF036A-4181-4CD3-84B0-594A9F44F1BB";
shapes = (
{
closed = 1;
nodes = (
(123,17,l),
(123,23,l),
(123,28,l),
(124,32,l),
(123,38,l),
(125,43,l),
(124,47,l),
(124,52,l),
(125,57,l),
(126,62,l),
(125,67,l),
(126,77,l),
(126,83,l),
(127,88,l),
(126,93,l),
(128,98,l),
(127,101.994,l),
(128,108,l),
(128,113,l),
(128,118,l),
(128,122,l),
(128,127,l),
(129,133,l),
(129,138,l),
(140,137,l),
(144,139,l),
(150,138,l),
(155,139,l),
(159,139,l),
(165,140,l),
(170,140,l),
(174,141,l),
(179,143,l),
(185,144,l),
(189,144,l),
(194,145,l),
(199,147,l),
(204,149,l),
(209,151,l),
(213,151,l),
(218,153,l),
(223,156,l),
(228,157,l),
(231,160,l),
(237,162,l),
(241,163,l),
(245,166,l),
(249,168,l),
(254,170,l),
(259,173,l),
(262,175,l),
(267,178,l),
(270,181,l),
(275,184,l),
(279,187,l),
(282,191,l),
(286,193,l),
(290,197,l),
(294,201,l),
(297,204,l),
(301,206,l),
(304,210,l),
(309,214,l),
(312,217,l),
(314,221,l),
(317,225,l),
(320,230,l),
(324,234,l),
(327,237,l),
(330,242,l),
(332,246,l),
(335,250,l),
(338,254,l),
(340,258,l),
(342,263,l),
(346,266,l),
(348,272,l),
(350,275,l),
(351,280,l),
(353,284,l),
(355,290,l),
(358,295,l),
(359,298,l),
(360,303,l),
(362,309,l),
(365,313,l),
(365,318,l),
(366,322,l),
(368,327,l),
(369,332,l),
(371,338,l),
(372,341,l),
(373,346,l),
(374,352,l),
(373,357,l),
(375,361,l),
(374,366,l),
(376,372,l),
(375,377,l),
(377,382,l),
(376,386,l),
(376,392,l),
(377,401,l),
(377,406,l),
(376,412,l),
(375,416,l),
(375,422,l),
(374,427,l),
(374,432,l),
(373,437,l),
(373,441,l),
(371,447,l),
(369,452,l),
(368,457,l),
(368,462,l),
(365,466,l),
(364,470,l),
(361,476,l),
(359,480,l),
(358,484,l),
(355,489,l),
(352,494,l),
(351,498,l),
(347,501,l),
(344,506,l),
(339,513,l),
(336,517,l),
(332,521,l),
(328,523,l),
(325,527,l),
(320,530,l),
(316,533,l),
(313,536,l),
(308,539,l),
(305,542,l),
(300,545,l),
(296,548,l),
(291,549,l),
(287,553,l),
(283,555,l),
(277,556,l),
(273,559,l),
(269,560,l),
(264,561,l),
(259,563,l),
(253,565,l),
(249,567,l),
(244,567,l),
(240,568,l),
(234,569,l),
(229,570,l),
(224,571,l),
(220,572,l),
(214,574,l),
(210,575,l),
(204,574,l),
(200,575,l),
(195,575,l),
(190,576,l),
(184,576,l),
(179,578,l),
(174,578,l),
(169,577,l),
(164,578,l),
(158,578,l),
(153,577,l),
(148,577,l),
(143,578,l),
(138,577,l),
(133,577,l),
(124,578,l),
(114,576,l),
(110,575,l),
(107,571,l),
(104,567,l),
(103,557,l),
(103,552,l),
(103,547,l),
(102,542,l),
(101,532,l),
(102,527,l),
(101,523,l),
(101,517,l),
(100,512,l),
(100,508,l),
(101,502,l),
(99,497,l),
(99,493,l),
(99,487,l),
(98,482,l),
(98,478,l),
(99,472,l),
(98,468,l),
(97,463,l),
(97,457,l),
(97,453,l),
(96,448,l),
(96,442,l),
(95,433,l),
(95,429,l),
(96,423,l),
(95,419,l),
(94,404,l),
(93,398,l),
(94,393,l),
(93,388,l),
(93,383,l),
(92,379,l),
(93,374,l),
(91,369,l),
(92,363,l),
(91,359,l),
(91,353,l),
(90,348,l),
(90,344,l),
(91,339,l),
(89,333,l),
(89,329,l),
(90,324,l),
(88,319,l),
(89,313,l),
(89,308,l),
(87,304,l),
(88,299,l),
(87,293,l),
(87,289,l),
(86,283,l),
(86,279,l),
(86,273,l),
(86,268,l),
(86,264,l),
(86,260,l),
(84,254,l),
(85,249,l),
(85,245,l),
(85,239,l),
(84,234,l),
(83,230,l),
(84,224,l),
(82,219,l),
(82,214,l),
(83,209,l),
(82,204,l),
(81,200,l),
(81,195,l),
(80,189,l),
(80,185,l),
(81,179,l),
(81,174,l),
(79,169,l),
(80,165,l),
(79,159,l),
(79,155,l),
(78,140,l),
(77,134,l),
(78,130,l),
(77,125,l),
(76,120,l),
(77,114,l),
(77,110,l),
(75,104,l),
(76,100,l),
(76,95,l),
(74,90,l),
(75,85,l),
(75,81,l),
(75,75,l),
(73,70,l),
(73,66,l),
(74,60,l),
(73,56,l),
(73,50,l),
(72,46,l),
(72,41,l),
(71,35,l),
(71,25,l),
(71,21,l),
(70,11,l),
(72,7,l),
(75,3,l),
(79,1,l),
(91,-1,l),
(95,-1,l),
(102,-1,l),
(112,-1,l),
(115,0,l),
(120,4,l),
(121,7,l)
);
},
{
closed = 1;
nodes = (
(133,194,l),
(134,200,l),
(134,204,l),
(135,210,l),
(134,215,l),
(136,219,l),
(135,225,l),
(136,230,l),
(136,234,l),
(137,239,l),
(136,245,l),
(137,249,l),
(137,253,l),
(137,259,l),
(138,263,l),
(139,268,l),
(138,274,l),
(139,278,l),
(140,283,l),
(140,289,l),
(140,293,l),
(140,299,l),
(141,303,l),
(140,308,l),
(141,313,l),
(141,319,l),
(142,323,l),
(141,329,l),
(143,333,l),
(142,338,l),
(142,344,l),
(142,348,l),
(143,354,l),
(143,359,l),
(144,362,l),
(145,367,l),
(144,372,l),
(144,377,l),
(145,382,l),
(145,387,l),
(145,392,l),
(146,398,l),
(147,403,l),
(146,407,l),
(147,417,l),
(148,423,l),
(148,428,l),
(147,433,l),
(149,437,l),
(149,442,l),
(148,447,l),
(149,452,l),
(149,458,l),
(150,462,l),
(150,468,l),
(150,471,l),
(151,477,l),
(150,482,l),
(152,486,l),
(151,491,l),
(151,497,l),
(153,502,l),
(153,507,l),
(153,511,l),
(153,516,l),
(152,522,l),
(154,528,l),
(161,527,l),
(168,527,l),
(179,526,l),
(183,525,l),
(194,524,l),
(198,524,l),
(203,523,l),
(209,523,l),
(213,521,l),
(218,521,l),
(223,519,l),
(228,518,l),
(232,517,l),
(237,515,l),
(242,514,l),
(246,513,l),
(251,511,l),
(256,508,l),
(261,506,l),
(265,504,l),
(269,502,l),
(273,499,l),
(277,497,l),
(282,494,l),
(286,490,l),
(290,488,l),
(292,485,l),
(297,480,l),
(300,477,l),
(302,474,l),
(305,468,l),
(307,464,l),
(311,460,l),
(312,455,l),
(315,451,l),
(317,447,l),
(317,442,l),
(319,437,l),
(320,433,l),
(322,428,l),
(323,422,l),
(322,418,l),
(324,413,l),
(324,407,l),
(324,402,l),
(324,397,l),
(324,387,l),
(324,382,l),
(324,377,l),
(323,372,l),
(323,368,l),
(323,362,l),
(321,358,l),
(321,352,l),
(320,347,l),
(319,343,l),
(317,339,l),
(316,333,l),
(315,329,l),
(313,324,l),
(312,319,l),
(311,314,l),
(309,309,l),
(306,305,l),
(304,300,l),
(302,297,l),
(300,292,l),
(298,287,l),
(296,283,l),
(293,278,l),
(289,274,l),
(287,271,l),
(284,266,l),
(282,262,l),
(278,259,l),
(276,255,l),
(271,251,l),
(269,248,l),
(265,244,l),
(262,241,l),
(257,237,l),
(253,233,l),
(249,230,l),
(245,228,l),
(241,225,l),
(238,222,l),
(233,218,l),
(229,216,l),
(225,214,l),
(220,211,l),
(216,209,l),
(211,206,l),
(207,205,l),
(203,203,l),
(198,201,l),
(193,200,l),
(189,198,l),
(184,196,l),
(178,196,l),
(174,194,l),
(169,194,l),
(164,193,l),
(159,192,l),
(154,192,l),
(141,190,l),
(133,190,l)
);
}
);
width = 427;
},
{
associatedMasterId = "32AF036A-4181-4CD3-84B0-594A9F44F1BB";
layerId = "363B994B-20DB-44AC-B0D5-E5538A4D4A46";
width = 600;
}
);
unicode = (80,112);
},
{
glyphname = Thorn;
kernLeft = H;
kernRight = P;
lastChange = "2023-08-05 19:35:05 +0000";
layers = (
{
layerId = "32AF036A-4181-4CD3-84B0-594A9F44F1BB";
shapes = (
{
closed = 1;
nodes = (
(110,120,l),
(115,121,l),
(119,120,l),
(125,120,l),
(130,121,l),
(134,120,l),
(140,121,l),
(145,121,l),
(150,123,l),
(155,122,l),
(159,123,l),
(165,124,l),
(169,124,l),
(174,125,l),
(180,126,l),
(184,127,l),
(189,129,l),
(195,130,l),
(199,131,l),
(205,132,l),
(209,133,l),
(214,134,l),
(219,135,l),
(224,137,l),
(229,139,l),
(234,140,l),
(239,142,l),
(242,143,l),
(248,144,l),
(253,146,l),
(256,149,l),
(261,151,l),
(267,152,l),
(270,155,l),
(276,157,l),
(279,159,l),
(284,160,l),
(288,163,l),
(293,166,l),
(297,168,l),
(301,170,l),
(305,172,l),
(311,175,l),
(315,178,l),
(319,182,l),
(322,185,l),
(326,187,l),
(330,191,l),
(334,193,l),
(337,197,l),
(342,200,l),
(345,204,l),
(349,206,l),
(352,210,l),
(355,214,l),
(359,217,l),
(363,221,l),
(365,225,l),
(368,229,l),
(370,234,l),
(374,237,l),
(377,242,l),
(378,246,l),
(382,251,l),
(383,255,l),
(385,260,l),
(387,264,l),
(389,268,l),
(391,273,l),
(392,278,l),
(393,283,l),
(394,288,l),
(396,291,l),
(397,296,l),
(396,302,l),
(398,307,l),
(398,311,l),
(398,321,l),
(397,326,l),
(397,331,l),
(397,337,l),
(396,341,l),
(394,346,l),
(393,351,l),
(391,355,l),
(391,360,l),
(389,366,l),
(386,370,l),
(384,375,l),
(383,378,l),
(380,382,l),
(377,387,l),
(375,392,l),
(371,396,l),
(369,400,l),
(365,403,l),
(362,406,l),
(358,411,l),
(355,413,l),
(351,418,l),
(346,421,l),
(343,423,l),
(338,427,l),
(335,429,l),
(331,431,l),
(327,434,l),
(322,438,l),
(317,440,l),
(313,443,l),
(308,445,l),
(304,447,l),
(300,449,l),
(294,450,l),
(291,453,l),
(285,454,l),
(280,456,l),
(277,458,l),
(272,459,l),
(267,460,l),
(261,462,l),
(256,464,l),
(251,464,l),
(246,465,l),
(242,466,l),
(238,467,l),
(233,468,l),
(227,470,l),
(223,470,l),
(218,471,l),
(213,473,l),
(208,473,l),
(202,473,l),
(197,475,l),
(192,475,l),
(188,476,l),
(183,476,l),
(172,477,l),
(167,476,l),
(163,477,l),
(156,477,l),
(142,475,l),
(139,471,l),
(138,467,l),
(137,455,l),
(137,451,l),
(138,445,l),
(138,435,l),
(140,430,l),
(144,426,l),
(149,426,l),
(159,425,l),
(169,425,l),
(174,424,l),
(183,423,l),
(189,424,l),
(194,423,l),
(198,422,l),
(204,422,l),
(209,420,l),
(213,420,l),
(218,419,l),
(224,418,l),
(228,418,l),
(234,416,l),
(238,415,l),
(244,413,l),
(249,412,l),
(253,411,l),
(262,407,l),
(268,407,l),
(273,404,l),
(278,403,l),
(282,400,l),
(287,399,l),
(290,396,l),
(296,394,l),
(299,390,l),
(303,389,l),
(307,386,l),
(312,383,l),
(316,378,l),
(319,376,l),
(323,372,l),
(327,369,l),
(330,365,l),
(333,361,l),
(335,355,l),
(337,351,l),
(340,347,l),
(341,343,l),
(343,337,l),
(343,333,l),
(343,328,l),
(344,322,l),
(344,313,l),
(344,308,l),
(344,302,l),
(342,298,l),
(342,293,l),
(339,288,l),
(338,284,l),
(337,279,l),
(334,275,l),
(333,271,l),
(330,265,l),
(326,261,l),
(325,257,l),
(322,254,l),
(318,250,l),
(314,247,l),
(311,242,l),
(307,239,l),
(303,235,l),
(300,233,l),
(295,229,l),
(292,226,l),
(288,224,l),
(283,221,l),
(279,218,l),
(275,216,l),
(270,212,l),
(267,211,l),
(263,208,l),
(257,205,l),
(253,203,l),
(248,202,l),
(243,199,l),
(240,197,l),
(235,196,l),
(230,195,l),
(226,193,l),
(221,190,l),
(215,190,l),
(210,187,l),
(207,186,l),
(201,186,l),
(197,184,l),
(191,182,l),
(186,181,l),
(181,180,l),
(177,179,l),
(172,179,l),
(168,177,l),
(162,176,l),
(158,176,l),
(153,175,l),
(147,174,l),
(143,174,l),
(137,174,l),
(133,174,l),
(128,173,l),
(122,172,l),
(117,172,l),
(112,172,l),
(102,172,l),
(97,170,l),
(95,167,l),
(93,162,l),
(91,153,l),
(90,142,l),
(90,131,l),
(92,127,l),
(96,122,l),
(99,120,l)
);
},
{
closed = 1;
nodes = (
(123,16,l),
(123,21,l),
(123,25,l),
(124,30,l),
(123,36,l),
(125,41,l),
(125,46,l),
(124,50,l),
(125,55,l),
(126,60,l),
(125,66,l),
(126,70,l),
(126,76,l),
(127,80,l),
(127,86,l),
(127,90,l),
(127,95,l),
(128,100,l),
(127,105,l),
(129,110,l),
(128,115,l),
(129,121,l),
(130,125,l),
(130,131,l),
(129,135,l),
(130,140,l),
(131,144,l),
(130,149,l),
(130,155,l),
(131,160,l),
(131,164,l),
(131,170,l),
(131,175,l),
(133,179,l),
(132,184,l),
(133,189,l),
(134,199,l),
(133,204,l),
(134,210,l),
(134,214,l),
(135,220,l),
(135,224,l),
(136,230,l),
(136,235,l),
(135,239,l),
(136,244,l),
(137,249,l),
(136,254,l),
(137,259,l),
(138,264,l),
(137,269,l),
(137,275,l),
(138,280,l),
(139,284,l),
(138,290,l),
(139,300,l),
(140,304,l),
(139,310,l),
(141,315,l),
(141,320,l),
(141,324,l),
(140,330,l),
(141,335,l),
(142,340,l),
(143,350,l),
(142,354,l),
(142,360,l),
(143,364,l),
(143,369,l),
(143,375,l),
(143,380,l),
(145,384,l),
(144,389,l),
(145,395,l),
(145,400,l),
(146,404,l),
(145,409,l),
(146,414,l),
(147,419,l),
(147,425,l),
(147,428,l),
(148,433,l),
(148,439,l),
(147,443,l),
(148,448,l),
(149,454,l),
(148,458,l),
(148,463,l),
(149,469,l),
(149,473,l),
(149,479,l),
(149,484,l),
(151,489,l),
(151,494,l),
(151,498,l),
(151,504,l),
(151,509,l),
(152,513,l),
(152,519,l),
(152,529,l),
(153,533,l),
(154,539,l),
(153,544,l),
(153,548,l),
(154,554,l),
(154,558,l),
(154,569,l),
(152,573,l),
(149,577,l),
(146,578,l),
(135,579,l),
(130,581,l),
(123,581,l),
(114,580,l),
(110,579,l),
(106,575,l),
(104,571,l),
(103,562,l),
(103,557,l),
(101,552,l),
(101,546,l),
(101,541,l),
(101,536,l),
(101,531,l),
(101,527,l),
(100,521,l),
(100,516,l),
(100,512,l),
(100,506,l),
(99,496,l),
(98,491,l),
(97,487,l),
(97,482,l),
(98,476,l),
(98,472,l),
(96,467,l),
(96,462,l),
(97,457,l),
(96,451,l),
(95,446,l),
(95,442,l),
(95,436,l),
(94,433,l),
(94,428,l),
(94,422,l),
(94,417,l),
(93,413,l),
(93,407,l),
(94,403,l),
(92,397,l),
(92,392,l),
(93,387,l),
(91,382,l),
(91,378,l),
(91,372,l),
(92,368,l),
(90,363,l),
(91,357,l),
(91,353,l),
(89,348,l),
(90,343,l),
(90,337,l),
(89,333,l),
(88,327,l),
(88,323,l),
(88,318,l),
(88,313,l),
(87,298,l),
(86,292,l),
(86,287,l),
(86,283,l),
(85,278,l),
(86,272,l),
(85,267,l),
(84,263,l),
(84,258,l),
(85,253,l),
(85,248,l),
(83,243,l),
(83,238,l),
(83,232,l),
(83,228,l),
(83,222,l),
(82,218,l),
(81,213,l),
(82,207,l),
(81,202,l),
(82,198,l),
(80,193,l),
(80,187,l),
(81,182,l),
(80,172,l),
(80,168,l),
(80,162,l),
(79,158,l),
(78,152,l),
(78,149,l),
(77,144,l),
(78,138,l),
(77,133,l),
(78,128,l),
(76,123,l),
(76,119,l),
(76,113,l),
(76,109,l),
(75,104,l),
(76,98,l),
(76,93,l),
(75,89,l),
(74,83,l),
(74,78,l),
(73,74,l),
(73,68,l),
(73,64,l),
(73,58,l),
(73,53,l),
(72,48,l),
(72,43,l),
(72,38,l),
(71,33,l),
(72,29,l),
(71,23,l),
(71,19,l),
(71,8,l),
(72,5,l),
(76,0,l),
(79,-1,l),
(90,-3,l),
(95,-3,l),
(102,-3,l),
(112,-4,l),
(116,-2,l),
(119,2,l),
(121,6,l)
);
}
);
width = 448;
},
{
associatedMasterId = "32AF036A-4181-4CD3-84B0-594A9F44F1BB";
layerId = "363B994B-20DB-44AC-B0D5-E5538A4D4A46";
width = 600;
}
);
unicode = (222,254);
},
{
glyphname = Q;
kernLeft = O;
kernRight = O;
lastChange = "2023-08-05 19:35:05 +0000";
layers = (
{
layerId = "32AF036A-4181-4CD3-84B0-594A9F44F1BB";
shapes = (
{
closed = 1;
nodes = (
(327,-18,l),
(332,-18,l),
(337,-18,l),
(342,-17,l),
(347,-17,l),
(353,-17,l),
(357,-17,l),
(363,-16,l),
(367,-16,l),
(372,-15,l),
(377,-13,l),
(383,-12,l),
(387,-12,l),
(392,-11,l),
(397,-10,l),
(401,-7,l),
(407,-7,l),
(412,-4,l),
(416,-3,l),
(420,-2,l),
(425,0,l),
(430,1,l),
(434,4,l),
(440,5,l),
(443,8,l),
(448,9,l),
(453,12,l),
(458,14,l),
(462,17,l),
(467,18,l),
(471,22,l),
(474,23,l),
(480,27,l),
(484,29,l),
(487,32,l),
(492,34,l),
(495,38,l),
(499,39,l),
(505,43,l),
(507,46,l),
(512,49,l),
(516,52,l),
(520,55,l),
(524,58,l),
(528,62,l),
(531,65,l),
(534,69,l),
(538,73,l),
(541,76,l),
(544,79,l),
(548,84,l),
(551,87,l),
(556,90,l),
(559,94,l),
(561,98,l),
(565,103,l),
(567,106,l),
(571,110,l),
(573,114,l),
(576,118,l),
(579,123,l),
(582,126,l),
(585,131,l),
(587,134,l),
(590,139,l),
(592,144,l),
(595,147,l),
(597,153,l),
(601,157,l),
(603,161,l),
(605,165,l),
(606,169,l),
(608,175,l),
(610,179,l),
(613,183,l),
(614,189,l),
(616,193,l),
(618,197,l),
(619,202,l),
(622,207,l),
(623,212,l),
(625,216,l),
(625,222,l),
(628,227,l),
(629,231,l),
(629,235,l),
(630,240,l),
(631,245,l),
(633,250,l),
(634,255,l),
(635,261,l),
(636,266,l),
(635,271,l),
(637,275,l),
(638,280,l),
(638,285,l),
(637,290,l),
(638,295,l),
(638,300,l),
(639,306,l),
(638,316,l),
(639,321,l),
(639,325,l),
(638,330,l),
(637,335,l),
(637,341,l),
(636,346,l),
(636,350,l),
(636,355,l),
(636,360,l),
(634,365,l),
(633,370,l),
(632,376,l),
(632,380,l),
(632,386,l),
(630,391,l),
(628,395,l),
(627,400,l),
(627,404,l),
(625,410,l),
(623,415,l),
(622,418,l),
(621,424,l),
(619,428,l),
(617,432,l),
(615,437,l),
(613,443,l),
(611,446,l),
(609,452,l),
(607,456,l),
(604,460,l),
(602,465,l),
(600,469,l),
(597,473,l),
(595,477,l),
(592,482,l),
(590,486,l),
(586,489,l),
(583,494,l),
(580,497,l),
(578,502,l),
(574,506,l),
(571,509,l),
(568,512,l),
(565,516,l),
(561,519,l),
(558,524,l),
(554,526,l),
(549,530,l),
(547,534,l),
(543,537,l),
(539,540,l),
(534,543,l),
(531,545,l),
(526,548,l),
(522,551,l),
(518,553,l),
(513,556,l),
(510,559,l),
(505,560,l),
(500,562,l),
(495,566,l),
(492,568,l),
(487,569,l),
(483,571,l),
(478,572,l),
(473,574,l),
(469,577,l),
(464,578,l),
(458,580,l),
(454,580,l),
(448,581,l),
(445,582,l),
(440,583,l),
(434,584,l),
(429,585,l),
(424,587,l),
(420,588,l),
(414,588,l),
(410,589,l),
(405,590,l),
(399,589,l),
(395,590,l),
(389,591,l),
(384,590,l),
(379,591,l),
(369,591,l),
(365,591,l),
(360,590,l),
(355,590,l),
(349,589,l),
(340,588,l),
(334,588,l),
(330,588,l),
(325,586,l),
(319,586,l),
(314,584,l),
(309,583,l),
(306,583,l),
(300,582,l),
(295,581,l),
(290,578,l),
(285,577,l),
(280,575,l),
(277,575,l),
(271,573,l),
(267,572,l),
(263,570,l),
(257,567,l),
(253,566,l),
(248,564,l),
(243,562,l),
(240,560,l),
(235,556,l),
(230,554,l),
(225,552,l),
(222,549,l),
(217,548,l),
(213,545,l),
(209,542,l),
(204,540,l),
(201,537,l),
(196,533,l),
(193,531,l),
(189,527,l),
(184,525,l),
(181,522,l),
(176,519,l),
(172,515,l),
(169,512,l),
(165,509,l),
(161,506,l),
(157,503,l),
(154,498,l),
(150,495,l),
(147,491,l),
(144,488,l),
(141,484,l),
(137,480,l),
(134,477,l),
(130,473,l),
(127,468,l),
(124,465,l),
(122,461,l),
(119,457,l),
(115,453,l),
(112,449,l),
(109,444,l),
(107,440,l),
(104,436,l),
(101,433,l),
(99,427,l),
(96,424,l),
(94,419,l),
(91,415,l),
(90,410,l),
(87,405,l),
(85,402,l),
(83,397,l),
(81,392,l),
(78,387,l),
(77,383,l),
(76,379,l),
(73,374,l),
(72,369,l),
(70,364,l),
(69,360,l),
(66,354,l),
(65,350,l),
(63,345,l),
(63,340,l),
(61,336,l),
(59,331,l),
(58,327,l),
(58,321,l),
(57,317,l),
(55,311,l),
(55,307,l),
(54,302,l),
(53,296,l),
(53,292,l),
(51,287,l),
(51,281,l),
(51,276,l),
(50,272,l),
(51,267,l),
(50,261,l),
(50,257,l),
(50,252,l),
(49,241,l),
(50,237,l),
(50,232,l),
(51,226,l),
(50,221,l),
(51,216,l),
(52,212,l),
(52,207,l),
(52,202,l),
(53,197,l),
(53,191,l),
(54,187,l),
(55,181,l),
(57,177,l),
(58,171,l),
(59,167,l),
(61,162,l),
(62,157,l),
(64,153,l),
(65,147,l),
(67,143,l),
(68,138,l),
(70,133,l),
(71,130,l),
(74,124,l),
(75,121,l),
(77,116,l),
(80,111,l),
(83,107,l),
(86,102,l),
(87,98,l),
(90,95,l),
(92,89,l),
(96,86,l),
(99,81,l),
(102,77,l),
(105,73,l),
(108,70,l),
(110,67,l),
(114,63,l),
(118,58,l),
(122,56,l),
(125,52,l),
(128,48,l),
(133,46,l),
(136,43,l),
(140,39,l),
(143,36,l),
(148,33,l),
(152,29,l),
(155,27,l),
(160,25,l),
(164,21,l),
(169,19,l),
(173,17,l),
(177,14,l),
(181,13,l),
(187,10,l),
(190,8,l),
(195,6,l),
(200,4,l),
(204,1,l),
(209,0,l),
(213,-2,l),
(218,-3,l),
(223,-5,l),
(229,-5,l),
(234,-8,l),
(238,-9,l),
(242,-10,l),
(247,-11,l),
(252,-12,l),
(258,-13,l),
(263,-14,l),
(268,-14,l),
(273,-16,l),
(277,-16,l),
(283,-16,l),
(287,-16,l),
(293,-18,l),
(297,-17,l),
(302,-17,l),
(308,-18,l),
(313,-19,l),
(317,-19,l)
);
},
{
closed = 1;
nodes = (
(318,33,l),
(312,34,l),
(307,33,l),
(303,35,l),
(297,35,l),
(288,36,l),
(283,35,l),
(277,36,l),
(273,38,l),
(267,39,l),
(263,40,l),
(258,40,l),
(252,41,l),
(248,42,l),
(243,44,l),
(238,46,l),
(234,46,l),
(230,48,l),
(224,51,l),
(220,52,l),
(215,54,l),
(210,55,l),
(207,58,l),
(201,61,l),
(197,62,l),
(189,68,l),
(185,70,l),
(180,73,l),
(176,76,l),
(173,80,l),
(170,82,l),
(166,85,l),
(162,89,l),
(159,92,l),
(154,95,l),
(152,100,l),
(148,104,l),
(145,106,l),
(142,110,l),
(139,114,l),
(136,118,l),
(133,123,l),
(131,127,l),
(129,131,l),
(126,136,l),
(125,140,l),
(122,145,l),
(119,149,l),
(117,153,l),
(117,159,l),
(114,163,l),
(112,167,l),
(112,172,l),
(110,178,l),
(108,182,l),
(107,187,l),
(106,191,l),
(105,196,l),
(104,202,l),
(105,206,l),
(103,211,l),
(102,216,l),
(103,222,l),
(102,226,l),
(102,232,l),
(102,237,l),
(101,242,l),
(102,252,l),
(102,257,l),
(102,262,l),
(103,267,l),
(102,271,l),
(103,276,l),
(103,282,l),
(105,287,l),
(105,291,l),
(105,296,l),
(106,302,l),
(108,305,l),
(109,310,l),
(109,315,l),
(111,320,l),
(113,325,l),
(114,330,l),
(115,334,l),
(116,339,l),
(118,344,l),
(119,349,l),
(121,354,l),
(123,359,l),
(124,363,l),
(127,367,l),
(129,373,l),
(130,376,l),
(133,382,l),
(135,385,l),
(137,390,l),
(140,395,l),
(143,399,l),
(145,402,l),
(147,407,l),
(150,412,l),
(153,416,l),
(155,419,l),
(158,424,l),
(162,427,l),
(164,432,l),
(168,436,l),
(170,440,l),
(175,443,l),
(177,447,l),
(180,450,l),
(184,454,l),
(187,458,l),
(190,461,l),
(195,464,l),
(198,468,l),
(202,471,l),
(209,479,l),
(214,482,l),
(218,485,l),
(221,487,l),
(226,491,l),
(230,493,l),
(234,495,l),
(237,498,l),
(241,501,l),
(246,503,l),
(250,506,l),
(254,509,l),
(259,510,l),
(264,513,l),
(268,515,l),
(273,517,l),
(278,519,l),
(281,521,l),
(286,522,l),
(292,525,l),
(296,527,l),
(301,528,l),
(306,529,l),
(311,531,l),
(315,532,l),
(319,532,l),
(324,533,l),
(330,534,l),
(335,536,l),
(339,537,l),
(345,536,l),
(349,538,l),
(354,537,l),
(359,538,l),
(364,539,l),
(370,538,l),
(379,539,l),
(385,539,l),
(389,538,l),
(395,537,l),
(400,538,l),
(404,537,l),
(410,536,l),
(414,535,l),
(420,534,l),
(424,533,l),
(429,532,l),
(435,532,l),
(439,531,l),
(445,529,l),
(450,528,l),
(454,527,l),
(458,525,l),
(464,522,l),
(469,520,l),
(473,519,l),
(478,517,l),
(481,514,l),
(487,511,l),
(491,509,l),
(495,507,l),
(499,505,l),
(504,501,l),
(507,499,l),
(511,495,l),
(515,492,l),
(519,488,l),
(522,486,l),
(526,482,l),
(530,479,l),
(533,474,l),
(535,470,l),
(539,466,l),
(543,463,l),
(546,458,l),
(547,454,l),
(551,451,l),
(554,446,l),
(556,441,l),
(559,438,l),
(560,432,l),
(562,429,l),
(564,424,l),
(566,419,l),
(568,415,l),
(571,409,l),
(571,406,l),
(573,400,l),
(576,396,l),
(577,390,l),
(578,386,l),
(578,380,l),
(579,375,l),
(580,370,l),
(581,366,l),
(583,360,l),
(583,355,l),
(585,350,l),
(585,346,l),
(585,341,l),
(585,336,l),
(586,330,l),
(586,325,l),
(586,320,l),
(587,315,l),
(586,306,l),
(587,301,l),
(586,295,l),
(586,290,l),
(585,287,l),
(585,282,l),
(584,277,l),
(583,271,l),
(582,266,l),
(582,261,l),
(580,257,l),
(578,252,l),
(577,247,l),
(577,242,l),
(575,238,l),
(573,233,l),
(572,228,l),
(570,224,l),
(568,219,l),
(568,214,l),
(565,210,l),
(564,205,l),
(561,201,l),
(560,195,l),
(558,191,l),
(556,187,l),
(554,183,l),
(551,178,l),
(549,173,l),
(546,168,l),
(544,164,l),
(542,161,l),
(538,157,l),
(536,151,l),
(533,147,l),
(530,143,l),
(528,139,l),
(525,135,l),
(522,131,l),
(518,127,l),
(515,124,l),
(512,121,l),
(508,117,l),
(506,112,l),
(503,109,l),
(498,106,l),
(496,102,l),
(491,98,l),
(487,96,l),
(483,91,l),
(480,89,l),
(476,86,l),
(473,83,l),
(469,79,l),
(465,76,l),
(460,74,l),
(456,70,l),
(451,68,l),
(448,66,l),
(442,64,l),
(438,60,l),
(434,58,l),
(430,56,l),
(425,55,l),
(420,52,l),
(416,50,l),
(412,49,l),
(407,47,l),
(401,46,l),
(396,44,l),
(393,43,l),
(387,41,l),
(383,40,l),
(377,40,l),
(372,38,l),
(367,37,l),
(362,36,l),
(357,36,l),
(352,35,l),
(347,34,l),
(343,35,l),
(337,33,l),
(332,33,l),
(328,33,l)
);
},
{
closed = 1;
nodes = (
(657,-51,l),
(660,-47,l),
(662,-42,l),
(668,-34,l),
(669,-28,l),
(669,-25,l),
(666,-20,l),
(658,-14,l),
(655,-11,l),
(651,-8,l),
(647,-6,l),
(642,-3,l),
(638,0,l),
(634,3,l),
(629,6,l),
(625,10,l),
(622,12,l),
(614,17,l),
(609,21,l),
(606,24,l),
(602,26,l),
(597,29,l),
(593,33,l),
(590,35,l),
(585,38,l),
(581,41,l),
(578,44,l),
(574,46,l),
(569,50,l),
(564,52,l),
(561,56,l),
(556,58,l),
(553,62,l),
(548,65,l),
(545,68,l),
(540,69,l),
(532,75,l),
(529,79,l),
(524,81,l),
(520,84,l),
(516,88,l),
(512,91,l),
(509,94,l),
(505,96,l),
(500,98,l),
(495,102,l),
(491,104,l),
(488,108,l),
(484,110,l),
(479,113,l),
(475,116,l),
(471,120,l),
(468,122,l),
(463,125,l),
(459,127,l),
(455,130,l),
(452,133,l),
(447,136,l),
(444,140,l),
(440,143,l),
(436,145,l),
(430,149,l),
(422,154,l),
(415,160,l),
(410,160,l),
(406,159,l),
(402,156,l),
(394,149,l),
(391,143,l),
(388,139,l),
(382,131,l),
(381,125,l),
(382,122,l),
(386,118,l),
(392,110,l),
(397,109,l),
(400,106,l),
(404,102,l),
(409,99,l),
(414,96,l),
(417,94,l),
(421,91,l),
(426,87,l),
(429,85,l),
(433,82,l),
(438,80,l),
(441,77,l),
(446,73,l),
(450,71,l),
(458,65,l),
(461,62,l),
(469,56,l),
(474,54,l),
(477,51,l),
(482,47,l),
(486,44,l),
(491,41,l),
(495,39,l),
(499,36,l),
(502,33,l),
(506,29,l),
(511,28,l),
(515,24,l),
(519,21,l),
(523,19,l),
(526,15,l),
(530,12,l),
(535,10,l),
(539,7,l),
(542,3,l),
(546,1,l),
(551,-1,l),
(556,-4,l),
(559,-8,l),
(563,-10,l),
(568,-13,l),
(572,-17,l),
(575,-20,l),
(579,-22,l),
(583,-26,l),
(588,-28,l),
(591,-30,l),
(595,-33,l),
(600,-37,l),
(604,-39,l),
(607,-42,l),
(611,-46,l),
(615,-48,l),
(621,-52,l),
(629,-57,l),
(637,-63,l),
(641,-63,l),
(645,-63,l),
(650,-59,l)
);
}
);
width = 689;
},
{
associatedMasterId = "32AF036A-4181-4CD3-84B0-594A9F44F1BB";
layerId = "363B994B-20DB-44AC-B0D5-E5538A4D4A46";
width = 600;
}
);
unicode = (81,113);
},
{
glyphname = R;
kernLeft = H;
kernRight = R;
lastChange = "2023-08-06 15:31:52 +0000";
layers = (
{
layerId = "32AF036A-4181-4CD3-84B0-594A9F44F1BB";
shapes = (
{
closed = 1;
nodes = (
(122,18,l),
(124,23,l),
(124,28,l),
(123,33,l),
(123,39,l),
(124,43,l),
(124,53,l),
(126,59,l),
(125,63,l),
(126,68,l),
(126,73,l),
(126,77,l),
(126,83,l),
(127,93,l),
(128,98,l),
(129,102,l),
(129,108,l),
(129,113,l),
(128,118,l),
(130,122,l),
(130,128,l),
(129,132,l),
(129,138,l),
(131,143,l),
(141,143,l),
(146,145,l),
(150,146,l),
(155,146,l),
(160,146,l),
(166,148,l),
(169,150,l),
(175,151,l),
(179,151,l),
(185,153,l),
(190,154,l),
(194,155,l),
(198,157,l),
(203,159,l),
(209,160,l),
(213,162,l),
(217,163,l),
(223,165,l),
(227,167,l),
(232,170,l),
(235,171,l),
(240,174,l),
(245,176,l),
(248,178,l),
(253,182,l),
(258,183,l),
(262,186,l),
(265,189,l),
(270,192,l),
(274,195,l),
(279,197,l),
(283,200,l),
(286,204,l),
(290,206,l),
(301,216,l),
(305,220,l),
(308,222,l),
(313,226,l),
(316,229,l),
(318,233,l),
(323,238,l),
(325,242,l),
(328,244,l),
(332,249,l),
(334,252,l),
(338,257,l),
(341,260,l),
(343,265,l),
(346,269,l),
(348,274,l),
(350,277,l),
(353,282,l),
(355,286,l),
(358,292,l),
(360,296,l),
(362,300,l),
(363,305,l),
(365,309,l),
(366,314,l),
(368,318,l),
(370,324,l),
(372,328,l),
(373,333,l),
(374,339,l),
(375,343,l),
(375,348,l),
(377,353,l),
(377,358,l),
(377,363,l),
(378,368,l),
(378,373,l),
(380,378,l),
(380,382,l),
(380,388,l),
(380,398,l),
(380,402,l),
(380,408,l),
(378,412,l),
(379,418,l),
(378,422,l),
(376,427,l),
(376,433,l),
(376,437,l),
(374,443,l),
(374,447,l),
(371,453,l),
(370,457,l),
(368,462,l),
(367,466,l),
(365,471,l),
(364,476,l),
(359,485,l),
(357,488,l),
(355,493,l),
(351,498,l),
(348,501,l),
(347,505,l),
(343,510,l),
(340,514,l),
(336,517,l),
(334,520,l),
(330,525,l),
(327,528,l),
(323,532,l),
(318,535,l),
(315,538,l),
(312,541,l),
(308,543,l),
(304,546,l),
(299,549,l),
(295,552,l),
(290,553,l),
(286,556,l),
(281,559,l),
(276,560,l),
(273,563,l),
(267,564,l),
(262,567,l),
(258,568,l),
(253,569,l),
(249,571,l),
(243,572,l),
(240,574,l),
(235,574,l),
(230,576,l),
(224,577,l),
(220,577,l),
(215,579,l),
(209,580,l),
(204,580,l),
(200,581,l),
(195,582,l),
(190,581,l),
(184,582,l),
(179,582,l),
(174,583,l),
(169,582,l),
(160,582,l),
(150,582,l),
(140,581,l),
(136,581,l),
(132,581,l),
(126,581,l),
(118,579,l),
(112,577,l),
(109,574,l),
(108,569,l),
(107,560,l),
(105,555,l),
(105,550,l),
(106,545,l),
(105,539,l),
(104,535,l),
(104,529,l),
(103,519,l),
(103,515,l),
(103,509,l),
(102,505,l),
(102,499,l),
(101,494,l),
(101,490,l),
(102,485,l),
(101,480,l),
(100,474,l),
(100,470,l),
(101,465,l),
(100,455,l),
(99,451,l),
(99,445,l),
(99,441,l),
(98,436,l),
(97,430,l),
(97,425,l),
(98,420,l),
(96,416,l),
(97,411,l),
(96,406,l),
(96,400,l),
(96,396,l),
(96,390,l),
(95,385,l),
(94,380,l),
(95,375,l),
(94,370,l),
(93,365,l),
(93,360,l),
(93,355,l),
(93,351,l),
(92,345,l),
(92,340,l),
(92,335,l),
(91,331,l),
(91,326,l),
(91,320,l),
(90,315,l),
(90,311,l),
(89,306,l),
(90,301,l),
(89,295,l),
(89,291,l),
(89,286,l),
(87,280,l),
(88,276,l),
(87,271,l),
(87,266,l),
(86,260,l),
(86,255,l),
(86,251,l),
(86,245,l),
(85,241,l),
(84,236,l),
(85,230,l),
(84,225,l),
(84,221,l),
(84,215,l),
(83,210,l),
(82,205,l),
(82,201,l),
(83,195,l),
(82,190,l),
(81,186,l),
(81,180,l),
(81,176,l),
(81,170,l),
(81,167,l),
(81,162,l),
(79,156,l),
(80,151,l),
(79,136,l),
(78,132,l),
(77,126,l),
(77,121,l),
(78,117,l),
(76,112,l),
(76,107,l),
(77,102,l),
(75,96,l),
(76,91,l),
(75,87,l),
(75,81,l),
(75,77,l),
(75,71,l),
(74,66,l),
(73,61,l),
(73,56,l),
(73,52,l),
(73,46,l),
(73,41,l),
(72,37,l),
(72,31,l),
(71,26,l),
(71,22,l),
(70,12,l),
(73,7,l),
(75,3,l),
(91,0,l),
(95,0,l),
(101,-1,l),
(112,0,l),
(116,2,l),
(119,4,l),
(122,9,l)
);
},
{
closed = 1;
nodes = (
(134,200,l),
(135,206,l),
(135,211,l),
(136,215,l),
(136,221,l),
(137,226,l),
(136,231,l),
(138,236,l),
(137,241,l),
(138,245,l),
(138,251,l),
(139,256,l),
(138,260,l),
(139,265,l),
(139,271,l),
(140,275,l),
(140,280,l),
(141,285,l),
(141,290,l),
(141,296,l),
(142,301,l),
(141,306,l),
(142,321,l),
(144,325,l),
(144,330,l),
(143,336,l),
(144,340,l),
(144,345,l),
(144,351,l),
(145,355,l),
(146,361,l),
(145,364,l),
(146,370,l),
(147,375,l),
(146,380,l),
(146,385,l),
(148,390,l),
(147,395,l),
(148,405,l),
(148,409,l),
(149,414,l),
(149,420,l),
(150,424,l),
(149,430,l),
(150,434,l),
(151,440,l),
(150,444,l),
(151,449,l),
(152,454,l),
(153,464,l),
(153,470,l),
(152,475,l),
(154,479,l),
(154,485,l),
(153,489,l),
(155,494,l),
(155,499,l),
(155,505,l),
(155,510,l),
(156,515,l),
(155,519,l),
(157,524,l),
(161,530,l),
(167,530,l),
(172,529,l),
(181,529,l),
(187,529,l),
(191,528,l),
(196,527,l),
(202,528,l),
(207,527,l),
(211,526,l),
(217,524,l),
(222,523,l),
(227,523,l),
(231,521,l),
(236,520,l),
(242,519,l),
(245,516,l),
(251,515,l),
(255,514,l),
(259,511,l),
(264,508,l),
(268,506,l),
(272,505,l),
(277,501,l),
(281,498,l),
(284,496,l),
(288,493,l),
(292,489,l),
(295,485,l),
(300,481,l),
(303,478,l),
(306,474,l),
(308,470,l),
(311,465,l),
(312,461,l),
(315,457,l),
(318,451,l),
(319,448,l),
(321,443,l),
(322,437,l),
(324,433,l),
(325,428,l),
(325,423,l),
(325,418,l),
(326,412,l),
(327,408,l),
(328,403,l),
(327,397,l),
(327,388,l),
(327,382,l),
(326,377,l),
(327,373,l),
(326,368,l),
(325,362,l),
(324,358,l),
(323,352,l),
(323,347,l),
(321,343,l),
(320,337,l),
(318,334,l),
(316,328,l),
(314,324,l),
(313,318,l),
(311,315,l),
(309,309,l),
(307,306,l),
(303,302,l),
(301,297,l),
(298,292,l),
(295,288,l),
(292,284,l),
(289,281,l),
(286,276,l),
(283,272,l),
(280,269,l),
(277,264,l),
(274,261,l),
(270,257,l),
(266,254,l),
(263,251,l),
(258,247,l),
(255,245,l),
(251,241,l),
(246,239,l),
(242,235,l),
(238,232,l),
(234,230,l),
(230,228,l),
(225,225,l),
(221,222,l),
(217,221,l),
(211,218,l),
(208,217,l),
(202,215,l),
(197,213,l),
(194,210,l),
(189,209,l),
(184,208,l),
(179,205,l),
(174,204,l),
(169,202,l),
(164,202,l),
(160,201,l),
(155,200,l),
(150,198,l),
(144,197,l),
(134,195,l)
);
},
{
closed = 1;
nodes = (
(341,-3,l),
(351,2,l),
(360,9,l),
(362,13,l),
(363,17,l),
(362,22,l),
(357,30,l),
(356,34,l),
(353,40,l),
(350,43,l),
(343,57,l),
(339,61,l),
(336,66,l),
(332,74,l),
(328,78,l),
(327,82,l),
(323,87,l),
(320,90,l),
(319,95,l),
(315.006,98.998,l),
(313,104,l),
(308,113,l),
(304,117,l),
(303,122,l),
(299,125,l),
(296,129,l),
(295,133,l),
(291,138,l),
(289,142,l),
(287,146,l),
(284,152,l),
(281,156,l),
(279,160,l),
(275,164,l),
(274,169,l),
(271,172,l),
(267,178,l),
(266,181,l),
(259,190,l),
(256,192,l),
(251,193,l),
(247,192,l),
(237,188,l),
(232,185,l),
(227,181,l),
(219,176,l),
(217,171,l),
(215,167,l),
(217,162,l),
(222,153,l),
(224,149,l),
(226,145,l),
(229,141,l),
(232,137,l),
(234,133,l),
(236,128,l),
(240,124,l),
(243,120,l),
(244,114,l),
(250,106,l),
(253,103,l),
(255,97,l),
(258,94,l),
(260,90,l),
(264,84,l),
(266,81,l),
(269,77,l),
(275,68,l),
(276,64,l),
(280,60,l),
(282,54,l),
(287,46,l),
(291,42,l),
(293,37,l),
(298,29,l),
(301,25,l),
(303,20,l),
(306,16,l),
(308,12,l),
(312,8,l),
(314,3,l),
(319,-4,l),
(324,-7,l),
(328,-8,l),
(332,-8,l)
);
}
);
width = 430;
},
{
associatedMasterId = "32AF036A-4181-4CD3-84B0-594A9F44F1BB";
layerId = "363B994B-20DB-44AC-B0D5-E5538A4D4A46";
width = 600;
}
);
unicode = (82,114);
},
{
glyphname = S;
kernLeft = S;
kernRight = S;
lastChange = "2023-08-05 19:35:05 +0000";
layers = (
{
layerId = "32AF036A-4181-4CD3-84B0-594A9F44F1BB";
shapes = (
{
closed = 1;
nodes = (
(144,-17,l),
(150,-16,l),
(155,-16,l),
(160,-15,l),
(165,-15,l),
(170,-14,l),
(175,-11,l),
(179,-11,l),
(184,-8,l),
(188,-6,l),
(192,-5,l),
(197,-3,l),
(202,1,l),
(205,3,l),
(209,6,l),
(212,9,l),
(216,13,l),
(220,17,l),
(223,21,l),
(225,25,l),
(229,28,l),
(231,32,l),
(234,37,l),
(235,42,l),
(238,46,l),
(238,52,l),
(240,56,l),
(241,60,l),
(242,65,l),
(243,71,l),
(243,75,l),
(245,80,l),
(244,86,l),
(244,96,l),
(244,100,l),
(243,106,l),
(242,110,l),
(243,115,l),
(241,121,l),
(241,125,l),
(240,130,l),
(238,134,l),
(236,140,l),
(235,145,l),
(234,149,l),
(232,155,l),
(230,159,l),
(228,163,l),
(227,168,l),
(225,173,l),
(223,177,l),
(222,183,l),
(219,187,l),
(219,192,l),
(217,196,l),
(215,202,l),
(213,205,l),
(211,211,l),
(208,216,l),
(206,220,l),
(205,224,l),
(202,229,l),
(199,234,l),
(197,238,l),
(196,242,l),
(194,248,l),
(191,251,l),
(189,257,l),
(187,261,l),
(184,265,l),
(183,270,l),
(181,274,l),
(179,278,l),
(176,284,l),
(174,288,l),
(172,292,l),
(170,297,l),
(167,302,l),
(166,306,l),
(162,315,l),
(159,319,l),
(158,324,l),
(156,329,l),
(154,333,l),
(152,339,l),
(150,344,l),
(148,347,l),
(147,352,l),
(144,358,l),
(144,362,l),
(141,366,l),
(139,372,l),
(138,376,l),
(136,382,l),
(135,386,l),
(134,390,l),
(132,396,l),
(132,401,l),
(131,405,l),
(129,410,l),
(127,416,l),
(127,420,l),
(127,425,l),
(125,429,l),
(124,434,l),
(124,439,l),
(123,444,l),
(124,450,l),
(124,460,l),
(123,465,l),
(125,469,l),
(125,475,l),
(127,480,l),
(127,484,l),
(130,489,l),
(130,494,l),
(132,498,l),
(134,502,l),
(138,507,l),
(140,512,l),
(143,515,l),
(146,520,l),
(149,523,l),
(153,527,l),
(158,529,l),
(162,532,l),
(165,536,l),
(171,538,l),
(174,540,l),
(180,541,l),
(184,542,l),
(190,543,l),
(194,544,l),
(199,545,l),
(210,544,l),
(214,543,l),
(219,543,l),
(225,543,l),
(229,541,l),
(240,538,l),
(245,535,l),
(248,533,l),
(263,527,l),
(266,526,l),
(272,527,l),
(276,529,l),
(282,535,l),
(285,541,l),
(289,544,l),
(296,553,l),
(297,557,l),
(296,563,l),
(295,566,l),
(286,573,l),
(281,576,l),
(278,577,l),
(274,579,l),
(269,582,l),
(264,585,l),
(260,586,l),
(254,587,l),
(245,591,l),
(241,593,l),
(230,595,l),
(226,595,l),
(220,596,l),
(215,596,l),
(210,596,l),
(201,597,l),
(196,596,l),
(191,595,l),
(185,596,l),
(176,594,l),
(171,593,l),
(167,590,l),
(161,589,l),
(157,587,l),
(153,586,l),
(148,584,l),
(144,582,l),
(138,580,l),
(135,576,l),
(130,574,l),
(127,572,l),
(122,568,l),
(119,565,l),
(115,561,l),
(112,559,l),
(108,555,l),
(104,551,l),
(101,547,l),
(97,543,l),
(95,539,l),
(93,535,l),
(90,531,l),
(87,527,l),
(85,523,l),
(83,518,l),
(80,513,l),
(78,508,l),
(77,504,l),
(76,499,l),
(75,494,l),
(74,489,l),
(73,485,l),
(71,479,l),
(72,475,l),
(70,469,l),
(71,465,l),
(71,454,l),
(71,450,l),
(72,445,l),
(71,439,l),
(72,434,l),
(72,430,l),
(74,424,l),
(74,419,l),
(75,415,l),
(76,411,l),
(77,405,l),
(78,401,l),
(79,395,l),
(80,391,l),
(82,386,l),
(83,382,l),
(86,376,l),
(86,371,l),
(89,367,l),
(89,362,l),
(92,357,l),
(93,352,l),
(94,348,l),
(96,344,l),
(99,339,l),
(100,334,l),
(102,330,l),
(103,325,l),
(106,319,l),
(107,316,l),
(110,311,l),
(112,305,l),
(114,302,l),
(115,296,l),
(117,292,l),
(122,283,l),
(123,278,l),
(125,274,l),
(128,270,l),
(129,264,l),
(132,260,l),
(135,256,l),
(137,251,l),
(138,246,l),
(140,243,l),
(142,237,l),
(144,234,l),
(146,229,l),
(149,225,l),
(152,220,l),
(154,214,l),
(156,210,l),
(157,206,l),
(160,202,l),
(161,197,l),
(164,191,l),
(166,188,l),
(168,183,l),
(170,177,l),
(171,174,l),
(173,169,l),
(175,164,l),
(176,159,l),
(178,155,l),
(180,150,l),
(181,144,l),
(183,141,l),
(184,135,l),
(185,131,l),
(188,126,l),
(188,121,l),
(190,115,l),
(190,111,l),
(192,107,l),
(192,101,l),
(192,96,l),
(192,86,l),
(192,81,l),
(191,77,l),
(191,72,l),
(188,67,l),
(187,63,l),
(184,57,l),
(182,54,l),
(179,50,l),
(175,46,l),
(171,44,l),
(167,40,l),
(162,39,l),
(159,37,l),
(154,36,l),
(149,35,l),
(139,34,l),
(133,36,l),
(129,37,l),
(124,38,l),
(120,39,l),
(116,42,l),
(110,43,l),
(106,47,l),
(103,49,l),
(99,53,l),
(95,56,l),
(93,59,l),
(88,62,l),
(85,66,l),
(80,75,l),
(77,78,l),
(71,80,l),
(68,79,l),
(58,75,l),
(53,72,l),
(49,69,l),
(40,65,l),
(35,61,l),
(35,56,l),
(34,51,l),
(40,42,l),
(42,39,l),
(46,34,l),
(49,31,l),
(51,27,l),
(55,22,l),
(59,19,l),
(63,15,l),
(65,12,l),
(70,10,l),
(73,6,l),
(78,2,l),
(82,1,l),
(86,-2,l),
(91,-5,l),
(95,-6,l),
(101,-9,l),
(104,-11,l),
(109,-12,l),
(120,-14,l),
(125,-16,l),
(129,-17,l),
(134,-17,l)
);
}
);
width = 323;
},
{
associatedMasterId = "32AF036A-4181-4CD3-84B0-594A9F44F1BB";
layerId = "363B994B-20DB-44AC-B0D5-E5538A4D4A46";
width = 600;
}
);
unicode = (83,115);
},
{
glyphname = Scaron;
kernLeft = S;
kernRight = S;
lastChange = "2023-08-05 19:35:05 +0000";
layers = (
{
layerId = "32AF036A-4181-4CD3-84B0-594A9F44F1BB";
shapes = (
{
ref = S;
},
{
closed = 1;
nodes = (
(196,658,l),
(201,658,l),
(204,657,l),
(210,658,l),
(215,658,l),
(224,658,l),
(229,659,l),
(234,663,l),
(241,669,l),
(245,673,l),
(249,676,l),
(251,680,l),
(255,684,l),
(258,688,l),
(262,691,l),
(265,694,l),
(268,698,l),
(271,702,l),
(274,706,l),
(279,709,l),
(282,713,l),
(286,717,l),
(288,721,l),
(291,724,l),
(296,728,l),
(298,731,l),
(302,734,l),
(306,738,l),
(309,743,l),
(312,745,l),
(318,754,l),
(320,757,l),
(319,763,l),
(317,767,l),
(310,774,l),
(307,778,l),
(303,782,l),
(295,788,l),
(291,789,l),
(287,790,l),
(282,788,l),
(274,780,l),
(272,778,l),
(269,773,l),
(264,770,l),
(262,766,l),
(258,762,l),
(255,759,l),
(252,756,l),
(236,738,l),
(231,734,l),
(229,731,l),
(225,727,l),
(221,722,l),
(218,720,l),
(215,715,l),
(211,713,l),
(207,712,l),
(204,717,l),
(202,721,l),
(198,725,l),
(196,730,l),
(194,734,l),
(191,737,l),
(186,746,l),
(185,751,l),
(181,755,l),
(179,758,l),
(177,763,l),
(175,767,l),
(169,776,l),
(166,779,l),
(161,780,l),
(156,779,l),
(148,775,l),
(142,773,l),
(139,769,l),
(129,765,l),
(126,761,l),
(126,755,l),
(126,750,l),
(131,743,l),
(132,738,l),
(136,734,l),
(138,728,l),
(141,724,l),
(143,721,l),
(146,716,l),
(147,711,l),
(151,708,l),
(152,702,l),
(156,699,l),
(157,695,l),
(160,689,l),
(162,685,l),
(166,680,l),
(167,676,l),
(171,672,l),
(175,664,l),
(179,660,l),
(186,659,l)
);
}
);
width = 323;
},
{
associatedMasterId = "32AF036A-4181-4CD3-84B0-594A9F44F1BB";
layerId = "363B994B-20DB-44AC-B0D5-E5538A4D4A46";
width = 600;
}
);
unicode = (352,353);
},
{
glyphname = Scedilla;
lastChange = "2023-08-05 19:35:05 +0000";
layers = (
{
layerId = "32AF036A-4181-4CD3-84B0-594A9F44F1BB";
shapes = (
{
ref = S;
},
{
closed = 1;
nodes = (
(142,-197,l),
(146,-197,l),
(151,-197,l),
(157,-195,l),
(161,-194,l),
(167,-193,l),
(171,-192,l),
(176,-190,l),
(181,-188,l),
(186,-186,l),
(191,-184,l),
(195,-182,l),
(198,-179,l),
(203,-177,l),
(207,-172,l),
(211,-170,l),
(213,-166,l),
(217,-163,l),
(219,-158,l),
(223,-155,l),
(225,-149,l),
(228,-145,l),
(229,-142,l),
(231,-137,l),
(233,-131,l),
(234,-127,l),
(234,-122,l),
(235,-118,l),
(235,-108,l),
(235,-102,l),
(235,-98,l),
(233,-92,l),
(232,-88,l),
(231,-84,l),
(228,-79,l),
(227,-74,l),
(225,-71,l),
(221,-67,l),
(217,-63,l),
(214,-59,l),
(211,-57,l),
(207,-53,l),
(202,-51,l),
(197,-48,l),
(192,-47,l),
(188,-45,l),
(183,-44,l),
(178,-43,l),
(173,-42,l),
(169,-41,l),
(164,-41,l),
(159,-35,l),
(160,-31,l),
(161,-26,l),
(161,-21,l),
(162,-11,l),
(162,-7,l),
(158,-4,l),
(154,-2,l),
(144,-1,l),
(137,0,l),
(132,-2,l),
(128,-5,l),
(125,-9,l),
(122,-17,l),
(122,-22,l),
(120,-27,l),
(118,-32,l),
(117,-37,l),
(115,-42,l),
(115,-46,l),
(112,-52,l),
(111,-61,l),
(112,-66,l),
(115,-70,l),
(120,-73,l),
(129,-74,l),
(134,-74,l),
(139,-75,l),
(143,-75,l),
(153,-78,l),
(159,-79,l),
(163,-81,l),
(167,-84,l),
(171,-86,l),
(175,-89,l),
(177,-94,l),
(180,-97,l),
(183,-102,l),
(183,-108,l),
(183,-118,l),
(181,-122,l),
(179,-126,l),
(176,-131,l),
(173,-133,l),
(169,-137,l),
(166,-140,l),
(161,-142,l),
(156,-143,l),
(151,-144,l),
(147,-144,l),
(141,-145,l),
(132,-146,l),
(127,-145,l),
(122,-144,l),
(113,-142,l),
(107,-143,l),
(102,-145,l),
(96,-152,l),
(93,-155,l),
(90,-159,l),
(86,-163,l),
(81,-170,l),
(79,-176,l),
(80,-180,l),
(82,-184,l),
(91,-190,l),
(96,-192,l),
(101,-192,l),
(105,-194,l),
(111,-195,l),
(116,-197,l),
(122,-196,l),
(126,-197,l),
(132,-197,l)
);
}
);
width = 323;
},
{
associatedMasterId = "32AF036A-4181-4CD3-84B0-594A9F44F1BB";
layerId = "363B994B-20DB-44AC-B0D5-E5538A4D4A46";
width = 600;
}
);
unicode = (350,351);
},
{
glyphname = T;
kernLeft = T;
kernRight = T;
lastChange = "2023-08-05 19:35:05 +0000";
layers = (
{
layerId = "32AF036A-4181-4CD3-84B0-594A9F44F1BB";
shapes = (
{
closed = 1;
nodes = (
(227,20,l),
(228,25,l),
(227,30,l),
(227,35,l),
(228,41,l),
(229,46,l),
(228,50,l),
(229,56,l),
(228,60,l),
(228,65,l),
(229,71,l),
(230,75,l),
(230,81,l),
(230,85,l),
(229,90,l),
(230,95,l),
(230,100,l),
(231,105,l),
(231,111,l),
(231,115,l),
(230,120,l),
(231,126,l),
(231,130,l),
(231,135,l),
(232,140,l),
(232,150,l),
(232,156,l),
(233,160,l),
(233,166,l),
(233,170,l),
(232,176,l),
(233,181,l),
(233,185,l),
(233,191,l),
(233,195,l),
(234,201,l),
(234,205,l),
(234,211,l),
(234,215,l),
(235,221,l),
(235,226,l),
(234,230,l),
(234,236,l),
(234,241,l),
(236,246,l),
(236,251,l),
(236,255,l),
(235,261,l),
(235,265,l),
(236,270,l),
(236,276,l),
(237,280,l),
(237,286,l),
(237,290,l),
(237,296,l),
(238,300,l),
(237,306,l),
(237,310,l),
(238,316,l),
(238,320,l),
(238,325,l),
(239,331,l),
(239,336,l),
(238,341,l),
(239,345,l),
(238,351,l),
(239,356,l),
(240,361,l),
(239,366,l),
(240,370,l),
(239,376,l),
(239,380,l),
(240,386,l),
(240,396,l),
(241,400,l),
(241,405,l),
(241,410,l),
(242,415,l),
(241,420,l),
(242,425,l),
(241,431,l),
(242,436,l),
(242,440,l),
(242,450,l),
(243,455,l),
(242,461,l),
(243,465,l),
(244,471,l),
(244,475,l),
(243,481,l),
(244,485,l),
(244,490,l),
(244,496,l),
(245,501,l),
(245,506,l),
(244,511,l),
(244,516,l),
(245,521,l),
(246,526,l),
(246,530,l),
(246,535,l),
(246,541,l),
(245,545,l),
(245,555,l),
(244,559,l),
(241,563,l),
(236,565,l),
(226,567,l),
(215,567,l),
(204,567,l),
(200,565,l),
(196,562,l),
(194,558,l),
(193,548,l),
(194,542,l),
(194,532,l),
(194,528,l),
(192,522,l),
(192,518,l),
(192,512,l),
(193,507,l),
(193,503,l),
(192,497,l),
(192,492,l),
(192,488,l),
(192,478,l),
(191,473,l),
(191,468,l),
(191,462,l),
(191,457,l),
(190,452,l),
(190,442,l),
(190,437,l),
(189,433,l),
(190,427,l),
(189,423,l),
(189,418,l),
(190,413,l),
(189,408,l),
(188,402,l),
(188,397,l),
(189,393,l),
(189,388,l),
(187,382,l),
(188,377,l),
(188,373,l),
(188,368,l),
(188,362,l),
(187,357,l),
(187,353,l),
(186,347,l),
(186,342,l),
(187,338,l),
(187,332,l),
(186,328,l),
(185,323,l),
(186,317,l),
(185,312,l),
(186,307,l),
(185,302,l),
(185,298,l),
(184,292,l),
(185,288,l),
(184,283,l),
(185,277,l),
(184,273,l),
(183,267,l),
(184,263,l),
(184,257,l),
(183,252,l),
(184,247,l),
(183,242,l),
(182,238,l),
(182,223,l),
(182,217,l),
(182,213,l),
(182,208,l),
(181,203,l),
(182,197,l),
(181,193,l),
(181,187,l),
(181,182,l),
(180,178,l),
(180,172,l),
(181,168,l),
(180,162,l),
(179,158,l),
(180,152,l),
(179,148,l),
(180,142,l),
(180,137,l),
(179,133,l),
(178,127,l),
(178,123,l),
(179,117,l),
(179,113,l),
(178,107,l),
(179,103,l),
(178,98,l),
(178,92,l),
(177,88,l),
(177,83,l),
(177,77,l),
(177,72,l),
(177,68,l),
(177,58,l),
(176,53,l),
(177,47,l),
(176,42,l),
(175,37,l),
(175,33,l),
(175,23,l),
(176,13,l),
(178,9,l),
(180,4,l),
(184,3,l),
(194,1,l),
(201,2,l),
(206,1,l),
(216,1,l),
(221,3,l),
(224,7,l),
(226,11,l)
);
},
{
closed = 1;
nodes = (
(415,542,l),
(416,548,l),
(415,553,l),
(415,562,l),
(413,566,l),
(410,571,l),
(406,573,l),
(396,572,l),
(390,574,l),
(385,573,l),
(381,574,l),
(375,574,l),
(371,573,l),
(365,574,l),
(361,573,l),
(355,573,l),
(351,575,l),
(340,575,l),
(336,574,l),
(325,574,l),
(320,575,l),
(315,574,l),
(305,575,l),
(301,576,l),
(291,576,l),
(285,575,l),
(280,576,l),
(275,576,l),
(270,575,l),
(266,577,l),
(261,576,l),
(256,576,l),
(251,577,l),
(241,577,l),
(236,576,l),
(230,576,l),
(225,577,l),
(221,578,l),
(215,577,l),
(211,578,l),
(205,578,l),
(200,577,l),
(195,577,l),
(191,578,l),
(186,577,l),
(180,578,l),
(176,579,l),
(170,578,l),
(165,579,l),
(151,579,l),
(146,578,l),
(141,579,l),
(135,579,l),
(126,579,l),
(121,580,l),
(116,579,l),
(111,579,l),
(105,580,l),
(101,580,l),
(95,579,l),
(91,580,l),
(86,581,l),
(66,581,l),
(61,580,l),
(56,581,l),
(50,581,l),
(40,581,l),
(36,580,l),
(33,576,l),
(31,571,l),
(30,562,l),
(30,555,l),
(30,551,l),
(30,540,l),
(31,537,l),
(36,532,l),
(39,530,l),
(49,530,l),
(55,530,l),
(59,530,l),
(64,529,l),
(70,529,l),
(74,530,l),
(84,530,l),
(90,529,l),
(94,529,l),
(99,529,l),
(104,528,l),
(110,528,l),
(114,529,l),
(119,528,l),
(140,527,l),
(145,528,l),
(149,528,l),
(154,527,l),
(159,528,l),
(165,527,l),
(170,528,l),
(175,527,l),
(179,527,l),
(184,527,l),
(190,526,l),
(194,527,l),
(220,527,l),
(224,525,l),
(229,526,l),
(234,525,l),
(239,526,l),
(249,526,l),
(255,525,l),
(259,525,l),
(265,526,l),
(269,524,l),
(275,525,l),
(289,525,l),
(295,524,l),
(299,525,l),
(304,524,l),
(314,523,l),
(320,524,l),
(335,524,l),
(340,523,l),
(344,523,l),
(349,524,l),
(355,522,l),
(359,522,l),
(365,523,l),
(370,522,l),
(375,523,l),
(379,523,l),
(385,522,l),
(395,521,l),
(405,523,l),
(409,524,l),
(412,527,l),
(414,531,l)
);
}
);
width = 446;
},
{
associatedMasterId = "32AF036A-4181-4CD3-84B0-594A9F44F1BB";
layerId = "363B994B-20DB-44AC-B0D5-E5538A4D4A46";
width = 600;
}
);
unicode = (84,116);
},
{
glyphname = U;
kernLeft = U;
kernRight = J;
lastChange = "2023-08-05 19:35:05 +0000";
layers = (
{
layerId = "32AF036A-4181-4CD3-84B0-594A9F44F1BB";
shapes = (
{
closed = 1;
nodes = (
(234,-14,l),
(239,-14,l),
(244,-13,l),
(250,-13,l),
(254,-13,l),
(259,-11,l),
(265,-10,l),
(269,-9,l),
(273,-9,l),
(279,-6,l),
(283,-6,l),
(288,-3,l),
(293,-2,l),
(297,0,l),
(301,3,l),
(305,4,l),
(309,7,l),
(314,11,l),
(319,12,l),
(322,16,l),
(327,18,l),
(330,21,l),
(334,25,l),
(338,29,l),
(340,31,l),
(344,36,l),
(348,39,l),
(351,42,l),
(355,47,l),
(357,51,l),
(361,54,l),
(364,59,l),
(366,63,l),
(369,66,l),
(373,70,l),
(376,74,l),
(377,78,l),
(380,84,l),
(383,88,l),
(385,92,l),
(387,96,l),
(390,101,l),
(393,105,l),
(395,109,l),
(396,114,l),
(400,119,l),
(401,124,l),
(403,128,l),
(405,133,l),
(407,138,l),
(409,141,l),
(410,146,l),
(413,151,l),
(415,156,l),
(415,160,l),
(417,165,l),
(418,170,l),
(421,174,l),
(423,179,l),
(423,185,l),
(424,189,l),
(426,195,l),
(428,198,l),
(429,204,l),
(431,209,l),
(431,214,l),
(433,218,l),
(435,223,l),
(436,227,l),
(436,233,l),
(437,237,l),
(439,243,l),
(440,247,l),
(441,252,l),
(441,258,l),
(443,263,l),
(444,268,l),
(444,272,l),
(446,277,l),
(447,283,l),
(448,287,l),
(448,291,l),
(448,297,l),
(450,302,l),
(451,307,l),
(451,311,l),
(452,317,l),
(453,321,l),
(454,326,l),
(453,331,l),
(455,337,l),
(456,342,l),
(455,347,l),
(457,351,l),
(457,357,l),
(458,361,l),
(459,367,l),
(458,372,l),
(459,377,l),
(460,382,l),
(459,387,l),
(461,391,l),
(461,396,l),
(461,401,l),
(461,407,l),
(461,411,l),
(462,417,l),
(463,422,l),
(463,426,l),
(464,432,l),
(464,436,l),
(464,441,l),
(465,446,l),
(464,452,l),
(465,457,l),
(464,461,l),
(465,466,l),
(465,472,l),
(465,476,l),
(465,482,l),
(466,486,l),
(466,491,l),
(466,496,l),
(467,501,l),
(466,506,l),
(466,511,l),
(466,517,l),
(466,522,l),
(467,526,l),
(466,532,l),
(467,541,l),
(467,546,l),
(466,552,l),
(467,558,l),
(466,568,l),
(464,572,l),
(460,575,l),
(457,576,l),
(446,576,l),
(440,577,l),
(434,576,l),
(425,575,l),
(420,573,l),
(417,571,l),
(414,566,l),
(414,556,l),
(415,552,l),
(414,546,l),
(414,543,l),
(415,532,l),
(415,528,l),
(415,523,l),
(414,517,l),
(415,513,l),
(414,508,l),
(414,502,l),
(413,497,l),
(413,492,l),
(413,488,l),
(414,482,l),
(413,477,l),
(413,473,l),
(413,467,l),
(413,463,l),
(412,458,l),
(412,454,l),
(413,449,l),
(411,444,l),
(412,439,l),
(411,434,l),
(410,429,l),
(411,423,l),
(411,419,l),
(409,414,l),
(409,408,l),
(409,403,l),
(408,398,l),
(409,394,l),
(407,389,l),
(408,383,l),
(407,379,l),
(407,374,l),
(405,369,l),
(405,364,l),
(404,359,l),
(403,354,l),
(403,349,l),
(403,344,l),
(402,338,l),
(401,333,l),
(400,329,l),
(400,323,l),
(400,318,l),
(399,313,l),
(398,309,l),
(397,303,l),
(396,298,l),
(396,294,l),
(395,288,l),
(393,283,l),
(393,279,l),
(392,274,l),
(390,268,l),
(389,264,l),
(388,259,l),
(388,254,l),
(387,249,l),
(385,245,l),
(384,239,l),
(384,235,l),
(383,230,l),
(382,225,l),
(380,220,l),
(378,215,l),
(378,210,l),
(376,205,l),
(374,200,l),
(373,195,l),
(371,191,l),
(370,186,l),
(369,181,l),
(367,176,l),
(365,171,l),
(364,167,l),
(361,161,l),
(359,158,l),
(357,153,l),
(355,148,l),
(353,144,l),
(351,139,l),
(349,135,l),
(348,129,l),
(346,125,l),
(342,120,l),
(341,116,l),
(338,111,l),
(336,107,l),
(333,103,l),
(329,99,l),
(327,94,l),
(325,91,l),
(322,87,l),
(317,83,l),
(314,80,l),
(312,76,l),
(307,73,l),
(301,65,l),
(297,63,l),
(293,59,l),
(290,57,l),
(285,53,l),
(281,52,l),
(276,48,l),
(272,47,l),
(267,45,l),
(263,43,l),
(258,42,l),
(253,40,l),
(249,40,l),
(245,38,l),
(239,37,l),
(234,38,l),
(224,38,l),
(219,37,l),
(215,38,l),
(210,40,l),
(205,40,l),
(201,42,l),
(195,44,l),
(191,46,l),
(186,48,l),
(183,49,l),
(178,53,l),
(174,55,l),
(170,58,l),
(166,61,l),
(163,66,l),
(160,68,l),
(156,73,l),
(153,77,l),
(151,81,l),
(147,84,l),
(145,89,l),
(143,93,l),
(139,98,l),
(138,102,l),
(135,106,l),
(133,111,l),
(132,116,l),
(129,121,l),
(128,126,l),
(127,130,l),
(124,134,l),
(123,139,l),
(122,145,l),
(121,150,l),
(118,155,l),
(118,159,l),
(117,163,l),
(116,169,l),
(115,173,l),
(113,178,l),
(112,183,l),
(111,189,l),
(111,194,l),
(109,198,l),
(109,204,l),
(109,208,l),
(108,213,l),
(107,219,l),
(107,224,l),
(106,229,l),
(105,234,l),
(106,239,l),
(105,243,l),
(105,248,l),
(104,254,l),
(103,259,l),
(104,264,l),
(103,269,l),
(102,274,l),
(103,278,l),
(103,284,l),
(102,288,l),
(102,293,l),
(102,299,l),
(102,304,l),
(101,309,l),
(101,314,l),
(102,319,l),
(101,328,l),
(101,334,l),
(102,338,l),
(101,343,l),
(102,349,l),
(102,354,l),
(103,359,l),
(103,363,l),
(102,369,l),
(102,374,l),
(103,378,l),
(103,382,l),
(104,388,l),
(103,392,l),
(103,398,l),
(105,402,l),
(105,408,l),
(105,412,l),
(105,417,l),
(105,423,l),
(106,427,l),
(107,432,l),
(107,437,l),
(107,443,l),
(107,448,l),
(107,453,l),
(109,458,l),
(108,462,l),
(109,467,l),
(109,472,l),
(111,477,l),
(111,482,l),
(112,487,l),
(111,493,l),
(112,497,l),
(113,502,l),
(113,507,l),
(114,513,l),
(114,518,l),
(115,522,l),
(116,528,l),
(116,533,l),
(117,537,l),
(119,542,l),
(118,547,l),
(119,552,l),
(120,557,l),
(122,567,l),
(120,572,l),
(118,575,l),
(114,577,l),
(103,580,l),
(98,581,l),
(93,581,l),
(82,583,l),
(78,582,l),
(74,580,l),
(72,576,l),
(70,565,l),
(69,561,l),
(67,557,l),
(66,551,l),
(67,547,l),
(65,542,l),
(64,537,l),
(65,532,l),
(64,526,l),
(63,522,l),
(63,517,l),
(62,512,l),
(61,506,l),
(61,501,l),
(60,496,l),
(60,491,l),
(58,486,l),
(59,482,l),
(58,477,l),
(58,471,l),
(56,467,l),
(57,461,l),
(55,457,l),
(55,452,l),
(55,447,l),
(54,441,l),
(54,436,l),
(54,432,l),
(53,425,l),
(54,420,l),
(52,415,l),
(52,410,l),
(52,405,l),
(52,400,l),
(52,396,l),
(51,390,l),
(51,385,l),
(50,381,l),
(51,375,l),
(50,370,l),
(50,366,l),
(50,360,l),
(50,356,l),
(49,351,l),
(50,346,l),
(50,341,l),
(49,335,l),
(50,330,l),
(49,321,l),
(49,316,l),
(49,311,l),
(50,305,l),
(50,300,l),
(50,295,l),
(50,290,l),
(50,284,l),
(51,279,l),
(51,274,l),
(51,270,l),
(52,264,l),
(51,260,l),
(52,254,l),
(53,249,l),
(53,245,l),
(53,240,l),
(53,235,l),
(53,229,l),
(54,225,l),
(55,220,l),
(56,214,l),
(57,210,l),
(57,204,l),
(58,199,l),
(58,194,l),
(60,189,l),
(59,185,l),
(61,180,l),
(61,174,l),
(62,170,l),
(64,165,l),
(64,160,l),
(66,155,l),
(67,150,l),
(68,145,l),
(69,139,l),
(70,135,l),
(73,131,l),
(73,126,l),
(75,121,l),
(77,115,l),
(79,111,l),
(80,106,l),
(82,102,l),
(83,98,l),
(85,93,l),
(88,88,l),
(89,83,l),
(91,78,l),
(94,74,l),
(96,70,l),
(98,66,l),
(101,61,l),
(103,57,l),
(107,54,l),
(109,48,l),
(112,44,l),
(114,42,l),
(117,37,l),
(120,33,l),
(125,30,l),
(128,26,l),
(131,23,l),
(134,19,l),
(139,17,l),
(142,14,l),
(147,11,l),
(150,7,l),
(155,6,l),
(158,2,l),
(162,1,l),
(167,-2,l),
(172,-3,l),
(177,-5,l),
(181,-6,l),
(186,-9,l),
(190,-10,l),
(196,-11,l),
(199,-11,l),
(204,-12,l),
(210,-13,l),
(214,-14,l),
(219,-14,l),
(224,-14,l)
);
}
);
width = 517;
},
{
associatedMasterId = "32AF036A-4181-4CD3-84B0-594A9F44F1BB";
layerId = "363B994B-20DB-44AC-B0D5-E5538A4D4A46";
width = 600;
}
);
unicode = (85,117);
},
{
glyphname = Uacute;
kernLeft = U;
kernRight = J;
lastChange = "2023-08-05 19:35:05 +0000";
layers = (
{
layerId = "32AF036A-4181-4CD3-84B0-594A9F44F1BB";
shapes = (
{
ref = U;
},
{
closed = 1;
nodes = (
(274,677,l),
(278,680,l),
(281,685,l),
(284,688,l),
(287,693,l),
(291,697,l),
(295,701,l),
(297,704,l),
(301,708,l),
(303,712,l),
(307,715,l),
(311,720,l),
(317,728,l),
(320,730,l),
(323,734,l),
(327,739,l),
(337,751,l),
(343,759,l),
(345,762,l),
(343,768,l),
(342,772,l),
(334,779,l),
(332,781,l),
(327,784,l),
(324,788,l),
(317,794,l),
(313,794,l),
(308,795,l),
(303,792,l),
(297,786,l),
(293,781,l),
(290,778,l),
(287,773,l),
(283,769,l),
(279,765,l),
(277,762,l),
(273,759,l),
(270,755,l),
(266,751,l),
(264,746,l),
(260,742,l),
(257,739,l),
(253,735,l),
(251,732,l),
(247,727,l),
(243,724,l),
(240,720,l),
(237,716,l),
(234,712,l),
(227,704,l),
(225,700,l),
(227,694,l),
(229,690,l),
(236,684,l),
(240,680,l),
(243,678,l),
(246,674,l),
(255,669,l),
(259,667,l),
(263,668,l),
(267,669,l)
);
}
);
width = 517;
},
{
associatedMasterId = "32AF036A-4181-4CD3-84B0-594A9F44F1BB";
layerId = "363B994B-20DB-44AC-B0D5-E5538A4D4A46";
width = 600;
}
);
unicode = (218,250);
},
{
glyphname = Udieresis;
kernLeft = U;
kernRight = J;
lastChange = "2023-08-05 19:35:05 +0000";
layers = (
{
layerId = "32AF036A-4181-4CD3-84B0-594A9F44F1BB";
shapes = (
{
ref = U;
},
{
closed = 1;
nodes = (
(377,680,l),
(378,686,l),
(380,691,l),
(382,701,l),
(383,705,l),
(384,710,l),
(383,715,l),
(385,721,l),
(385,725,l),
(386,729,l),
(387,735,l),
(389,739,l),
(389,745,l),
(390,750,l),
(390,755,l),
(392,759,l),
(393,765,l),
(394,769,l),
(394,774,l),
(396,785,l),
(394,789,l),
(392,793,l),
(387,795,l),
(379,797,l),
(373,798,l),
(369,800,l),
(365,800,l),
(356,802,l),
(351,800,l),
(346,798,l),
(345,793,l),
(342,783,l),
(342,779,l),
(340,774,l),
(340,769,l),
(339,763,l),
(338,758,l),
(336,754,l),
(336,748,l),
(335,745,l),
(333,739,l),
(333,735,l),
(331,725,l),
(331,720,l),
(330,715,l),
(329,709,l),
(327,699,l),
(326,695,l),
(326,689,l),
(324,680,l),
(325,675,l),
(327,670,l),
(332,668,l),
(342,667,l),
(345,665,l),
(351,664,l),
(356,664,l),
(365,663,l),
(369,663,l),
(373,667,l),
(376,671,l)
);
},
{
closed = 1;
nodes = (
(250,683,l),
(251,688,l),
(252,693,l),
(253,697,l),
(253,702,l),
(253,707,l),
(254,713,l),
(255,716,l),
(257,721,l),
(257,726,l),
(257,732,l),
(259,736,l),
(259,741,l),
(260,745,l),
(262,751,l),
(261,756,l),
(264,771,l),
(265,774,l),
(266,784,l),
(266,789,l),
(263,794,l),
(258,795,l),
(249,797,l),
(235,800,l),
(226,802,l),
(222,801,l),
(217,798,l),
(215,793,l),
(213,783,l),
(212,780,l),
(211,774,l),
(211,769,l),
(209,764,l),
(209,760,l),
(208,755,l),
(207,750,l),
(207,745,l),
(205,741,l),
(205,736,l),
(204,730,l),
(203,726,l),
(202,721,l),
(201,716,l),
(202,711,l),
(201,707,l),
(198,693,l),
(197,683,l),
(197,678,l),
(200,673,l),
(205,671,l),
(214,669,l),
(219,669,l),
(223,668,l),
(236,665,l),
(242,666,l),
(245,669,l),
(248,674,l)
);
}
);
width = 517;
},
{
associatedMasterId = "32AF036A-4181-4CD3-84B0-594A9F44F1BB";
layerId = "363B994B-20DB-44AC-B0D5-E5538A4D4A46";
width = 600;
}
);
unicode = (220,252);
},
{
glyphname = V;
kernLeft = V;
kernRight = V;
lastChange = "2023-08-05 19:35:05 +0000";
layers = (
{
layerId = "32AF036A-4181-4CD3-84B0-594A9F44F1BB";
shapes = (
{
closed = 1;
nodes = (
(213,11,l),
(214,15,l),
(217,21,l),
(218,26,l),
(220,29,l),
(221,35,l),
(223,39,l),
(225,45,l),
(226,49,l),
(229,54,l),
(230,59,l),
(231,63,l),
(234,68,l),
(236,73,l),
(237,76,l),
(239,82,l),
(241,87,l),
(242,90,l),
(245,96,l),
(246,100,l),
(250,109,l),
(251,115,l),
(253,119,l),
(254,123,l),
(257,128,l),
(259,134,l),
(260,137,l),
(261,143,l),
(263,147,l),
(266,153,l),
(266,156,l),
(268,161,l),
(271,167,l),
(273,170,l),
(274,176,l),
(275,181,l),
(278,184,l),
(279,189,l),
(280,194,l),
(283,199,l),
(284,203,l),
(286,208,l),
(288,214,l),
(290,218,l),
(292,222,l),
(293,228,l),
(295,231,l),
(297,236,l),
(298,242,l),
(303,256,l),
(306,259,l),
(308,264,l),
(308,269,l),
(311,275,l),
(313,278,l),
(318,292,l),
(319,298,l),
(321,303,l),
(323,307,l),
(325,312,l),
(326,316,l),
(329,321,l),
(330,326,l),
(332,330,l),
(333,336,l),
(335,339,l),
(337,344,l),
(339,349,l),
(340,353,l),
(342,359,l),
(343,364,l),
(346,368,l),
(347,373,l),
(349,377,l),
(351,382,l),
(353,387,l),
(354,391,l),
(356,397,l),
(357,401,l),
(360,405,l),
(361,410,l),
(366,424,l),
(368,429,l),
(371,434,l),
(371,438,l),
(373,444,l),
(375,447,l),
(378,453,l),
(378,457,l),
(380,461,l),
(383,466,l),
(385,472,l),
(385,476,l),
(388,480,l),
(390,486,l),
(391,490,l),
(393,495,l),
(395,499,l),
(396,504,l),
(399,508,l),
(399,514,l),
(402,518,l),
(407,532,l),
(408,536,l),
(410,541,l),
(413,546,l),
(416,555,l),
(419,566,l),
(419,570,l),
(416,574,l),
(413,577,l),
(403,581,l),
(398,583,l),
(393,585,l),
(383,588,l),
(379,588,l),
(373,586,l),
(370,583,l),
(366,574,l),
(365,570,l),
(364,564,l),
(362,559,l),
(359,554,l),
(357,551,l),
(356,545,l),
(355,540,l),
(353,537,l),
(350,531,l),
(349,527,l),
(347,522,l),
(345,518,l),
(344,512,l),
(342,508,l),
(341,504,l),
(338,498,l),
(336,493,l),
(334,490,l),
(333,484,l),
(331,479,l),
(330,476,l),
(328,470,l),
(326,465,l),
(325,460,l),
(322,457,l),
(320,451,l),
(320,446,l),
(317,442,l),
(315,438,l),
(313,432,l),
(313,427,l),
(310,424,l),
(308,419,l),
(307,414,l),
(304,405,l),
(301,399,l),
(300,395,l),
(298,391,l),
(297,385,l),
(294,381,l),
(293,377,l),
(292,372,l),
(289,367,l),
(287,362,l),
(286,358,l),
(283,352,l),
(283,349,l),
(281,343,l),
(278,338,l),
(277,334,l),
(276,330,l),
(273,325,l),
(271,319,l),
(269,316,l),
(269,310,l),
(266,305,l),
(265,302,l),
(263,297,l),
(261,292,l),
(260,286,l),
(258,282,l),
(255,277,l),
(255,273,l),
(252,269,l),
(251,264,l),
(248,259,l),
(247,253,l),
(245,249,l),
(244,244,l),
(242,239,l),
(240,236,l),
(236,226,l),
(235,222,l),
(233,216,l),
(232,212,l),
(229,207,l),
(228,203,l),
(226,198,l),
(220,184,l),
(220,178,l),
(218,174,l),
(215,170,l),
(213,164,l),
(212,159,l),
(210,156,l),
(207,146,l),
(205,140,l),
(204,137,l),
(202,131,l),
(200,127,l),
(199,121,l),
(196,116,l),
(196,113,l),
(194,107,l),
(191,102,l),
(190,98,l),
(189,93,l),
(186,88,l),
(186,84,l),
(183,79,l),
(181,74,l),
(180,68,l),
(179,63,l),
(177,60,l),
(175,55,l),
(172,50,l),
(168,45,l),
(161,36,l),
(158,32,l),
(154,30,l),
(152,26,l),
(149,21,l),
(145,18,l),
(141,10,l),
(138,6,l),
(140,0,l),
(143,-2,l),
(146,-5,l),
(157,-4,l),
(173,-5,l),
(177,-6,l),
(183,-5,l),
(189,-6,l),
(199,-5,l),
(203,-4,l),
(206,-1,l),
(210,3,l)
);
},
{
closed = 1;
nodes = (
(194,16,l),
(191,20,l),
(188,24,l),
(186,30,l),
(183,34,l),
(180,37,l),
(178,42,l),
(176,46,l),
(172,50,l),
(169,54,l),
(170,60,l),
(169,64,l),
(168,69,l),
(166,75,l),
(165,85,l),
(165,90,l),
(164,94,l),
(163,104,l),
(162,110,l),
(160,114,l),
(160,120,l),
(160,125,l),
(159,130,l),
(158,134,l),
(157,139,l),
(156,145,l),
(155,154,l),
(153,160,l),
(153,165,l),
(152,170,l),
(151,175,l),
(151,179,l),
(150,184,l),
(148,190,l),
(148,194,l),
(146,208,l),
(144,213,l),
(143,218,l),
(143,223,l),
(141,228,l),
(141,233,l),
(141,238,l),
(140,244,l),
(139,248,l),
(137,253,l),
(136,259,l),
(135,263,l),
(135,269,l),
(134,274,l),
(134,279,l),
(132,283,l),
(131,288,l),
(131,293,l),
(129,298,l),
(130,303,l),
(128,309,l),
(128,314,l),
(127,317,l),
(125,322,l),
(123,332,l),
(124,337,l),
(122,342,l),
(121,347,l),
(121,353,l),
(119,358,l),
(118,362,l),
(118,368,l),
(117,372,l),
(117,378,l),
(115,383,l),
(115,388,l),
(113,392,l),
(112,397,l),
(113,402,l),
(111,408,l),
(111,413,l),
(109,418,l),
(109,422,l),
(107,427,l),
(107,431,l),
(106,437,l),
(105,441,l),
(104,446,l),
(103,452,l),
(102,456,l),
(101,462,l),
(100,466,l),
(101,471,l),
(99,476,l),
(98,481,l),
(97,487,l),
(96,491,l),
(96,497,l),
(94,502,l),
(94,507,l),
(94,512,l),
(90,536,l),
(88,541,l),
(87,545,l),
(87,550,l),
(85,555,l),
(85,560,l),
(84,566,l),
(81,575,l),
(79,579,l),
(76,583,l),
(70,583,l),
(60,582,l),
(55,581,l),
(49,581,l),
(39,578,l),
(35,576,l),
(33,572,l),
(32,567,l),
(33,556,l),
(34,552,l),
(34,546,l),
(35,542,l),
(37,537,l),
(37,532,l),
(38,527,l),
(39,523,l),
(39,518,l),
(40,512,l),
(41,507,l),
(43,502,l),
(42,498,l),
(44,493,l),
(44,487,l),
(45,483,l),
(47,478,l),
(48,473,l),
(47,468,l),
(49,464,l),
(50,458,l),
(51,453,l),
(51,448,l),
(53,443,l),
(54,439,l),
(53,434,l),
(54,429,l),
(56,423,l),
(57,419,l),
(59,409,l),
(59,403,l),
(59,398,l),
(60,393,l),
(62,390,l),
(62,384,l),
(64,380,l),
(64,375,l),
(64,369,l),
(65,365,l),
(66,359,l),
(68,354,l),
(68,349,l),
(69,345,l),
(70,340,l),
(70,335,l),
(71,330,l),
(73,324,l),
(74,320,l),
(75,315,l),
(75,311,l),
(76,305,l),
(76,300,l),
(79,285,l),
(79,281,l),
(80,275,l),
(82,270,l),
(83,266,l),
(84,260,l),
(84,256,l),
(85,251,l),
(85,246,l),
(87,241,l),
(88,236,l),
(88,231,l),
(90,221,l),
(91,217,l),
(91,212,l),
(93,207,l),
(93,201,l),
(95,197,l),
(95,192,l),
(95,186,l),
(97,181,l),
(98,176,l),
(98,172,l),
(100,167,l),
(100,163,l),
(101,157,l),
(102,153,l),
(103,147,l),
(103,142,l),
(105,137,l),
(106,132,l),
(107,128,l),
(106,123,l),
(108,113,l),
(110,108,l),
(111,102,l),
(112,98,l),
(111,93,l),
(112,88,l),
(113,84,l),
(115,79,l),
(116,73,l),
(117,69,l),
(116,63,l),
(118,59,l),
(119,54,l),
(119,49,l),
(120,43,l),
(121,38,l),
(122,34,l),
(123,29,l),
(123,23,l),
(124,18,l),
(126,14,l),
(127,5,l),
(129,1,l),
(134,-2,l),
(138,-5,l),
(147,-4,l),
(152,-5,l),
(162,-5,l),
(167,-4,l),
(171,-6,l),
(181,-6,l),
(191,-4,l),
(195,-3,l),
(199,2,l),
(198,7,l)
);
}
);
width = 453;
},
{
associatedMasterId = "32AF036A-4181-4CD3-84B0-594A9F44F1BB";
layerId = "363B994B-20DB-44AC-B0D5-E5538A4D4A46";
width = 600;
}
);
unicode = (86,118);
},
